<mxfile host="Electron" agent="Mozilla/5.0 (X11; Linux x86_64) AppleWebKit/537.36 (KHTML, like Gecko) draw.io/24.7.17 Chrome/128.0.6613.36 Electron/32.0.1 Safari/537.36" version="24.7.17">
  <diagram name="Page-1" id="Ut_nwGEzxoNQ-Qg7smcv">
    <mxGraphModel dx="1434" dy="835" grid="1" gridSize="10" guides="1" tooltips="1" connect="1" arrows="1" fold="1" page="1" pageScale="1" pageWidth="1100" pageHeight="850" math="0" shadow="0">
      <root>
        <mxCell id="0" />
        <mxCell id="1" parent="0" />
        <mxCell id="KxPhv7esmDcL3pMQpJow-1" value="" style="shape=image;verticalLabelPosition=bottom;labelBackgroundColor=default;verticalAlign=top;aspect=fixed;imageAspect=0;image=data:image/png,iVBORw0KGgoAAAANSUhEUgAABBcAAADBCAYAAACUlFgQAAAgAElEQVR4nOzdd3gUVffA8e/Z3eym9xCSkIQaQoBQEnoJIL33ooiISBFUBAULmoCCggoiii+IKEV6B0GK0ptSpPee0ENCCOm79/cHqKTgC+9PCeD9PM95fJydnbkzd8492WGKAEeBc2iapmmPi1LA4fxuhKZpmqZpmqbdUckEHFFKtcrvlmiapmn3R0SW6HFb0zRN0zRNe1SIyEVDfjdC0zRN0zRN+/u9K1JBRDqJSGcRYycJ+rH0OyLlxXtapLp7RhFDW5FKImWbSq3jPgBEil0FcW0qLW56g8izItWlxLlioPhEJEy8/lPZ9j+0KUHEzSRNm8h67P+Obby9vAZN72d5i0UKi3NMHQH5O9b9PxGROiKFJPSIS761QdM07R+iTy5omqZpmqY9gbLgWYzBo4CuYOiKITk8C7phUi8afv+BHSgOXWD6IvFZZs+BUWxut1eqHKlLbUwFuPkucZlP0RuHazCe5G0vCwZDHLyCU/GmOdd3VSREpPMs2cI9fzhnQLAV4yiM957nQWRAsAnDZxjw+Os5bWRCHUS9Axj/jnU/OJGhMGwD9nu4tHS8PDJ/h9tYINJavCaMztcTL5qmPfYekUFN0zRN0zRN+9t5D1uFUi2UymyhzrSYlf0PPxuLYmk9mzbl6XO2Umo05d5n/wT2fDVCOmFXDI5wbVfpI5MIPAaB3NgVwUzcTkAJ/CocyLas3mI3EprB6Uo0b9hW2iR5ESOGLiIVRFrXkd44/jmzKZN0bFtE/EVat5DvsEfEvpJIlLiNjhSQBBE3ke51aoj420uRhtLohue9NzILhkiISIUmUifR/fdtGyVSyFNMTaXkxiK5vyPSQyRMJLyJNL/hAVn0F4mU8LeKdhSpLG5jI//8oS3SUyRcpHUdGYgDWIkRKSoS1kTqJ3nds1k5tn+RUGIlNMe92yJ8ur+vINfFH2tF3EJE6ov72Ip/rF/EXEukhji+E/nHCYmc0/LY13EiXiJtG8tBzBdEvEW6NJaDHc05t3OeGH2mQTPSfqqG6dnmcryJ5W2RUJGKjaVy3L23T9M0LQ9LlFLo0KFDh47HI/S4rUOHjvuJN2EM7oPmY2dXAZqUZSd2b8IYfL+biFKiFPIafEXBWZ/f/n/FNSjlTeQZPjkZ8gW8hscn8+dDO9x8tvpQ7RCvEFGGoocYnF462/qa49gGZkNgPMbIGTxTL6w3fI4EnPKEXRie28oI5XsJwqHjdqIJagIrKbxgyEJ/vOrBGiw+O7zgOMVWvH4Swh0xnzBi3OcGR3B4ew1blUPObbwE4QGQgDHgtCfsxdDtN8Yl+SyGluB5ymRgHVQ/S8+LpedCd5zfW4PCPAQ+wBBw2AN2YHx5M9uLu/aDyYjdQYzsMlMgnpoXm6toTH3hEwg45wrb8fxywlDoKniesQjrod0+PlB+ufZ/NKbs299taxF7nvGDOMxldxBy6ak8tqVoETiMHetcMcdR/lCXRPCoD6sx+R/whAOE/9btnCue2aZV+LBHLxifc1/HQjVof4B1yjsOakCnfazr5Z1rO/09BobBL5hKnoJnxrQ10sKE93kxsQp6/cxm5ZLfx7IOHToe/QD0Mxc0TdM0TdOeWDcm1yMzcxbIFG6t9M72WQySAs7YeSVaQQEIJLty3copX8cGsJ/EfUH/gboUaLamItsuMZdmB6iYSmvzxWzLWqZSPoeJUO88a3/tf/H7nw2zCG9B71Mt4xtQu4ltahZTD7XNBOCmreYwBq50/iie1Q6fqQs0+9nuOQ+KF+3+BkRzakWroR44GShntL51q+MheFpSdxcmE/e8NjGBWtcZG1svvhxR1W3TjEy31ioHq8O4XifCxsRQtqay3Vr5z28omz+MjrLFtSkDs5ytm4uyfFywgOAz5Wd2UPV5rqzg7IFKJ4cROpvS7XnuaMsbUC26bL+3t8KrqthHH/u40LMhCy6z4HpUzjZdGkZo9u2flnW6xNs+1WEfxdZNUkd9f8r5Hd9oznhCvdqZjCxDxn7iNtZfAi3XGnp6My+uZjyUp035Gb8m0fzuaZv2vLVrNuHN897XueXaTrup7s/AUtxf2Yr6/vXnrThlSfhNVeQ/Iwjza6xqcPOvDjFN07Tf6ZMLmqZpmqZpT6oC4+ahVCmlfqikatfNfkIgJt1WAOK4daSE8c7fhEkQcIpiBmo5xReAkwFqhecmqELR/lvLwW9cpR7O4ZepRtJfrdYGHkmEpPG0+TLVSQ2A86Re8M0AfFhZdBt0I+u6L0nnjWehINYVwRzc8e2b8ArGrLNZQCYemTS23DBAuiMZkJ738wCsOFgpRxqtSXOHBNJTXTZAw6N4rd3hbK5pgywyreY/vnBcjGfhtQ2EzdnkSJAd6YoEgx0AFt8EIsiyhxRUup0VPBMolcoLTnEopWKsSDL4cHZQn9gkZqzGwYkM26372v6UVF+Vc8a7nBxGsURYudGxdPckUKhUyznwwy0kltYkoVSWism0nYWCd08rCq557eu/6p9s22lNN/15f4ZSzcNY2FX9/KXf8T6TOJm4UJb8Pc/H0DTtyadPLmiapmmapv2bWJPt8PZ2FrE4VYVlTtc/qkXxj7vWskjYCxCNR7MtdOai+yCulOHazXRaBfJCqQMNYIfJKhG4lD6QBVk5F2uADEi0MPsz9yVuxIWy3I5+8xp8PIwymyCSgLJ7nYA0SqdZ29G2XtpoB7qV6RoJ+7CFXyVqeZ8PoB0Ozw8fn0CuH+z3YibOzEdzio4bRo0thBam0vqDv0A7q99Xi4cnZ4xzhUwAAYUty8AqnHdCW6pMGv5JCj8YUPf8zZ9lz9mSLLbQe3bLZ0SCZR9V/OEI3h8uoz6NKmJ+mS+81+T8ngVO59p+f/nt3k+StLEDok46DE4k4uDrpeA6mCgL+0lYGE696VXfECkvxU6UrZRjWoA3znnta0dIceK0M+OeLjESGoOdOe91G7CHdDKuu+JZzPXDQ5Sb4Tfjt+8sNCmaviSMpSkl77cvNE37d9MnFzRN0zRN0/5NrvXvTnx8ElhuNgvdWmEAF4b4nhz83uYMlx0/W7reoO0LgxRk4UxqMBzCqdRxKjnGV4B9/qg0fKodyOtHsqMbB+uz5DwTv9r9UsUjhZ8nbaD//o7vDsZvzVHPj2Yy2fcHgBQCU+mffOR1GMmhkQNqvxNytCc/zXTb0HztUAnagcfxBlcf4K0Ft7iS7Ley8/gBBE+9EThkJN88vbsizPW52LHLe6aKc69CEtgRAkedU6YXY93s0hVhjmVH7UmvO/sPNpMQf69ll07l3LNkDSl4uMvQmRT8BfOYSiXhrVKX+kex1j52t6Huh8xN9cn5PS+VHptr+18e88O9t8JALVgfljramU3Fd6wFCzZRraNZ053t05zXdVv2iYTOw3ymhEMv1mab5j3DoVse+7pAFEebsWsLi1cv/9KLALiZmPe6LdSAH4smvVuKhPCdb3tTvtDFrhMapTvuPeXUZT09HQ/eb19omvbvJtx+MFir/G6Ipmmadn9ERI/bmqZpmqZp2iNDRPQDHTVN0zRN0zRN0zRN+/8x5XcDNE3TtAcWISK57vHVNO2hCwGO5XcjNE27J52jmvbwuOmTC5qmaY+fXfq2CE3Lf/oWJU17tOkc1bSHR98WoWmapj3R3hWpICKdRKSziLGTBG0u/b8sJ0HEzSQNmsp67P/uNmqa9nj7WqSQSFhTaXTD8/dpP4gUFOnSQHZhl59t07R/DRFTY5Fa4jY6Uu48EHaziEdhkabiO6msNb/b9y+hTy5omqZpT6wseBZj8CigKxi6YsgK/6v3zN9LBgSbMHyGAY+8Pr8qEiLSeZZseUzfBz9QHGqJ6xx5Kb1UfjdF0x5pOXLlhEjp4bARw+H3Wd33Jxl32XeJSPuOcAqx/5xUnPO7yZr2JMpWd+eJ8VX4eJXJ9xu3pCELCFn98m6RUt1h61mzIdrpyqurTKW3Pfe/1H/tweiTC5qmadqTzXvYKpRqoVRmC1W57tzqElBfIsUvWKS+lPk1cLpIAXsJbCT1k7wA4kS8RNo2loOYL4h4i3RpPBPuej+8jVEihTzF1FRKbixCb7EbCc3gdCWaN2wrbZK8iBFDF5EKIq3rSG8c4fbVDyLP1G0iEiaOf/7LSnYiPUTCRMKbSPMbd05kKD4QCRQp0lAqHPe517RFIl5eIg0lcHpxBRAjpkri2kTaJHnRW+wixaepdEvyut2O7nVqiPjbS5GG0qa/1xtjqRELVVnaspUU2affaa89Bu4vV9aLuAeI1JfAecV//2GRPVcUX4uEiOenNW0oPhMpKZ7jawgi/UUiJfytoh1FKovb2EhBDNlypeTM0BnwTKzXpJ8i3qVWK2Zd4+tbLS7DknnQEWXNyqedo2kPzVoRtxCR+uI+tuIfdU3EXEukhji+EylgAJGeIuEirevIQBwActXJ+61ZjW545qy7haMJX0LJZrx0ou0K6MfxOd0i+pJ8kvf7kW6r+jlpI4hd18kAeb1FV/ubLVFKoUOHDh06Ho/Q4/b9x5swBvdB87GzqwDNyriNxb0O7MbIbw5wAJP3RTsMh13hKA5DfmancoyFatD+AOuUdxzUgE77vIpR10LDY2xI9lsMLcHzlMnAOqh+lu5UagOzITAeY+QMnqkX1hs+RwJOecIuDM9tZYTyvQThLnAanE7j9v44lDJkby8yBD7AEHDYA3ZgfHkzmxe7fA5dzDhdwMhGeGEjK1a45pxWzos6QXASC1vscYyjxMrex6JxrYz7Edom1VCtcK+I9xGeuVH1EoQ7Yj5hxLjPDY7g/MLPtSDGBYcb2BdaTtG9TfK73x6X0LmYX3F/uVLahxpF4DgWyzYh7BDdb5bdAhWy5UrJhX3GwQA8Pl2EwjAOXsdj7DwUxn4wGbE7iJFdZgrEU3tBy74w5I9cKTmkRVdYQImT/ZVK4034DL95n2YpxXmoC8/uZ5PyyP/99e8NnaP/bFyCokXgMHasc8UcR/lDXRLBoz6sxuR/wBMOUOGz5/vApxBwzhW24zl5Aiuw5KqT0RS/r5rl8PYaRuJ1d90NcqErdPmNrcrzMhQvQLXjzFVBt9uZyTh4HfdPF5Cr7ur4OwPQz1zQNE3TnnA3JtcjM3MWyOQbBfECoOzRUbH2NCmepdIym8a9dAg6mVN3B3Md979emBPlYHUY1+tE2JgYytZUdl4u8zlMhHrnWftr/4vf/2yYRXgLep9qGd+A2k1sU7OYeqhtJmAg1MRzce1V4tBXFdiyL1spfxgdZYtrUwZmOVs3F2Vp61JLYFBG6Kb3bFnW2rCtvvqpqfXuacHB3zSsHc/T53y++Ym06FoLSXmV47P6hRS997YYKGe0vnWr4yF4WpLjAjcNZVEQBS7T/ci76mT4yv/vLte0f1YeubIie64EB3/T8KmrdDvt9dUm0tJqtudQeb51OTgb+mbLlaMLX1pL3rczCQg+U35mB1Wf58oKTrtGDArn2z9ypfOoVZlgweySBoIZUrGm2pvyvCpJ0548vtGc8YR6tTMZWYaM/cRtrL8MWq419PRmXlzNeCi/cc+AXXMo3Y7njra8AdW4/sKrF5tSIledXFauzb3Wk61mpe4uTA1lvrvubrlJHDhYMWO1gwwHUuDK7SsOk1ztvGZDZ4IbL8pdd7W/mz65oGmapj3ZCoybh1KllFpWVe3kkgKFm2+CXSHSLDhnEuSSaIE0R9IVdhhM8Be3ZV5lAzQ8itfaHc7mmjbIItNqvnsOG3gkEZLG0+bLVCc1AM6TesE3A0gjKJUebhfyXHSMGM7CaxsIm7PJkSA70hWXcbmOuyslix8VDCh1MIMdmO+edqY7WdfBB6cKx2zE2MrDWbjmiPneD5/MxCOTxpYbBkh3JANs+seQ9hjJK1cu4JwzL+KhAG6VDtvAOlepDBWDIXeuxDvGCeZ7rsvim0AEWfaQgkq3S87+aZYrJJJ61lOwSCJ4YSlw3fqXY4imPTlODqNYIqzc6Fi6exIoVJrlHPjhFhJLa5JQKqsYuCVQKpUXnOJQSilFZp51MsWpwL0SJ1fNSs9es4xwE65bSMGcDq5X8LERQgq9xW7wTT7Y5vheHF+FLXgIu+RfT59c0DRN055s1mQ7vL2dRcRp4Dks/212gVQnTjsz7ukSI6Ex2JkxgZAl3PjU7hdoZ/X7avHw5IxxrpAJYIAMSLQw+zP3JW7EhbLcjn7zGnw8jDKbIJKAsnud/tuKk3HYCW2pMmn4Jyn8YEApXIvfKkLiGTZN6iylpaCT1G4mr5OVbdqwEo0c4DCXJjc1NJLAj6EVlrBYUkhwIDGNI8vD3l5C/RN45PkwSgA8yLIQrzi9zUvkguMD7V9Ne9jyyhWX4inZ86JMI3c4QuyEVobGrQu3E6kvGXM9QmFvzlyJUlzk1tEAKlJyFdTGcO+TbaaCd+XKsIn2VWArF2Y28AgjbCNUpUilrcNFTJfBDrKEtestIvrknfYksrEDok46DE4k4uDrpeA6GCkN+0lYGE696VXfECkf4IdjSRZb6D275TMiwSJj6qbYcyZXnfRP2Ot4vzWL7HV3fBXOV2FxFq/PiPoGmqQ6VDmLkhuDJvHeRJrXoGb4EKpHSt7POtL+bvpeJB0PJ6IxvAiDRfjBHWKxd10HTeawTnk/3LbYmAnhRFwNVWXxCKbaKlapAvm+f3TouM/Q4/b9x5swhtuXQSow2giuObUG7CYqsXFScXxKE3yMPskVrkKoO7VPsE4VUlHYd4TvwSseL6ZAq+08R2hV2E3xra9NhGY+cB5TxT3BsIGSF3onuOFeH1ZDyHXqHqk3Clr6w2Hwu4znR9EcUOZLEH77uQ3KL8/2RmMYAG9bMMTj7L/Kj4J76ZNQYRmUC4Ht4HwDS+9ZTEj0yDXtKYo+Bd/awXWMUVuocaqcUshQGGTGeB3nsKVFMGz5/f7V39txEUo7Ue84yysEvwQfG7EkU3j1kPzut8cldC7mU9xvrkRRPArmmDDexBi1hQbxZRLBI2euxENgedgJIWc9YDLuY+aiMPaHbwhcPRyFvAoTKbR8ZFQ0prtzZY8b7o1gPjgn4fH+eLbi0Atm3B5zUFAqheZJUfm+z/6loXP0n41zUDwMdkLxcx4wH88vphONuTsMd4Z4JPQ4oVPbDoeOBeE0FLyM95h32Yldrjp5DMt916zVyj973T1Tbzy0KQBxGKocpfrpaoegoQOk/5mLT93gC1U8v/fZkxzARbmTdK0e/jkN7V9rkti16s13S0elDVeDLUcffgOsTBRTnz4Vr11Wu7wWiYhBKaXvwdIeGyKix21NewToXNS0R5vOUU17eEREP9BRy3+XRcqKFJ0aIDJfip9otVokwkXkezeRFeL5+QhBTC+IjBMv+dBL5AcxDpgv63FO8BS3qiJTxSSzxPHd92WX2L0r8rSIzHYR488StqWTQrFQpKKXyGIRWSgBP3Q/LKaQz6A7B6sPkKIB/YKoOU824wEiQ0WeFXFYbhTHZVJiaYeDMeIcLF5zCoiM8RbZKH7fRgtimCDSVsR9qYjfLKl3IyK/96GmaZqmaZqmaVp+MuV3AzQNEKgRdGHCqbaqLwkIdsnR6tk934lrt7OfT9+/ZVQBO4aYCT38U/yAUkM7dxz3zZx5I4qnJ5C1g9fsmDDmBfUiKcj7lEAWoJi1XmxlIg8vHmpYUnNFbeS96z2ShqpvHA+IGKSUylBdxbxoaNmtx1WU96oinxatB3BFKDqC59oz97vO1jfEFHbijRllvNlbFnf3c6/Hva22O1z33jx3Wvy2MPe9HKpL/c1fqjVlVuX3ztP+lSJEZE1+N0LTNMrpXNS0R5rOUU17eNz0yQXt0WAse5y+JAL8CCHOwwx9K9iR4IfRE+VuyoQsigVdoAM2d7jBDat9wWh+6T9s7LLJvcfPknfHruTyy19/AA2HilvjapYbiaSnuLAS119ob6CH81kApe79BOcs8Mel5lk6cIuDSMSwYxcO76fgTfyTaWV/HUWG5+b49PhbB6UHMmrH2rJvi9TuSuOlMWql28mHtas0DdilL/PUtPynL7nWtEebzlFNe3j0bRHaI0hkHvRNfjb5OxXByJJcvnbPWYdh+CJCzU+tmtW57pWBT/EVpSZRszubEoeeTWcSZKQTSWpFlsL0m4FgQ6SO6c67qK1kiN3dizPBBW5uD2Q1jkzHZTfF/CjP5dwrTqIqheJ/U7aX1rNxFr+s7KWfPqtpj4J0+ouUFelSTz6/91sh5ok4i/QOEsTQV6SMSN1G0hHn7HNZeU0kUgJXlL19RjKLd0VKiNRsIA0S3O617CMiLoEijaTEymIAlBBLJZGWItJZxNhJgjaXBjgu4lpEpJEU/KbMHw98ETF0Eakidr1ryiTsEkTcTNKgqazP/UrJr0UKiYQ1lUY3PO+9P0ReEKkgEtVEWuFy3/tIxFLxjzZLZxGHjhKaWPje69E0TdMeHw9eKweLlBCJbCANuFP/bLwt4iO+k33/+r2rf9bS4yKWmiJ1xO7lWrL+r66ezyRGJEw8v6h2rweiXRIpYBHp8Gedqt1OYnBFxNREpKbYvVrzj3WISB2RQlJBfPKqx9rfTz9FVcfDjYnYtYTvGZVWUinFJQjHOGoSSolSWXwGT4P/asT7i4L4/8imiUE9YDzP3opUCukN43jmRtU9UNoZZplhFsbXJrAYlx4wCjvfhTgyFnrMY+s5h2lQ3RVWAAvw/vYVlJJtUMWI63qCig4JpOYCNikPpZB34FmwX27AYRnFFnY8EI1z4d8/H4RTCSrNZwm+3eBtjMaZFpyWUvFIvXzfpzr+VaHH7bzCyrfQGXxi3eEgbqNncECZc853EYqEwgkoedLowDdQ5Jg3rMX06k+sU85/zvvn0+FRyOfQzYDbZYOBHRheXpd93jtRHNcGsB4LeyDkHA3jq8fbExgK57B3XAumZQSv6xLrgld12IGDw4/uGI8TcbCDisbUB8YjBc+5wl58p4/ZAeXzervEcShdCE5hYBd02cNnyjdXW+ZiHAAjoeBZV9iNodc2vj/rcT/7KDEIj4owDVjuCushMIm6iQ3zv48fvdC5+CBhYy1UxFBhaCl4h1J7n8pzPjB1g/bw3HTWKfurUNIR9wXAdz6wmELb+8WBty/un+DIi9BppEcoZSw0nMdO5Xb3+mZDJQxhb/oZ6IVL326NYSqvpIffvb6T4NYCBuM6IxqlJHt7MpgMDTF/9sWfn+VYrvNv7dRrOFS6nTPfmYUZmKMn94f+mC3fg+lbCq1qY1OZxEDf7NOyb/t1CIaI0R4G+kLPj9mqHJRK412oVoyghaxThfK/Hx+v0DmaMx60VhY9hQOzoMA5R/gF2u0n+lqhxdDMAeM16LSNrcrz3uu7U0sDOn3ZEFZg8jngBSfwnvAVShnzmn8QfGqELLzGzyZXTt6O81DOHhYDy31hD7Q+y1i3wi/AZMxFdwTALvymfYLC+A4MB/uruDr+VASJu7se58xBHf+/AC7qpNOhQ4eOxyz0uJ1HvIylJaylzLEecRBUmBLHqVm2PjRowVzlEAteztCmDcRA9TMEl+7cHBYTev5F1QG3CArt4a20MKUyGQoloEj9dvA9hZaP3BOFe3X4jQq/dUIh8Kq7UgoVjeEZqAid6zFOWXZAc3jxV9Z0cBsKI/Ce+O12CLOn9n6aDS9HhLJTShEL1aDbL6zb4z4J+uE1+etdEGmkygl6pYUqMMFVl9uv36p3jKpEQfkmRCW4K5VGNIzEa9LXEdE4toI1lD7ZUykrH0EhD4xNCdlQRKlM3oaqPJPsp6Jwrwx7admyWa591D+5nFI23odAKNyQ8sd8/tyvqXwE7+A25nt23m67juyhc/EBYi7GTvAlo1SJm0UpAL2mcUxZcs0H5hYt8DXx7Cy2Koc4cMTzmqtSqbwEz/LprYAfoROBe16zqQzeg3doUKNNEFW+Ybty/WM5L2MpT+FvWKF8lMoAMPeDD3ktvezd6/sCnFdATVxmfkAeP2SuQAn4dMwfn+Va7k47FY0BphVQysY6qEnFo7WehzasU+5/LiuT3NOyRyJ44n49WEVjeBq+pk9yBQUS6oJXG5jMBhWY7/34mIXO0RzxoLUyYHD71lCMejd9VQ9casNewvp3bwMzcWy3iQL/qWbNs4bkqKXBY0cVplgj1in7c1AJmh9h7Z0T42CuCTVweDsSpQyvgcOb8H62kwtgfgqqQY+6zL3rZEg05g6whBIbXz7ZC7eKFDpI/+RyF6ASPL+FkkRWhN2495oUbqZ5znp8Z9n2kRCF66hI7hoDFoKXDzSi+IpifzVNx58B6NsiNE3TtCfAKRzP41uIyID9/q9xNYTjF0kPDWjEmkG8M73feBiU7NO8SyqUglhXrlaubg9bOdrhVadlDNhF7TRq/HpxvNh1/QjXTRhPx/wIrQHsNxC4nSZGus/cgvTyylKfJRIjpn7D+Ph7Q9BMH2aPZuiwaVMhHM8yJ6k/L6kx7ObmieILTbi7sDGAle8tZlf5E1LteJQrnKjMNCMdXv3oa2iKd9jOU1Da6triKPPsL4rHXCelvG8CePOzD78GfOfJbx+x6dX18oW9/0koiedTe3fGpKWUgoNc31VqthhbvYnnxpsG6xsce2u99EgNG6HUdjXD6eLNi5jScTVhXEquffRrQvHxYujyPk47MJ4Zym+jFshKXAGSAhy85mLfgad6TlARZOZn92pPgG2Yj1PUlwiSnNtwqwS7XR2ipIlI85+kokSKPDdUOuKGUhlLQ0n5/Wv+SqWoeK+kZHHwncB/HBjodMEZUsm85qQwEgKXuFQq2J39Ljwl3YJEJkvk4Qa3ZuF5AvfCtJEW3mIeTOVlpYxgZG7xZiEin4rP1FcFpJ9SyWUh6/f17RMpKVJulJjlWbEb+MoZMMCSQG+Rlw1SeqocpkK25VZwLkWMsin17BV6G+y6UjaCL/bu9IVMWjq1KiDyspTcUEkh5Jy2TaSsSOrpEDMAACAASURBVNV3y4kMkoILXnBR6rpK8DiLP8YrYKCYUyJKqcMDuZEvfaY9eR60VsbfrLV4Z9zFt392MbWbQteNVHfE9MXFM1CcjAMBSErkx2J4OnsNWemaq5ZaS1hPqBOrVB3SMsECDlkYsd4Q8WgAyzeb/Cd6po78jnJ7u36qMlLdIe2PNncUhxaw5Cez12cFmPIf+k/9RMAAcHwYFefRNpgRtWYX9eNWOWJ3MbnzqNbQHY8Kxz84itdF8CVlW7l9BkrlrMc3RDyegmU7LT6jvZKGzKL4ykE2YLtI+Kuw5ao9Q4wnev8kda9G5TUtfzrx0aZPLmiapmmPveTD2KXjJLia0snCZg+ZZE7IfBve43iP3qOIaEvL+dGTYRI0OMsW1/fKwyXUnlSHNPrgWXk/V2uppfBKVuimoWRRqyfMBDCAowOrCvLqJxvsmbTX5DFySszHhE+nbGtqPte3sQN9gm/OKz/HTAgG+zRQFIRUstLsRq9n/1WeCWc2xYewdy5Hlrz6uSMm4IJd/MaIX6lcnmDXPQngSvLIqiSw05jQ/agUX9bvFpBAreuMja0XX46o6rZpRmYOr50JFswuaXeeH5OKNc3+F1gdxvU6ETYmhrI1lV9Tq9zeM5nMOka7vYauSbhwJNc+opfnEhiUEbrpPVuWtTZsq6+akARw6QIVdvN0FoNd9udXv2pPFgEw3v6PFaNKnblu83h+mMb+Pv2YPHWcmnuvH9GZjIIGvNJ9nUKpGsGsrnWpQaLRzuOliVAFk82aSNmbbFDTd8J49i7rtMuMKZkqCexX3++H5fyy6fVEULQ7seJYB6KDrk2OYhseOVs4C56mzsafVYZtOlljv/EHBS1jrynGz+DQes74N8q23D3fvy5gBNg5iQpxQfNPqGodUj9UarlKujX1SigzHY+NedOwxehy9zSnY6Pf+hC6UTDIdh0uEr/P1QiGKyIFS/bmtbXy8gWS83ruk6b97x64Vm6e8J6KCEhNhj4rYATOlffQZfkvHeAH3Adu/KLPwG/XwMBsNWRH06y8aikAMWL6CF6gQNON1JHrP0GLtYae3syLqxkP5WlTbkauh5jNtabehGdbZ8S/XAl+5Nq2mmzBCTKZBw3xbrSHDlzjEAYF18hc7rEXr2fwC9niMo71NWEfxdZNUkP4NFs9PrpwwPfQ+me75zwoXrT7GxDNqRWtjAfFeRb0O+81cgsWevbi/HyOTus4Ffpnm3ZodfuH2nmPCX1yQdM0TXvsOdch1Y3YdM6ku2PGlAQuuJoTIhw5FkmW4NjoAkMtp//4wpRxXrMIfoNB157fCpHlrw+oxEwaJ+LoTtGgk3ceUGUDyIJkK9Wv8v6t+hegemDi3JrDPCmfzklPNo8cPT2VL87icsEtk2tkJnhAR8N+8MLifhN7labUjFjVwWqNhANkXPaMTeGFX7wmXs78mWqf8MunbJk1/ArcwvLKXtadLruJlBc5vfqZNz1wsuJgpRxptCbNHRJIiXBwhURSz3oKFkkELyxe10OhwVG81u5wNte0QRaZVjPAT2Ku+B5eg6kxIFqZuJJrHzmsTLmOuyslix8VDCh1MOP2pmexCsrhUeYsVUh+yN2pPYmqkVGcU5f5Jd0leTrOp6hwi8J1k49DfMGs/ziy/EbIvb6a5Gr2+oD3fBhnuf1mprNkbkJNUJlJX5WHS5RecvD3eTPBgMGS8fOLJJTg1yyu4eQAqZAmtt8fvuyCpGOxkk7ez4tTCAhKqVtm/nzLlA2MOFa/nn256QZAiBFTD3yimBmyEUQsUi7EClCPdC+SBEOM3d3TPEniFhgoPnHveaVmqsxhYw+ImHznqqtHVdboKWp8LN8f7/b/3/Ga9qcHrpUAKDVOqXdjPSncOPkzb7526Pl74pTciyVXDfkNc1611ITIuGE8+zXNK9O500eKTNtZKIhbSCytSUKpLBWTR06WNjq7wOTF5oojj4ETtgwTmRiJMZuOQjnca+yzgTo3jyrf0aMGW441WEB8Sw6NGfRqAfz+WE6MsmWrx+nXPPZDIawrgjm449s34RWMWWe5iuk6+JL4WV1uMPMrpAbsu5aQa1rqlX+kkx5z+uSCpmma9vhrTEopMvbyy6JmYz+lxnoauNFx9KEPUhiws0CNPZVTRrrQ6tcO1t9/XFgRI1eN/Ho4MNWJTAtYyXiOAFJi2b2wSSVPCh2B4gCxXTlTg83XWPxrxHYocA13qM7RIEyXCZ89OsqNxhA+aL5iDjd+CKH9lvBZ0BLvUr9ER8qL4j9igJQwFpoBbXANO1AYMkg548svLR1cIBVrpuWCD7stqT95MvFIsYPgh9k5tUQaVjNxZj6aU3TcMGpsIbQw5SvsqwJbuTCzgUcYYRuhKiUN2/dCO6vfV4uHJ2eMc+X2LQwbREr1hxmXgz+awqEW2+QK1lz7qD07ipB4hk2TOktpKegktZvJQcyQxXkogsU/Fu79Cl9Nu28dbNYeMIW3qnepfIUXKV1j2rAiPPW5949Oc2Aci7uPkHqngy+JOD31MfWtHA2k2YA6cjDGPPkmjWg3eL268yPlEoRiinwjQHhpvCnmKuXid/iz4yZPmdvVhg5UajctJsaa/Bq7p1IvondteIbQRrN94SKzI+uVmsJLlwv2XmatQ+JCEb+BUIu05aH4jYmoD3OMG0q3F7uC/cX9kzpHIR1m2NsZ6daDsqE0+2Ju9uW2mm2DrIPDKLPfY0mcrQY3AZqxr6nJyeeF0An0Pe/TexHVhiVmn9Zv0RvwPZsju4p9sb5SaGm4E5Tm+YqvOIjpmbcxhlLEbzMxYnh6GDVOQRF6dn/qr98Qo2n/xYPWygQxNRF5T4qOr/+2wj0V7BHDHzVhRitu5aoh7bHlrqWpfCq0HkxwDBVfHMLnjvEii4yVYD8JC8OpN73qGyLlpdi+sqXFbE4DEyrNQJ0YS9whSvxIVBn6V+//NBz6Y1uSsLsE/rj6xd252kFBnDMTLD6OkO5ImolEbr8ZznBNRor0zV6Pyx1oDb9iC79K1PI+H0A7HJ4fruqkJZaE3zB3OkzT6NavonpQpv6XZWBPtmnlOk98iD33WNEPOtGhQ4eOxyj0uJ13bINSpWAPBF2lyIKe66GShYij9L4QNh/aQYuD1ex4Hl7Yw86P3EZA+4JwDFwTcH77C7aec5gFtYLgCISc9YIf8F8+AoXMhZq3pwddJHjqSygMo6GNH5wArwSc3pzAYlxegmgHSMSu61oGnPH7FqoWh81gn4Sl6wKeSy54A7yi4HszJGKIPEiFXbXV7bfV9HaHyxgiDlF+d9QlCDfgc8APdkNwLIHf9kEpw3VwawTzwTkJj/fHc2yFZTI084HzmCruCYYNlIl5uR2s5vaPMQVGG74zvlwCpe/eRyhkGZQLge3gfANL71mMVe4qGkNP+J7ANTHWR6BvH9XQuahDx6MdOkdzxwPVyk1lPV6Hbr63a2USlhdmEL3OeyRE4z3xuzxryIREj1y11DdoahmIu12PUOCeSfn4LqoXdt1huDPEI6HHieC5OnDsz/k6n+FjijSHOeB5DSfmQZftrFPu6g1cqsNB6iQ2UkqhemH3PLznAhchKI7AqX2ivsW+A6yk9KWeedVjFY2pJwx1g2tIUCxBM/qhlCSCZz2YYYabGMrup/yxqLym5XdfPmoBXJQ7SdfqIZ/Q0DRN0/5HIqLHbU17BOhc1LRHm85RTXt4RES/LULTNE3TNE3TNE3TtP8fU343QNM0TXtgESKyJr8bof3tgoGz+d0I7YGU07n4RNC59+TSOfr40nn5+HHTJxc0TdMeP7v0ZZ5PHn357uNH99mTQffjk0v37eNL993jR98WoWmapj1+RBxERpf4p19hsFLER4IP+/33ObV/XIwYQqRiKVn/T15xaeMlkaLSEed/bh1PCJ2D2sM4Bh7ScfZEeShjJbpv8tvD6OcYMYRI1Qdehz65oGmapuVyRaSYt7gfEIPMcRRZId7j3hQw5p5T5AWR8dItJfLhtExkKLxG5VZhV0WKFRDHw2Iw/CBiWCbeXw3aLVJcZOAcueu2vx0iRUqKLBSR9SLl10jlI5FgY77Ic1J41yCFYqtIa3H/bJaA4apICZGYyZc8sOfcux/L+kfnx+ZNEe/KItNF5GeRCj/KU5fDL4kUELtpUblfDv44EekjMk66JlXN/Zli1TAaHnd5o/OgnWJpKPKzODgvdhBZLIYXp8gMXPNcZG+xs0ib5vf/h5HQDoJZ8fU78gj8faRz8NHMwezSGCbSySzyk1GMm8Rj1LtyUMzdRBrJynscl4+L18UpRCrPl7V45f4w+zFwf8cpPPBY1QHrUwwZbOiZXup/35B/wEBxuN9x6LJIuJhGT5LfX+34j8o+VjYSWScWxzUislxML06QmeJdVYIWyUb+PGEn4txU5HMxyAYRny1SdN4zAnJZpKwYhk0XMCSKFDFLqy2yDU8GikNpKTtLZuLxKPRN7poYGz5LJFwir4XmZ7v+/x6BmhiD6s6OpgzY3/ZBTiLle/HUNE3THk3x9DiITT2T0oF21eI/rs4afPO7TTf98RpNm4qMKfkzwFX67MNma6WUrYW61vfTQrdfX/WnGDG/DyOONTj6mVKqznr2DuTXt96X9Qb3mnCYq9uKGTAYlkE5bq52ZTNuCRBMgRqne1wndjALTvPO9dr5srF5mAvtfy2yZ7dNqXqr+K0bVss5oDAWU33jQ/nj9Z+SqiRn3/0uxmCaAJ3o1XbOJxewJRF4g1XJfVMVbV5Tk68yMSHv/nHD3oZjJyx33nP+XwlPRbOt+q03i/ItAf/rlvyddA4+ejmYzQsOLt9Ro3vmXNXZGm2LInH7zKir2NKgLU645Xfz/ik5j4EHOE4fbKyaa8t4F5aydE0n69/V+L/JfY9DD1OOsfIGgYmsSemmlGqusr5+Se3kVvYvpDMC+q0MXn4am6qTyLXmlU537EDXWxV863POU/3izA6cj0HJTI6bmZhS5NZ03A9RL5MuO68+Cn2TqyY6nDmfBNVR8midkHpgj0JNVKovzGfvf9oYjmO535brkwuapmnaX0r6EcdTBGXiNi39XZGnRWS2ixh/lrAtnbL/hZhOzs8vvS5OweI1p4DIGG+RjeL3bbSAUFrMXUVixGC/VKTpDPnqkwK3v2u3yCC+y6TayRp5tuUiIZmuzc5Tg+T7afuVYQT9wEATH4ZsA4hSHOjJ4tN8klzeqTinSdnlzTxcFuDvVsG28jjfnym8GkoSUPGwQqmOsJ2T26s8Kn/YFoJYznxU31BjV7GGSl1RLh4ZL8FA0oa1wf7V92WbOAwVeVbEYblRHJdJiaUdbMBlkbIiRacGiMwXR9f3XUS+dxNZIZ6fj7j9r4wi74j0EIPLzMIiG8RQ7ohUvlp7vkikm8h8e5GlUmher1z7IUZM7UWmyOj0ksSIqY3IVPmS4gme4lZVZKqYZJY4vvu+7Npll3NZgsgskSoeIqtEvBfOwTGPf6EBVuG6ivYuPGvJ/mCvOhgvgSv+xmtUEddgqbxA1uLFPDF2EfmPfMUXWayvRfX6X8qIW345119nvZheFIkWO4f5Ik2/kUl4E5OeVovrR/nuetl/pAP/R3/koPONtNUiEbn773e5c1BuX9kwTrzkQy+RH8Q4YL6sx1nn4N8gkMySbMli8PjW4q+MSi042akujddDAxoFjpUy12tQQiydREaI0bhEpNQiqRlbDkR6iHwmHvKpGNp/W16k9919poCrIn7FRKbZGWSamxjOi/vQiTJaXDqJDBejLBBpOEf6p/jnatNgcXGT9otkCy60FncH6bxQ9uJ0UCTMTYxLTCKzpdDKroJI7v4WiRZ5TsRxrYxj6nEK5HmS4F7HwJ/HKWmxIuXE8P4UASOR4lZI7BbXhei7x6qc6885boAQDnu5ujrUdBDzP9KH/193jUOXRXxLifzHXmShyPNzZd7dJ5iE3Lnb0Thb5FlxDZ7gLTJHpPpmeT69BCgWilT0ElksIgsl4IfuB0UKholMMYgsEPu3x8p67HO15V5j5b0MtHdYQlA1Pm42V4FyU9aEN2Axm/Y32NWBlMqsuMmxvV6LIdze8fAiNsdWTLhGMC6Vz0NE1qPQNzlrYuwPtXw+g+4crD5ACk7rIYghd020MUukqzg7f2WQsovFV7rcV02sti3qv46RT1hN9Ijmck3mGTmK94P0yxKlFDp06NCh4/GIhzFuX4ZiHnjtw8h0X/gVr88/ZaeyKw4WFLITysLrc1CYe8B4nr0VqZQi1+ff4l6Woqt4PbWYqomHF42XsS7BfQ20wu3rz1HKoEAuQVHoPZutyiEeAuGdiShlyNmuXdCSgPVvW++00QenQ4gsgbC5tLhZ+jIUg9fmoJRJKcUFiMA8ejJKye1lpPMODCcyoa16GUs1/L+nP+Xg3U9mQCdCVvfsAWN5Ky1MKcVFqIzjF1/++f187tdoDAOgox/8isOLk+mnvM5DHTxnf4RScnv7n1vCXOWsgnEvRchyvlMBlyAcuq5jgvJQYEe0MuwJxr0sxZaxThVU0ZjrYJnOFBV4FUJhxFe9JuJYBfc5vJlaVL2MpSJB37BOeedoj6kdTGFUWkkVjak1TOULVfwilIHXZjJROSqbQkVjn2tZCyhUG1lEn5tllEJ6wASeuVE15zYnQBEY8j1KGdVrONSHn3B0nOMLazD1WsVA5a1UOsNhCJUvtb5ZAF/oPaVsGwpB93lsVQ55rn8GwaGUWMKrqYWVst1ZXxZfQX9KXuue37l4rxzM1X+bR/n/ZQ4qzL3hK6ofbqnmYuwE3/FSQnmdg39PP+6BgKowCUJ3U2xBy+hozE2QmWxQgUrZWAVt8Jz2KUoZ9kM5eH0Op7HvCxMp/esLtjz7TJmOQn18Fg9HYegDH9M9sdIaaIXXwuEoZDM0xW/Hy7acbXoDF1faLWKzclGtcLen00J++81pLnTDf+VQlDLYlCIxj/6e5Uox6LKM6cpVtcSlMFUXsUZ5/bdjIM/jNBpzPZjKx6lFDkEUnsvfOQx1fx+r8lr/MiiXbdxQCvUyrp60WMJ25fqw+/aeca9xCASUWYGpJ3xGncRGlyAc46hJKCW5cnfDFb+50J2Ci0egMEyAVyhx/kUVjX1tZDE9bpZRygpgGAQfUP1US6WQwfAubZNq/LexsiGsw+ywEuwWEbyzzbnXcKhC4CI2KD+lFOolnAtRbxmblMfvyzgBTSgw92MU8iZE06RPk3D8xzhUpCp8OPY76EZo7HN/R9/8LX2XsyYOXOf9AQwh8lrb38fR3DXxWsBc6I77VxNRyni/NXEzFPuvY+STVhNv14wpDE4vfZ99ph/oqGmapuUtgW6HyVLPX4qmyhvxr9yi19E23aEh4vZFNQudIcWFXXffu5dBrs8zMN3EP5lW9tepQoYn8elw0vQbhFCo9a8KbCilrBAAm4OpLh8WEN7AmJLKrtz37bpCOlm3LL9fK3iVXvux2dopdbCjWup8MOf8RkgkI86Ng3cuA4yxGC6BDwWN8XxORgUuxDKbKAq2PlED9nHu49JbKOFCC8slABuYMTlk/v17938Uo2xjlZp7AaoNTf36OPPmvJl41yXGWeCPS82zdOAW3UmK4NgFNqbcvr/WWPY4fUn8EUKchxk+r3CBQdcwemLAjpisjC6kb6B/kZE+ePejXNNvJ36LfTyqKJ+6vibjGbUHfwcy7u+Kx4LRHOrP2GX2ve1mScEv+ow8hEuuZZ3G8TfamOjqfBbADvLcz1YHMuGWgV23132TwCRW3hpwSWU1WJI1aQJTZgwRzPISLOXXKfWXXqEagb1+WX2SjD8WsgrHXOv3OZHan+Mj/cY5jBJz/4/lG1xAkQIWzIaMvNrysOXKwZ5XW+fqP+X+1zm4C1MmZFEs6AIdsLnDDW4k2usc/HuUVypum1K9fuRIx+CTbwwcZnYu+uenVvZBcfyb7FFgK/MSJwux25GLHRzTIYOKYXslrz7bhl1IMDuLXm1fFgNj/mMaEE+vbw78BiHcGlYBYWxTaE1WXNb93Qtdjg4wv8WFJjYkeKEhbN1TN/Lo7/QkgnCJOkdXblICmx3WPC8YyXkM5HWcEmPN6As/MnFTo4lQlyZ1VzvfdZn3rTzW32IdR+8eNwDYg/EWjjbseaQuXslrHFoLnmHI+2J0/2AbFCE5y+nu7+TKXYy3c9exXKzCaguA62Qm299YheMvtDfQw/ksGFDRGM5DSQ5UaSXC2IlQgotZuXIz51h557aIHkpltFFnIhYF5vyCBWsAR62c4U47beyEgtgHXbVhU/XgECc2ROyjGw06cbAAS12mQBkqeBwGHo2+yVkTZ5wZkv5fa6K6XRM9G/+mwHq/NbEI+N/PGJmXx7YmHkTSwA5/833XRH1yQdM0TftrMak2d0jB+JLnJGp2Z1Pi0LPpTIKMdLirkLxuccrr81yySqiycIoLyyMEDIgYLsFFqHOaderNLJt6RWWNGaAichdWJzjP5Z2BpvusXwWiOd+ccVm8cqIGwIZhlP6GdkUY5LIXrKoqHOFakWZEljhQuCvnCqetKfh/7J13fBRV94efM1vSe0gIoYQmEKqAhKaA0lGkBVARBTUICoiI+r7qm2D5CSIooCAovSckQOigEqSpgBTpKJ0EEkDSA8nu/f1BEbIbCDUhzPP53D/yncmZc+65Z+7d2dmZ/TxrpAEpYCUOKuITctCa128f7zOviTwuz6X5o1TOM7CdC5kmDSxYL5oAjBBP6q+lWIUzM3D7g/IBPOGc8K8F0aKgb9qLaVNVHf6vEqfPABBlNCyAaiw9PESppP5qe63faUWGB+ZDvJ0yUin1llVtel61JDGXS1YXyOFPiydzcUrC7dJt1EPRvqmj5mfWz+neLPHtpz5oia+NrZMcr8QviuVZfkShpYKbvZh9XuRcJTaaSc39G3YDxSGNnAwHAJ8J/NVC/Vd7FZ7hpao/FXfAonHRgBmxH0tg4pus2RGv6P6f7HHpfHe2JREm7U8oTzWHv+5Kwu4WV2rQstfZXv5uuQZxQ6/BOydZxEvkyycFpFV/jlfi0GmobDSirPyFCQzUhL+JX1VdQNs3jrInqJVBQFTGVSN55OzUUSod8lq2wWJVb6nsr4apBoMya8BfuH+yBaUGJSsVphI7jrdJQjrKizMmNEx7F+GXhZMTwBiwLFbq87OOx/qzd+YbA8pxPne+28JJUrcHsgnHlKU4puFge+s9NxgDV8Zpdo4TaLT25yfDX6ENRtMukEHOu23OVbnHWzNyrj1vACSup/QFQ62z1CTzbuXt7nLlPJTqcBLa76lw4KjKOf+ftvDn5R0uj9s8zr12SGlAZm1iYUZqKbBSNQqtBByk1qZopdRb55XqqTZ6/ZL7//I+V+bBqKzM9pz8lQ8WPycgyWLwHgkdaVhttSDUhAPmg3ufoFj7Q7HvktaWTed/oeojvOJ8FApHbmznxAsmE1i4KDeYE+XaOVHyOyfaHbO258iiNSfuwXEHjVypx9lbyYv+swi96U1venuA2v04b5+G8r647UYk2gSxGF4bz1h8esNwTP4xOPMV9I5i4yCnT+BdAqP+GzYBk832CfgG0TiadcpLDcalIo/NZ7XyUSVx6gQj0JyWQMgsBo4P+g/0AJdYMM6kzIYONrf7KoXqj0MjnGfzSWbZ3LdfX/G7GE57EVkK2mIC5oQtgXIVIBr4Caqv4rG9da/sfwIaQPv9/Kj8VThaX5hEiZjhOUqhwjC1gan0v3R7dmHI6xfQ2ht+RlgDDRfTLrliChQLhqWYXh3Neh+3D+BFcFyi4bSY8jFdLUrx7625aF/D81BiFeL7TXFKrLh0+3YWQ+FDzMXiQItG2o3ipdPFZ0E9d1gAMgvXT97F5jZ5C9OhA/j9htQcVwGZxzeqwjao6gpzzDAHw6BxbDzmZGsr1DAB2hlwX4d4z/RDYumeHGIb9+Xbc0NOtFeDcGoBP+PoskSDGKgXTaukSpf2s7IMuuAcsejybdnG5+FbpGkUvc6Xy338NyrjUxu+Q5gJjeYTllE61QV/jc5RrFduBV2LdmtwwhYP2/z9WeqGNbgF539/NoH0gdG8kFxfr8E7z+M58HgKxoJ5vYYWh983g1EYhsFrSOnVVD7QUlXAoQt8hiYLodICmhyupS7d8nwpJ+EYbc+ryukMlCyF/IrIQvCbQ+CUzuFNcAyFT9FcYqDCFFqn2PZLONoAGIohMA53voAOM9k+3WUEdAKHuS4QTcDMASi03PmOjMTwJryP+P2MwTAJGi+y97OI3GPAZpyOvnKbPDIYRlLq5w8sSpH7XJX7+L/lOm8odYHhMJhqB16437m9YcvjPPQH1HTG6UfE8/vyMJu6ZzolQQlfHlvFJydK2dbu2VKR8DLlDvdVysIi6EHQ3v5WZWU6NHSHZUA0vlMGrIISwTANMc6F0DGsVh43O1de9xOIy35f/qnEamAJToNH0gGfNjAGkZ/Bex1l577AlZ8gNcarLqY9tP7nKaUszIPeOL0XxwHlcDdyczdyZ29O3AQhBtzj8P1mAArNdk608G+/55DvOTHsvwE3P0cWrTnxD2iC6w+jyOfP0oAE/eKC3vSmN709YO3hPm9bWQb18Yl93nKPj/UnVMHhu9e5D89bKPC81sPdQNeJHFaOCrQP4SNqnO1e8Pm+1E5Dceg3hC3KlPd+OUyFnlTe9ZLdD8U3bTmMhfZU2dn8gchZgbWiV4OFL485fAe9qHP0WaUUf3pRCl5YyHblUvC+3cIYiMTwAowiLLX6bR3HG3dn2v2XLcq56OT23rb8nSvvQrsLuSnUudPnRFQkhvYwkJcyg24hZwlyOXHP3sqtDjo6Ojo6BYeI6OftIkiB5rWPmDpPJCLG4O5vsKRkWeiewbA5n6n3SC4Qf26VPmLqMpGPoyXMjwUT3lLPkno/DqvXYtGg8OVRsVK0ek/jOihH0s+YlcnhYsUlC60HWix7UN43myri8GvJPQAAIABJREFU+ziM2eEzbidn+n6hwFoQfhS+3OrkF31OvAMKbk5MEOAYsP9+HFBHR0dH565QE9hR0E7cQ0oCJwraiQKgMOf1Yc3JzSjMObsXFNVx8DDlsajmMC8ehtwW1Zw+DLnLDw9SfhsZgW36FT0dHR2dB4ei/k1MUY8vLwpz3IXZt4LkYeuXohpvUY3LHg9TrPBwxFtUYyyqcd0qD1I/iIj+KkodHR0dHR0dHR0dHR0dHZ07Q7+4oKOjo6Ojo6Ojo6Ojo6Ojc0dcurjQVcxdRUaKJqvEOXyk7MZsV7tNEkXKe0r9nTIkqzzASZGnxG/xx5a7FMQdEyHG7iKTpPX5pgXtyu1ySsRPTNOb3Pun5Vykp0grWY77zfe1EivSQ8ru61/oXk6to1OkyWaUSEdNtFiRWrHS7mwVIsT4qsgHYpBFovWaLF/jmW/tRnbtapAkElBTJFIMhmXiOuxjQUwRIr1FZLVI+/kyhOIgYqvp3JhsxouEiXlwnGzCablIcGmRaLPIavH88lPZiokG4tRKZJSYZJrIS9/KTNxBJFzkJRGXNSLlF0i787UOi7QSrfROEVkixtfGyQ5c7GkFHbFOQaBYLlLfVWSlSJmV0vhI/YL2SOfWSBQpHiwSZRDDagla0LvQrLl1bhO9Jh8GikrdLtoDTXCdMoI1GPvBCFr+08yedgevyyjvCxtwmfR/KCUn4CmKxX6cUwhe5XGlhYN2e6+uKhwtAerhMusT7vUr0yIxhMKES++Avdn+176zt+D7SG96KyqNm72eqTXuxWgxj9XKYxvUw/D5xKVQF/NXY1EYxkFfym554wjUzo9mvYHdvn3xyq2hMA6E4dTZFmpVVgBzqh/+0C2SNbtcF0A3An5+7287miU/8RXRlp+4E6Aswlx4LYaNx5wmQ0U6pvqpcIwdYDofZlVJgHq4zfkEhYyEN2l8vnUiVISXovlBuSkwEh6urYKuVDj5yr/2rdhq+fftYWxFtl/CMLWBqQzJqnQCKsG709miTEU13qIXVzbD4B1q7O9+ugmu1agYxSLlXzRjfUhym0dNFqkYi2ru8t3s1+2D1A/ApWcu/AQ1KNvuD9XUmtMBNrP/YM3VNtqxmnfy7fMZ6bD/qfRXfHklreoVzYjIfJG6HiLzHUVipeTcsKUioRK45oOuUWJ4RWSqVD3SiwgxPyEek2Rp7m+1LIwT6STiGSsSMEeeTK5DVTF3E/lYDBIt0nKevJlR4rRIdZFy0wJF5ouvvC+mEd8LaNQQLxdpP1d+q+h+HEZrPTPqnhLxqy0yRTRZIM4fDZetW03X+xgVludVpD5i6iwSrolEilT9UZ5Oq3b526JumjgtFQmIkWanQmJEavuILBSRGAlc+rIVxWyRep4ii0wiseLxf/+TxeLcRWSyfHGhEhFi7CgyTb6lAu+ISxnxmecnMspX5BcJmBIe8Ya49oO3yRraEceBn0gcjrlds41rommOSA9xdR2vSc2F0ndFpY9EnhcxLdDEf7E0+LuRTTwdTlcf35U2cdCCVqW+kjr9n8zd13DpG8tqIvNEc13cB15C40F5c5KOTpHg3Ao8kqidSXNSaw1md0nLSs9IqIBfyHErytIJNnDsl+AEKJ4fTeNSDduzO/4wpXJrzMFvJY+WZVitnwVBKXUxPZGyuLY8TtOq6Y1hOwnrKp1NpHxuzaD/XC9vIsQ4AAbSninChYtQil5KHVQxromA1QWyyBSDGRJMqWOq0qJD5e0QQCVr/DaoQ9Dbv1hfIRWlclTER9Z48CS+1TOuYpwiZeZ0ETSx1fTz90PJPzivJdSFFxxOBA7iWDDLHUjFo6Dd0sknUSbDVgim9yNb/eIy05px8CjTU8oXtFs6d4Bek0WfIlK3GsB5cMHZmA5COUglO8ntnI12xu2Obm1X1bQ3YAozvn9tPxgAIkfh+CWeQ1Lez3w3qz+htU++F/J0S44Sv6xS4o94LYZs9kRWXjEPn3X0UrTjzPVGjbIDmtF8/bdKJTynfnbf+uMe2kT6xICFLutZPY2YXZ2zQaBR6fhx6jXVk9G1c8a5EkuxbX9SJ8M3bDchf6UBYN6hfQUDt1Xd+rPVqjqS+el/1OK6hut9fCfEGIev3RgnZGfH0HqYFbpFsWcq2zZ1OiaU/ZjnXlQTMp9X1pOd1jQJ2DEa+d+53qkfKmXpRHy7aVqE5jgOx/8mv5n1XnYkHV9J+cCPMd82y6srPfD0THon89szjXnW51Rk3aGhyjgGvsPj4yVkjf5INSXr+v8QsYmrzqvZRjBi+lJTakfn89+1yf6UPu3ZmP38GRL78euUnjIB63XxbN7Z0TecVXWRX1l5YNDqP75xy93XgshIeGN3tZ2Lrda0Z0bBHKzov4rQ0bmPeLcmuSRr3RiT6vP7SILicfFfU5pETv5UUdsqpmVQBSerpwlO5Ue7kV1akWKjWTGdJ9nJrYX0dxaZImXndz0Pzjh5ZeWA0iADkh2SwCW3hv5hNg8UMUNpFeU9L3GJC7/n3npqKGVm0cOLF82HvcuQ1JxNxz1/XDhthvPHlXhvxv6/wYt/epb3Ehkj8sxY6Zvp1wpmEfRnjxMelkE1jr39Ml+qIFuNoAIIVqeASduCYwaeFpzJIQerF0lWwFjQfunkk90YUjA7UJNM0HCBdM4p14J2S+f20WvyIaCI1K0G4AVpZFhcQXEI3DAVS/Wx0XxTc6/41oo8bhJZJiIrRMzLpfyOTnkfSqRTJFufy36bpzyohsVqqbYM57Oocox0HyRjGb6NEk68yqm6zNP+WEFIUomw7Y8w0eHbg4RQrNM+C+Rcb1Op3jC85o/VnxVpMkPa7C6/HR4hfeijCF+1hQ7knMy5CGCofpC+nGdUduZzHPmdYb81mApNafHkSsXlD7/qB8N+KMPzVTcLoJSystKOjxfz+GatqcnYlRV9RXxGRUAjcs67pUFJ3J46TBgpiEbTlTj/TheN3q5HQUMpFCtx3sozGt0dThKaY2kEf3LCrWxePZlKiTSedTxHCBe9OXuBnEsXa/IkAtu4ruDdersCSzoEwvoyNJTP/YQhGDIymYhD7njWeV9Z+J/EXl9PmIjxLyjNM4/8IYALXLyhbzo6Onef5Tkp7/DrOAYG/l+IO+2tGI8ci2TLq+qjrTzmPbqfmYpccD9adw0786PdyC7NVibZaFYy3XBQqQMyJmc0ZEDlI+Fd2pTAmfR/HI0gVnAGjyxfSMutgX4x0i4RmjES2pDS67HOc/lBsaoBnSeGCQhtxKEfvE+joRNVTUv6pKM8v7zq/k3/NKHhuxn/+5POLTv7QAYun59OVry1kCUbWLLrRX+l0tVu0jzPk9yQU4f4NSWguB2toEPXuf+41iXLhXMGMjBiRDuLn4bNGkyn0FIVixsXs9iBE1hJBRe8Ja2g3dK5ffSafAgoInWrATSDnRxZVlPiNONCeIzKFbc/ZaOV3p774kITpdZlK9VWKdVaqYtt1N81Y254tFCV8wl875NMB0DtakuGB+ZDvJ0yUin1llVtel6FZh1rzvH9qcccO/DE4C2d+Tt+uYV21Hl0s+0nekV9Sp7drqz94vhlDr/vDKsAh3D/ZAtKDUpWKkwldhx//dOojPSAVex8teX3tCnOe867r26SlyzlIZ7IA3UUICLGI63s+NiSRHvhnV5LcKRheDDWNwd/B8uwoi5AAqlryzIJV8hhkh/ZtYmFGamlwIpIUyOtyKjFCgsxFwKIMGoboRol3Q65QA5/WjyZi1MSbv43SaQF60WT3Y0R2MSVe/VuhHhoepg16v0cqxqgcka9daoPFXLHcyoAZURZ+aukqQb8lbuvw8LIKQmJ/JhQCSwkoN+ypaNz/zHwFqxTKuW1X1NYhbnjIUJI/YEtk5Q1od+oi8QT3Pp31fRCTr40hECpVkowaDZ2a7bMsNFKca4Gew/grDlSkWxn0nIOd+QoGasD2RrvtAlqEfj4Ad+yHMqtWeDeP5f2QSRC5cxV6k2Vnd4x6xleEVpuIjpsouoq2oAV/GdBqfl7WF/uR7ByAorh7p5GnDWnE2zn3JlSj8JOziY6AMoXMpDD5gCpWk/iMFIVly14l+KJCadLSaXHrtMau8cXdOg6BUBzMp4gOo25FwJPfkXpfbTOwo3kgnZLJ5+EZlvqwW6m/PVoYlMn1zgqlKan+98F7ZbOHaDXZNGnCNXtIhWKuQuMQFiOY/godimzXe02H+5wGsrDR9NQSlPhaIPga0os+QyFzIJ67rAAZBaun7yLUto2aAndt7JRee+E5vDsLlYqPxvb4Rh7wn8xGGY74BJL7X1Pqgo4hMKnaC4xUGEKrVOCT0ENDMMncuVhh+GYn4GllFj1gUUplEJ6w1heTK97DAKrwBw0bQGGPqPZctLZno/24jzvjncdmI/Re6YHjMNt9qdEYngPeoPbSnCbT63dzadDQ3dYBkTjO2UACpkNIR6wyAixuH/2P3ZFmqdDB/D7Dak5rgIyj29UBTUYlyAaR7NOeanBuFTksfmsVj4pUCwYlmJ6dTQrlUtu32zj2uIcCS9T7nBfdbkP/gM9wCUWjDMps6HDMXvxKGQYvIaUXk3VsGdy97VSit1QsSSsxuARGQgzKb3nDf2BjnrT291r3OzhPuEYn4MIhGh4ZhKvp/qd98CrFkwBonGKGMouZc6vlhKAbzkeW8fMoDK57do7llKK7fBIMZjrAFEUn9oHhfYJ9AJWwNNRvKOKK4XYag/jQ5zymdcr7Vk8hZ5z2TjSaTS8ASVOISwG42LKrHnuIJQqC9MxMAUen8aLGaVVONpr8A4GmQdPzKRPk6AweAtMy02YllNu3kuswWijXZ43H9ac3LWcPXDNyhIIcYFlUGoFTxxuUJTjLYpxnQL/YIg0IispveCVKw9RL4qxPhy5tV+TRSvGopq7/Dd7dfsg9QOQIJcdfvaeX8LQ0dHR0bkriEiRPm8X9fjyojDHXZh9K0getn4pqvEW1bjs8TDFCg9HvEU1xqIa163yIPWDiCToT+XW0dHR0dHR0dHR0dHR0dG5IwQ4BuwvaEd0dHR0dPJNTWBHQTtxDynq8eVFYY67MPtWkDxs/VJU4y2qcdnjYYoVHo54i2qMRTWuW+VB6odGRmDbg3KrhY6Ojo7Og3WL3O1Q1OPLi8Icd2H2rSB52PqlqMZbVOOyx8MUKzwc8RbVGItqXLfKg9QP+s8idHR0dHR0dHR0dHR0dHR07hj94oKOjo6Ojo6Ojo6Ojo6Ojs4dceniQlcxdxUZKZqsEufwkbIbMxFi7iryuVEaHZa5BN3JQRJFyvuJ817RtKUi2mLxHT9YLj3v4dZ5R1zKyuPRsh4v240X6SnSSpbjfvve3oaNPmJykI5PSxzG2z/uvUAxR6SG1D1T+b4f+pb6ROR1kdHSI6W+va3ng8SzjARPldG/+keIfCwOvuuvHUe7RGqKhI+VrZjudhg6Og8m2YwS6aiJFitSK1bana1ChBhfFflADLJItF6T5Ws8863dyK5dTbFcpL6ryEqRMiul8ZH69u2KRIj0FpHVIu3nyxCKF0x/iSDSG5HVSPv55Pajq5gRGYkmq3AOH8luzHY1ZwlEHLYjsgSpF0W/rHJEiBmRz5FGh7kyl4oURyQKMawmaEHvW/M1m/EiYWIeHCebcFouElxaJNosslo8v/xUtmJKFvF6TOR7s8gS8Rr9X0EMn4s8p4ksFpElfiJ7pMKvbyuACDGGiUyWEvNHCkiiSPFgkSiDGFZL0ILelrvSv4WErWIKmyZ93Gd22iO7LwQDbJwk1XxmP7rIEFk5WuaP/UqOxDlOnCxtZG6zBcbIitNk7uAZcvBgsZE/yLsS1XqDRNZZKHMHzJZT+BV0OHlzo7qyU5t5aEtFQsqLbJTic76+7TVbPrDNAY433mbh6ynSSeY1XuIyt1asLF7VR0BiZ0iFejNlvixcOPGSv/b2E7H3v/cqtjvG3lrc3po9t7ZKXLqJDBWRJZomS50l8JC0T21UsMHkj9vN4/LfxL3BtBKTJLLOQkNkpVjDrJf2yQHKFXQ8l9BrssjUZD5IEgkIEZknxgFrZSvOAPbm1txan4liuq91a2dOTJ4tXiHTfadIVK35MrffPPkto6StdqLk11OkkyGy9gKJrLOw+JziG2Th6lHX5m3RHmiC65QRrMHYD0bQ8p9mSmUT7o53c4zzmaOC7uSdl6ehPAyah1LGO36H5mBcgmgczTrlZbMtEkMoTGCtKnXb9m/HxhDcjDw/g43KqaDfL3p9y+E7eJ3aZzre92PfUp9k8jp8zQvJ9W23WZgDL1Jq3VsopC98wZtpNa/bJxztJRhLaHKDu+K73vRWyBs3e+dxa9yL0WIeq5XHNqiH4fOJS6Eu5q/GojCMg76U3fLGEaidH816A7t9++KVW2MKjm1gKkOyKp2ASvDu9AkQktvuKT/8oVska3a5LoBuBPz8niU/8d3t5oe/olukWrPLVUE3FfDze9dthybKdcoItQajghGq5T/N8tAqKb4YrZSSf/8/G+WOt8I4X81RQUplo+AdVWN/d9UEV0XFKLVI+ecrr0qRAGUR5sJrMWw85jQZKtIx1U+FY+wA0/kwvspkeJVKu3uvCcfYDSbSPT3kqo0KuAfy2GS+V95KWVkAbYEYPGZ/hkKGwTvU2N/9dBNcq1ExilvwrbC3+EkUY37f5h0nFZ/ErqxgpdBe/oFvWJ/RQClk4A8MZ82u1m9+z0jWpj6pFPLqD4xl09HG731PBL9kNLnlWiyAlppHXSmlUGGYctcm03Gx0bYo0wQwLYWn8Z7xJZfH9N2P104Ofk5rdcNt63ErO7XnAuJVMbUF5zqT2kVz7Fhg6GSeDI2kHVFRY1BK7O63j8o22lFVojDm8VKzXYvbW7PbX8dfsvEXVIP/G4VShsI6Zv9tOdxJHi/ZsPLTDzxB9KIIlNIKQ7z3sibvfk4LR00W/rF6gwbaBHfKQ88FbFHOSmVjM7cu2VU8r/lWqevr9l71g+2caGHW9/Ri8e6BVmVl2US6sGjtR1NttA0fXR2/uzA/NanKWH7PqnQ5Z5eeufAT1KBsuz9UU2tOB9jM/mM1FUYiBpFmJif7XlwsOS1SXaTy3BIi00VK/yr+8npJkVki9TZIj5RKRIixi8hk+eJCJSLE2FFkmnxLhasGzom5s0i4JhIpUvVH6XC6+viutImDFrQq9ZVUO9coUaR4VZHposlCkRcmy2B8QaS3yNfiJSNFek6WDbj965WV3DZOi/gHi0zWRKLF8b9fSdxUx3EinUQ8Y0UC5kir7+r1G0G/HOIep2Hzb+UzAuzE6l9F5DtHkRiRXpEShQdVxdxDJEI0x1iRtjNlDMVstPERfh+KvCjitMQgzoulYmyoFTghUl/cvv9aQOJFGonH1FGCaK+IjBYf+dxHZKkY3prf0NP46NfwMrsbviXFp/deL1LVQwyLjCJzpeTyHla7mREJF+mmidNSkYAYabG8/nX99Y34dBP5WAwSLdJynryZUcI2PvG+vk/SA+aL1PUQme8oEislo8IEkTkiIV4iK0V8Y+bhbPeuBSIM2lJoyDOPxqkIJAt8mF6sv0i5yfLYnkcv7WO1vgDr+G334+q2R6SOTtHh3Ao8kqidSXNSaw1md0nLSs9IqIBfyHErytIJNnDsl+AEKJ4fTbt8Ndqe3fGHKZVb4wz+awl14QWHE4GDOBbMcodozfb48YmUx7XlcZpWTW8M20lYV8lQED/XS6TsFT+47AdX/bDA5TmSptYcYDP7D9a01Y7VBFxhai1EvsPpw3fZjRmMMIg0rsylUSYDEEzvR7YSl5kGB48yPaV8vvyMEOMAGEh7pggXLkIpeil1UMW4JgJWF8giO9m4DwIJKn2oaYQlpzNsZPPZ6pcMWIn+izYng8Zvsr7KuVQ3zfcVQro/ZWYaiBCHYetl3/ziMtOa3YpvDwABvVWS6jx+jYOyXpoqjmDeq7Xxp6LTYbCoBop9pDtX7GVimuuJVp+5RAYs+sF9nCeB72zNNOBFYus3neZVj5aoUZ9J/KVvowoj6deMZ5u6+gfn3LXJPxS30VLxCFMquwak3VNn7eUgI/ERdYNtp+LxPWx+NIsAzlGHzFrWpaeI9ykV2Uv9PCaZpCumz9vb7xQ1bLSEjNL3NMY7Ivda3GJnzX6w5mq763ggQrTh0IOXBs5Sl09mhRsDd5zHxZrzAEPbl6nSfoIC+0vd+4xek5coGjWZD5SyPudHClz6tE2UyXZunb34kTzn2/tUtzZzIha2QQWcy+wVhNrCAS7sLbdVeOQ6LWt/2Uvj18rCX2n7k8/3hyyPOVx986QGcB5ccDamg1AOUsk+43a3P6QVY2J1NC1apMY86ZxaGRBo7pgQe/L1DRwfRsbwx0/uCu81gc2z+O3Mkzc3uDE7htbDrNAtij1T2byzo284q+oiv7Ly+CC1y2fjFzBwz6N/LrNaszvMYPZa5q7sJ4AjOBG4eY9VTe+tGpH6r1GNvrlsjID+exseWmhVdHn3wufnGOdTdwc0o/n6b5VKeE6tfP334RWYDC03s/HHN9QHJOR21R8S96EGZEHXV5kaz7hz9X/cQ5tZHt97Y83qoFj+onWASsqtHe031O0zXupCZGZ3S5nMF6v8NeQlwzQC8+oSE5ipvHfT2Ujad7OOTtvU8wA9YAHVN45Wp3pMToA6KSWWbrYo9bz1RJuZ9lbw54Wgj3nuRTUh83llPdmJ1W1/+7e/pvVe3Z/GkT4xYKHLelZPI2ZX5+I28Z1/7Lo+yXb950s8h6S8n/luVn9Ca598J4QYAr9D3j//eupgpdI7dyTjjzzCMv9NgDehLqeIUFZPGMKijNe3cPgrtowNl004gRAMJzj3Z0ntAb+VSkfnbuDdmuSSrHVjTKrP7yMJisfFf01pEjn5U0Vtq5iWQRWcrJ4mOJUf7UZ2aUWKjXYI5ww8LTiTQw5WL5KsqypzNrddBU44eWXlgNIgA5IdKJgadsLJKwtQ2PhhhWvmSCCV7CQ3W+2MG03YAZ92IpR+ZH1Wkt5n2tocaTcGMDtQk8zLU3A655TrzV1UxAylVZT3vMQlLvyee+upoZSZRQ8vnjt2qBqcYP+f1eMiDMaNUA0ynQCIMBhnQnP611kjEaJ9nEafc41mzZl0kTMA/XdiSLnGN5d8+/bgYjvYdhqHW9zfTCsbOzC9a8Kz7yX3+5u/vn0yx8JYfOb0zey2K3RwymCNnecK7ZO7s29QV2lbcMxdmxzB1Ubj/v3M80YFn+e2S1+RCVyuUIXtstWCstkPO5q9/y20WO2s2ZPczuW1jo/CczJdS9PfeW9Be37b3FIeFWsSabbb+8ODliq26/GCQq/JyxTJmswHu+3MrWdPu+U53xZk3V7z4VC0SzkR+TcfVzRAcdDgMEye7ESVRpFabhNekEaGxRUUh8ANk29qflZ3a0UeN4ksE5EVIublUn5Hp7z2TSLsT6zWzkrt7Kai3fYBYCidyDMlMkvDecxljlN1aHYQnCM7xTHuZgdPaGjsyoq+Ij6jIqAROefd1nlfM+YjMPwFpehecZtg5CnYxZldpQHtAlykdvCOm8YYgeE4VGJXyLMifDUBKnKisdYbhtf8sfqzIk1mSJvkm36rkwxewcgnYvD8dBOUJTPVdTs8QskOmxVYUUoJFnJrRiiBW+OjhJLOy6TU4UA8v2TY3BlxhWzIoXzpeEKxekIy53D4d6tGKMx/Jr6NFSkTowWvecpe5WZASdyeOkwYKYiGAv7tr8s+pg99FOGrttCBnJM5e8D7uvjSclyuM7oS57Oocox0HyRjGb6NEk4cxnk7HY30cD0KYII875C59rLzKKXOqabk1BnMoUpsUVzgyrEUKP3Cgo4OwPKclHf4dRwDA/8vxJ32VoxHjkWy5VX10VYe8x7dz0xFLrgfrbuGnfnRbmSXZiuTbLQgkl04ZyADI0a0s/hpjCm7LbddJ0gn/R9HI4gVnMHjygf8+00G6f84cmlxk8sPDa6ZIwE3TMVSbTXfVOJUDqrjWSItFuB3TscH2RypKha4mMUOnK5euPCWm38TFaEZI6ENKb0e6zyXHxSrGtB5YpiA0EYc+sH7NBo6UdVsmd4WohoeaRjQbGjQiDiw4uibCMBvOK+jtReNSEz5Hq/l0IBfK/UKgQhSP3527KSvmrpd41tqfn17UAniYnW1PIGDqRXBIL9ANVz3709TJdxxdU2BbOWlkUX238WOqCpV8S+h4ILVS5GCshoK2v28MF4ez/bqyrUuWTa1GUSajQY598VZuzkotk9usK14MZIqXNzsyN94swrnrYZnAijhfDy3ac/inLHZz48d+fnfwotmZ81eLNUnj3V8wh7KWRyfOEcdMgva89vl1vKoyWxoiV/NnwvTE+v1mrxE0azJfFAVi83c6uOfmtd8W3B1a6Cehf1k/FXdipVNiio4Vv87xMK+6zSnqn9bQJ36lYq/uT1/kUeuv5CnATSDnRxZVlPiNONCeIzKpbfn51NaE6XWZSvVVinVWqmLbdTfNWPuVnhJVVEukMOfFk/m4pSEm/+/W5UKGkyVSMPwYKxvDv4OlmFFnQpAGVFW/sJEBJbycILIw9XBwhqoinfwMW52i1SJ622UgIPU2hStlHrrvFI91UbPX+pT8ux2Ze0Xxy9z+H152IFAlMZFA2Z7F/SsrIL2eyocOKpyzv+nLfyJxUlVh0PEL6kjoCGiCSbJrZ2CBFJ/LcUqnJmB2x+UD+AJ5wQNLpJ11h1ENkIgJi2PRY4JM1i4KCaAMWBZrNTnZx2P9WfvzDe0TTjl/g8jJJC6tiyTcIUcpO61V0oN1IC/cP9kC0oNSlYqTCU+O34XPHNdfICbF9arfdKKDA/Mh3g7ZaRS6i2r2vS8OsnxSvyiWJ7lRxRaKtf+POUaqpJdgYRkFlz0Q8RJZPyjVuDwSErup44VB9JBsQ8C8agSbymYDyY6OoUMA2/BOqVSXvs1hVWYOx4AuauZAAAgAElEQVQihNQf2DJJWRP6jbpIPMGtf1dNL+TkS0MIlGqlBINmY7dmy4zcWmhZzjxBdBpzLwSe/IrS+2idRfHD/+S2W8qfQ2SsDmRrvNMmqEXg4wcsBXEbqz+Hr/jBZT8QMSHfBYIBLs+RxGlG4DEqV9xuo1X124FINd7HgwiDBtTEv8Rhm2OFZluA3Uz561GaOrlChdL0dP/7pj5GqJy5Sr2pstM7Zj3DK0LLTUSHTVRdRRuwgv8sKDV/D+vL/QjgA+kbQ9VHKvzIkCDQ6OC8BSBpBf5nqZZDCOnuJ9XZXUo9rXJyuv4BEbj9bxE7Bq2qd9m3xKZOrnH59e0B4cQ4qeEyr0rUKqdiT7Gv7RiJXdQv1Mj4YkcaDjFEVlk0zvNbRZPqP4Wy73vZ3WK4cV7wjPed361CGa8lLUx7RXY2mmeaV2PJhx5DH6GK75KCjicvXK8Zz1fqCkQFSrVS0ossm9osS4KN5kby/fFWWftojLs+B+t+if1Besji7e++YJMf119oakkbaJkzlS2NpjmeezRyp+/AZWFJktRtmoRXcy32Bdap7Zjz6mzxPeGVez+qcDC3llOa+PsT693AYGfNXnH7U3bX8YqDUAbvKqcfmLVRnBjvKI9HcNhHi5JUKFwfTvWaLMo1mQ9Csy02c2u3dvvtz7f3r25t58QlbxYrRmyjc42rGqJqL+rgOqAjgbUmt/Fk0fVatSkacCaLIBweScixs25bpEIxd4ERCMtxDB/FLmU+DeUDYJ4nHMfsv4LgpCdv94ERp6F8MZz2IrIUWILHp5+sgVoYhk9EKTkOTfGeOwyFrITulNk2yKosTIcO4PcbUnNcBWQe36gKKhxze5hFvUqhdWA+Ru+ZHjAOt9mfXn4Y1WtI6dVUPtDyCARUhukIC6D7ZN5WvkohvWEsL6bXte/vRXLbCIZpiHEuhI4hBp+e8F8MhtkOuMRSe9+TKhzj8/At0jSKXpnlctv8A2o64/Qj4vl9eZhN3TOdVEmcOsEINKclEDKLfhllbLSB44M+gBfBcYmG02LKx3S1KIUKxrUFRGMKjMWJ4Th8PwyF9m9cSB8YzQvJ9TdBiAH3OPxGDfwUOoPDXBeIJmDmAK576NjlFo72HvQGt5XgNp860S2u668KOITCp2guMVBhCq1Tgu3Gd12fnC83C+q5wwKQWbh+8i4q1DAB2hlwX4d4z/RDYumeHGKbDwvToRdBmwb8DR5NYQxiXAZBSwjZH3LF514whg4pjQv8IS5609t9aNzs4T7hGJ+DCIRoeGYSr6f6nffAqxZMAaJxihjKLmXOr5YSgG85HlvHzKAyue3aO5ZSVpZAiAssg1IreOJwA3t2lUI+gV7ACng6indU8XzFd9cboqCXghWKp6PUO6q4gobK+P5CdUA5qFDMCkYoYblyDB+ldimzjXagv4OC1gqWKliqnP73uTqgHBSUVzBPwXFl9l+hgpOeVOCvIFIhK1XpBa/kO69X2rN4Cj3nsnGk02h4A0qcQlgMxsWUWfPcJqjhAtFGHBZQJuq5nMv/Fw91MX8xmVzn/pPQCI85/4dScgr8gyHSiKyk9IJXcm7Vt4esFc5+sa2rqzUcmR6Yuzbt1atSSBi85QfrMAQdxNT3KzYqp8IZb1HN46X1s81a3M6a3a6mcvgBXqf8wTcehFiLdm7vXU0WnhiLau5utVmYBq1cYCn4nYSmkXyQUcre3Gp/vrWt2wepH4AEuexwof3toI7OeU/xrJZc4+uTo3cMUQP+fTDMFfaKVAvmw9fZ9cnbqioXC8JHHZ37iYgU6fN2UY8vLwpz3IXZt4LkYeuXohpvUY3LHg9TrPBwxFtUYyyqcd0qD1I/iEjCfXs4iI7O7eJ5Xp0/AS/ntb2KUrsUvHkfXdLR0dHR0dHR0dHR0dG5BgGOAftvtqOOjo6OTqGhJrCjoJ24hxT1+PKiMMddmH0rSB62fimq8RbVuOzxMMUKD0e8RTXGohrXrfIg9UMjI7DtQbnVQkdHR0fnwbpF7nYo6vHlRWGOuzD7VpA8bP1SVOMtqnHZ42GKFR6OeItqjEU1rlvlQeoHEUkoTG9q0dHR0dHR0dHR0dHR0dHReQDRLy7o6Ojo6Ojo6Ojo6Ojo6OjcEZcuLnQVc1eRkaLJKnEOHym7MRMh5q4inxul0WGZS9CdHCRRpLyfOO8VTVsqoi0W3/GD5dLzHm6dd8SlrDweLevxst14kZ4irWQ57rfv7W3Y6CMmB+n4tMRRyB6QqZgjUkPqnqmc///J5nORbiIl5kutxEa3fkwrsSI9pOy+/jd/OavI6yKjpUdK/Vs9yimRemIaOksQ07/5shIl8rKUP9L3Zv+fJBIQIjJPjAPWylacARJFigeLRBnEsFqCFvS23IL2L4rlIvVdRVaKlFkpjY/kEdsF3hcZKQ4lfhORJSL1omTAhvKDRYZJ0+TWV3eLEG2AyBuaaGuNom0U96GfyG7MvCMulaROrKyjGBHi2EJklbyYEQIiA0WGSZeUhrfapzpFjxR38Wkk8rvUP9uZCDG+KvKBGGSRaL0my9d45lu7SjajRDpqosWK1IqVdmer2Nfs1EGEaINF+orRcZZIlVnybEolu9rtEiFmRGIxO6xEHBdTKaE1iCDSG5HVSPv5DKF4/rVr6CpmREaiySqcw0eyG/NtawfFAZFnEFmGOK3hkVXdby3QbMaLhIl5cJxswmm5SHBpkWizyGrx/PJT2YopWcTrMZHvzSJLxGv0fwUMNBCnViKjxCTTRF76VmbiHi9SuoTIdAeRGeI9dohcWRNEiDFMZLKUmD/ytufqB4QjU8WzxUwZLvOGbpAzuP27ReSTKfIfWTA78mq/2NXuFYqlIiHlRTZK8TlfX8qDSIRIbxFZLdJ+vlweu/nT/rVrO0fZ12yPnwdbxRQ2Tfq4z+y0R3ZfCAZIni1eIdN9p0hUrfkyt988+S2jZH61a01vnCTVfGY/usgQWTla5o/9So7gmF8NLHw9RTrJvMZLXObWipXFq/oIIrZaIR7j9tbi+Vyz21vnPBTEiWPXabJAlh0eePN16K1grybs1Y5ek0W6JvNBfj9j2NvvwapbxdLJ0lxmv79NTuJz7ZZFe6AJrlNGsAZjPxhBy3+aKZVNuDvezTHOZ44KupN3Xp6G8jBoHkoZ7/gdmoNxCaJxNOuUl822SAyhMIG1qtRt278dG0NwM/L8jCvvmy08LYfv4HVqn+mY7/8Jx9wG5tx+zi0sgh4E7e1vvem+mbwOX/NCcv3biQ2Udn2+LETCy5Q73Pem/w/aBHfKQ88FbFHOSmUzDN6hxv7up5vgWo2KUSzZVTxf2iLlf9VuGKY2MJUhWZVOQCV4dzpblMnWhyzehmE0Od86b83KL/AUxqFTWaMcVROMb8IIKm95NTISQ3f4gUEXqp+FUsHwC0G7+uwKx/w47tNYrgIKfvzp7V418vPO43C0d+EDDRZS90ynE/Ao5q/GojCMg76U3fLGEaidH+1qLbfGvRgt5rFaeWyDehg+n9i3L165NabgmLsOHgnH18CLMzmsHP+CRngu/c/fYXjk1iz5jS93G4STosE0tUZ5XtX88Fd0i1Rrdrkq6KYCfn4v39q1tqGJcp0yQq3BqGCEavlPs9vW2mx5UkFttUw5qOIUU3SKUeuVW37zmgBlEebCazFsPOY0GSrSMdVPhWPsANP5ML7KZHiVSrt7rwnH2A0m0j09JAHq4TbnExQyEt6kcXzrb6AvdZI6qHCMbWE8a1WAUlYWQFsgBo/Zn6GU5HvMPYBt8TiqsZoG3lMHLSDpUh6UUqydSj0iq88g8ocfUErLS7uX/TIBTEvhabxnfIlSkuqHP3SLZM0u1wXQjYCf3/s7n5rlil17c9R0XOzNW7mPn1e88ZMoxvy+zTtOKj6JXVnBSlmY9T29WLx7oFVZWTaRLixa+9HUfGkbPrrqq0J7+Qe+YX1GA6WQgT8wnLi4tvnSfk5rpdbjVnZqzwXEq2JqC851JrWLZh+VbbSjqkThHd+2a/F8r9lt1jmXbBbeWO9Gu8iIibziOs93JksO9bfe5XhtasJOPb1Qj5L3sybt5bQo1OQDPVbz8xljkfK3W6N2tMLaDymRFPOdWX2yNrPXAk4on8u+Xnrmwk9Qg7Lt/lBNrTkdYDP7j9VUGIkYRJqZnOx7ca3jtEh1kcpzS4hMFyn9q/jL6yVFZonU2yA9UioRIcYuIpPliwuViBBjR5Fp8i0Vrho4J+bOIuGaSKRI1R+lw+nq47vSJg5a0KrUV1LtXKNEkeJVRaaLJgtFXpgsg/EFkd4iX4uXjBTpOVk2XPtNhZXcNk6L+AeLTNZEosXxv19J3FTHcSKdRDxjRQLmSKvv6vUbQb8c4h6nYfNv5TMC7MTqX0XkO0eRGJFekRKFB1XF3EMkQjTHWJG2M2UMxWy08RF+H4q8KOK0xCDOi6VibKgVOCFSX9y+/1pA4kUaicfUUYJor4iMFh/53EdkqRjemt/Q0/jo1/Ayuxu+JcWn914vUtVDDIuMInOl5PIeVpusKOYN5YnfoT49unxet5i0s3McmSvyoriXGecrMk+k4XrpdaFikkhANZF5orku7gMvoV26ojtfpK6HyHxHkVgpGRUmiMwRCfESWSniGzMP5zy+2Rd5S2S4NE9uTgvxqCcBv8k7F6ulF5MAkbcmTxRjbQzDvhvWlbZX81XzVGMATnVs4isSKdJog/S6UNGueaWsz/mRApcqgSiTYSsE0/uRrX5xmWnNOHiU2YsfyZc2PaX8Vbv/4LyWUBdecDgROIhjwSx3IBWPG1dDXlwgBlrR8K15qilZxKmcD2EG+xc92TUUqQUHiEuteBIq7ynu+BNHllTZtAfX9TxtwIPzt3dMnaLC70Op/YX8z28ArAfIguL4hRy3oiydYAPHfglOyKemXf4W4dwKPJKonUlzUmsNZndJy0rP8YcplVvjDP656+BAXRyeYIai05ymP0EZfEsdt1QlK7d2219XXMAAW4NoKZ8j7b/mxTQ/EimLa8vjNK2aDmwnYV0lEimfL+3qN9MWuDxH0tSaA2xm/8Gat63tMdVAqT9owwVqcQHSLRjz+S1NhBgHwEDaM0W4cBFK0UupgyrGNRGwukAW2cnGfRBIUOlDTSMsOZ1hI5vPVjdDgil1TFVadKi8HQKo5BhfBf5mx7C28guBW2mo4UB6qpvm+woh3Z8yMw3kgf72KD883VftUiXZdZ24XNxfoEsv3P4ch1VZ8tTuMWFKZdeAtCt/p18znhtfHqdnrxm7N9IMV8azvTnqH4rbm7dyHz8vAnqrJNV5/BoHZb38RbGFbVAB5zJ7BaG2cIALe8ttFR65qZa1v+xVX49g3qu18aei02GwqAaKfWT9HpwvLSPxkVPx+B42P5pFAOeoQ2Yt69JTnKKGjZaQUfpe5O/ukHstbsn/mj33OuchYM80c9Uhbt9WGZF5JvZe2LepCTv1tOMQNfWaLMo1mQ/y8xljekp5uzX6wNStGAak8OaZoGIzKl9MS712iwZwHlxwNqaDUA5SyT7jdrcjKsbE6mhatEiNedI5tTIg0NwxIfbk6xs4PoyM4Y+f3BXeawKbZ/HbmSdvbnBjdgyth1mhWxR7prJ5Z0ffcFbVRX5l5fFBapfPxi9g4J5H/1xmtWZ3mMHstcxd2U8AR3AicPMeq5reWzXimg7R6JvLxgjov7fhoYVWRZd3L3x+jnE+dXdAM5qv/1aphOfUytd/H16BydByMxt/fEN9QEJuV/0hcR9qQBZ0fZWp8Yw7V//HPbSZ5fG9N9asDorlL1oHqKTc2tF+Q90+46UuRGZ2t5TJfLHKX0NeMkwjMK8uMYGZyns3nY2kfTfr6LRNPQ/QAxZQfeNodarH5ASok1Ji6WaLUs9bT7SZaXtPp9AtnF/q4PArP84fsvAMZ+0dxwAGXMb8c1bx3Dg2RfLr7mYj4Y3d1XYutlrTnhkFc7CijkZojl/iOSTl/cx3s/oTWvvkOyHEEPgd8v7511MHK5XeuSMZf9iPxqo6wyb27Kj7949U2M+p/UQfqX3kDFUo9uy+5pADGpNGX5OvHcXXA+Ae8fdZRfdxbJzHhqSmNxpGV9mNIQWzAzXJBA0XSOfsabd8aeeU6xUzaVtwzMDTgjM55GD1IskK9n8uYwQjm6p8JCILxOfLDwXH61MS4aSdAU8qGJOuSCb4B3XKkSPK2BJ2kfhbpTlQg6ezfg5ioceI36iiDPVP04CsfMWtUzRpIE59cXudt5//uiRkA7hBAid/qqhtFdMyqIKT1dMEp/KjXTHr3Zrkkqx1Y0yqz+8jCYrHxZ9WpNhoh3C2qQOvcPUEbDBve/79PrR/nxeq/1xxABdza7f9afbbC2kQ3IWL9IPFW1mx8m3AGSevLEABGZDsALjkU7vsihWumSOBVLKT3G5fO3P5graCFTyB+/OHCOG6idk+ipihtIrynpe4xIXfc289NZQys+jhxXPHDlWDE+z/s3pchMG4EapBppN3GZKas+m4548Lp81w/rgS73ntrwi7y+WM9Cy2hlWng/53iGOS/nEafc41mjVn0kXO3FYeHnhEG3KS10+UGr3g9HkS89buP9nghJNXVg4o7fI4Tbo8dm+mcXkA2p2jjuCa33kr31wzm4l26dgiqPxocI1mx3R+tUuWlLqy2XrFdm5NUcgX8ddivS9r9geSxeLcQzXqxyPPjX30AhfvxyHt1VMGuOk1+TDVZD6w9xnjms8ODx6KmB9oMdV7ZVq448+/5d6qAXhBGhkWV1AcAjdMvqn5WeCtFXncJLJMRFaImJdL+R2d8to3ibA/sVo7K7Wzm4p22weAoXQiz5TILA3nMZc5TtWh2UFwjuwUx7ibHTyhobErK/qK+IyKgEbknHdb533NWI7A8BeUonvFbYKRp2AXZ3aVBrQLcJHawTtuGmMEhuNQiV0hz4rw1QSoyInGWm8YXvPH6s+KNJkhbZLL38xMMngFI5+IwfPTTVCWzFTX7fAIJTtsVmBFKSVYyK0ZoQRujY8SSvr/s3fe4VEVXRx+z91N2fSEFJIQCDWQAKFXpakUC9ICiIKACIIKUuz6JXyKiAgIKCoICEhLCKFJVQki5aN36SAlAUJLJSS7O98fCS1ZcAk97Ps89yH87u7MOXPm3Lk7O3eWrqRUZ38Cf2bkWxlxhWwwUrp4AhGYPSCZ8zhcO6sRAXNeSGhhRkrM1UJXPnVHmesUfkJhMgfCecybnPdDcV4ot0UAZ3Iu6p7LcDqHKsUIt/4ylmFbCTBwBKdttNbziss/AHa5H3zyI1SErSTGhXwP1VPqE8fRaZWmQg2qVt3obK1t2WmOVvkZhsmVrEy2YwAzqeBMEb9UqzQvuTqL7FKDTGfO68hAjx7tHL4aYLRUpRGM1P37M6VUa3Vu0OeKzBsXk0RdMvvABQ5m+l73Hi+kaCbBZBeDg5yaUnIJHoF06bb3adafOZlMLYo1PmSmkF2YbdwWieupuAVdKUaUHzoCXmXL63383u6Z2kN9upmaXqP72FOWy27/1FjJDmu0qwUvMaYMYv04+gV+UduNlmb0R2m8LCmfFkxy3jwI6Dw4dLDDhOAsRZNJLPiU4RMG7BCq5tUK/qylPaitSbmz/Vs4t6cocIn0C47klOkE7plAmpVabg5pcN0YCbhi55NacM07ZyJBNH8IfY2uEd9hTb5GafpoaEFKt5ptZ/GTYnld2o7vKSC0EIc+8AH1B49X4U3Tn4WYekfr+TceHDw8Hsw4OydN/IdOS8L2rbvQkHrvZfxnJx1+bj8QBh0ekPmfv6FmvaPNKxNH3SVQl/Uh3WpDFKn/fZHQ008VLB6PKPG4LXWoWJuzL74corkNg18bsrhh18V5tYV/RuRf/Xdv0UMG6Rcc9SDm3H7qndt3/00jt49ZHKOCSbN23LIOHbVM7CPjYCUzZtYpKuBY6VBtE3v/VTOEHTJdyYdgsiqpJYkcSC0LOvkTKmKovdMqzcVnb1EfkspkbXTkEF4sx2mz7gV/fNmeTwtwOn4XwnOf0Ap8z17YOXmCkK0G+xIceGZwBxfXt8n4sqP2W3rVe1mnpXxygBRbTj5OOWkFlj5jXPfZ4ZEjXtPH6HkGY1SVzw8H/PCPQ2I9Nk7sK7kTYBpAY9jB0cXhEq/p50FNyhffZs2FqqFSq7OVelYp1VyprBbqUPjcu2V3UhjKGYzsNHkwC0MSrn7XzioVPJAK0bphoZjfGvgDLMaMOuWP0qPMHMSOKEyl4QTRRyqBiZUQhlfoMa5OlN2EgBvLCIADVFkXq5R656JSXdRajz/rUOzcNmXuE8+fM9mwpOf+QJRGlg57SzfFZpZDyz1l9v+jjBc/fBZ2YjKoSnCYhEXVBTRENMFO8mqnIJHU9UEsx4lpuG6htD8NnBI1yCLznBuIrIVA7DSdZWfssAcTWWIHMAZMC5Uaes7x2Nv8/cub2joMt2oKq+sxhpiCIInfEkPARCI5jwFcaEaGO/aHGZAyQin1jlmt66ROcjyEPxVLMn2JQUvl+sdSbsTzbU7V4htGUKoKA1hfhc8dv6N4GAM9dl95zcHrY34nRGSbasFuJh+seqaRwSWeMsXp8Nw+q7Qubod+E3GXEsc8eZqMBsSmMety4MlRFN9L80xcSS6YUQ60g2Ws+eYliceRRqKPgs6EtP7DDCafPiSUNEX7bOMNJ55MO98Utqcne7egXLG9thuNxxt/pTYqdaGJUtkdB8IUqk0Yp8aMPfQTmyYqc2KfkVkkENp8g2p02WiVhhAoFYMEnfYOrFYq5fX1KSzHvvVhwptm5NUiSnI2bx6MOYIOF9/LRpS5Newg47DPCSiSV6OgG+WJBBD+T8ncS3wYRcISKMlhMlYEsjnBAFQh8Mn9VmsidsgPgaCD3DGSeE0P1KR82W0F14pvQ8Qd+Jr6saMZbThmlX9RyjhLqbdUdnrrzBd4TWi6jtie41V70fou5cO4oDl7+KvUbwBFIH1thPpURR59Nxg0Wl/cdAJ8cHNLI95sbAPbuHC4RBI6D/wdLhVRpNaBw5y7YLdLqeeV0dh+C0Th+p/57PH7vUDxeCQwM3SydHDc4T8j2WFbLVY2mi4ZF6rt7LyzrWq/8dV95pT34blVPBs/aXde7YUGMff757Zc/DhypZ+uy+2n3tf13VtpICpQKgZJNzLzjVElSbyTcevEOKnsPLtCzHKDz1PsfXaMLFj0lo8PC+qffyJMF1NtfiuXvq0JrDKphQfz/12rOPnMFAmTmO9nCYpeGuN8jtZ7VxddYf44j+8UDRrEW6U1dPmTRqa0fqaZP7Op/hTH81Wjd3j3W0wFDuTVjMVJuJdxu7voCnzPXtgJ7K22qg5/PK86bOw6Oy11LE4fzDI/7bz1nlZq4Z6vZhm223LyccpJK7D0GaOL26EHbVaBaaSMM7uqgSpi7cvGYgm9Slz2X0vN18ao6ybA5qsI7NvBcIQlOEaOZJeyPw2l/WG2BxzH3m8poUlNCrrhw2ko7YPhb0R+BRbh/vlnK6EKumHjUUqOQyO8Zn2JQpZBR0ps7W9WJqZCK/D9HxI+rgwym29VGRWJfUuYTq2QiOowB73XL+4wDtcZn6OQL+F1pPgKyu9vehT8y8NUhDjoOIkBylsppDuMpXN6Dcv2ZpG3jFCYguhnQcQY5lKkC3yETjfDAecFVNvbREWi7wTfIY1i6HapVN4yt0C4E4bfEI8JpWEGNc62UcUwtIHhaIZFUHs6fTJK5NP6fR/8MXQGx0UahoWUntvepBQqFJdnIBa7wAUYGIbDhC9RaNf8QnrBaF5OrrMOautwi8d3ZL/PoS04zHKGWPx/6Xv9ZjBXj0jsm+Iwk5Wq2E3qkWubJl7bvHELlC0GK9C5RwfCLxTf86ZZmZkOtdwgDmQ6Lp+9h4rQ/QjP6XBbjXj94ossoGNybcuxuMx/IRKv4b+g0H0G/8HtszkopTsFlXP6D9q1eO1sasm2/BtLmpgCzZzhV/A9CY2i+Tgj6BT4hUK0HllG8bjXjEphjYZCvoYBBMyLRCGLoLYzLIagpTQ4Uteyb5Y3dHwfRmDv/z9gETSdzbQn/fvCW6Ct1MFqXAd/zi5lnxsrfReIpsSfH5ty8izcQKNDTFHFH/QmL7bj3h5YvblPNl9DP2qcbXPRHc8qMBmIxRA1mF3K3lotxR/vUtRczS/BJV6CKIRYeGEib+RsJJhPU2by5UExDM/BV+gdpunwmEXV7Q0sarfl33UHlFMQo4SFihdnqJ5p/kohCropWKp4PkYNUkWt1qCe0n8wT+1XDioCewXDlbBEOUaOVLuUfYG1ZTgrmKb0JfcrmK8oPVc9daHqbfn9Ih5Cl1msHWEYDW9CwCmEhaBfSImVL62Dys4Qq8chjhIxLxmV4gQElYSp6JgMT06h8/ni0+BJexyi9fAzune+un5T4pNQH/eZX1DIN3S8f7l4uwfSE97xhdXogg9g13sUm/ydPoNuwFJ4PobcvmuNdjWHo9MD849RFvLVUv1rlaGw9oOH1S+L9+JW3bMfb2LpPudh9vXhj62lnDhmsJQ79zMnC3NMH02/rPuMgULyv+5EkKX3PkrtACRKrsEv3qO5DRs2bNiwcZcRkUJ93S7s/t2Mh9nvh9m2B8nj1i6F1d/C6pclHidf4fHwt7D6WFj9ul0epXYQkcT7varPhg0bNmzYsGHDhg0bNmzYsFHIEOAYsO9BG2LDhg0bNqwmHNj+oI24hxR2/27Gw+z3w2zbg+Rxa5fC6m9h9csSj5Ov8Hj4W1h9LKx+3S6PUjvU1wNbH5WlFjZs2LBh49FaIlcQCrt/N+Nh9vthtu1B8ri1S2H1t7D6ZYnHyVd4PPwtrD4WVr9ul0epHWyPRdiwYcOGDRs2bNiwYcOGDRs27hjb5IINGzZs2LBhw4YNGzZs2LBh447ImVxoL/btRUaIJsvFKXKE7MZ+iUhocZFYe5EV4vH157IZu6BAEbMAACAASURBVIJWckaktK+47BFNFoh4LJcSM16WnP0erGOQOJeUJ2PlLzwLasM1O5z+Fk37VURbKN7fD7wtO24bkddExkqXjBoWTw8QQ3OReKl3tBVAuq8UFekzUw6IwwciI8Qh4H8iskikVoyUlaY+InN8RNaKrvhhEd1CCZjbwwzsFQmoIjJdRFaKVFkuT12ofDtWnhLxFbupDc134OmtyzDxnchbUuKPdy2fV8wUqSw1zpa/AxPujFv2sSy6iDSTJbjdf8Ns2Cg4KW5SpL7IBqlzri1Rou8h8rHoZL5o3SbJN3hYrV0lm5EirTXRFohUWSDPnatgWVMsEanjIrJMpMQyeeJoHaJEGyjSW/SO00UqTJcXU0JAMUektpfIChHHRRL8e0f1QFpKBJHuiKxAWs7hXYrecLq92CMyAk2W4xQ5gt3YF1g7IA6IvIDIYsSwknLLO96erdl8L9JT7AfGyzoMa0RCAkRm2YksEscPv5F4HEEkUuRVEeeVIqXj5LmLVSxpSSL+tUVmi77vKtmME8ARkWaiFd8hIotE//o42Y7zXWvmB81msev8swyRmNoLZGaHebJhWNgrk+Ujia4+T6KrzfOeEbZTlp9p991keVY3u85C+9nl5snsD6PlAD5HfxaPZ36RYTJ78Bo5i+u9N1bxq0jt0iJrpejMb3LuVUSiRLqLyAqRlnPkXYpar10rN19u3kTLX/+9YfvzUrFepx/mV+r6baz02DBKjuJ463Nmpj7XsE35Vyctqt7lhwUy4FAvQaTg2r28D7xDosS+vchQvdQ/IrMIBizes1t6naX8LtxY6hd3M7aWcsJS7thyslDnpBVYyr0zIkVDRWJ0olshwXHdTTd53aOSt8kvi+dL7YZNLtf9hzn+XRbNlgkUu/78/D3QEJfJw1mJvg8Mp2lS40lQltY5v2HeCqbySWaFgv7m5WkoDf1no5T+rBduT0IsbZNrW13GQJyDeSKW1crzTn5783o77s/vfSLdYSyd02tYPN8fQ12YC6/Gsk05p/lQFHrPZD8OA+BLGl5snvc9J+FJXCeMIfe3x1VP7NrAFJ7Y1tysFMvAlxeVx+3YmQi1cJ7+2dUyC3D8axkgxpu+38gP8AbVzra+P3G5zT4WjS4CfmSVCnpg9tkO23HdgTW/eRyJ9h58rME8apxtcwKqYj9qLArdOOhNyU1vHoVq1mjmK2U2x82HZ2azQrlvhVroho7v3RvPvBqTcWwBP/NuZsgJCIH3ppaLxFtH5184ohwPQn08fv1wU0+cauA8l9dSKiiVCSh7q/27m4cvfooO0WrlLhcFHZT/H+/fcB4aKpfJw9VK9AqGq6YXGhdYa7GpiYJqarFyUEXxUbSZq/5Srtb6nQglEWbB63NZqwznwZ3Qi14qGl0nmET75DpnoCy8GstPylWBnkilWdIUaD+6URq6xLFJOSllZjm0p8zJ1wrU5x7yY+cEGhE7fwRKaYvHU4xFCSWunEuaQQDT3h1PUnfXDj/61GOr8lAK3csT7cezNr3WwnFUZAV1vX7uH0dSTrzudbv8CHa/wvN4TfsapSTVFz/oEM3KXS5x0AH/P94/ZKVmulJuT+zy5iZTcc6nbVJ2eeu/J/5Gon3U/NNvGZtVVylkaPO3h/HlpWa3PDcM12dazo1ji/JRP+IU8dz0WBY0LV9g7S8V8PD272wi3fB6Gv0cZqpgpRT579kvNLb0uvz5fe/77AM9LPWLuxzbfDlhIZ9erkWx+5mTdz2mD0lOPtJ9NV/uZfMlDKLyvo6nG+JSkbIxzFd+FnPUgvbwtYOZX5s+0Y13z/QzK8Wfz4S2451jn5pybM3Zc+F3qEzJ57aoRmZjK9jIvoTwrkodUHNdzgBmZ8jkkujuxkxHkXOmlEEQx7qtT+/OmcWZpInEiuNHoyQ+3nG2SBdxCprtJBItUnaVNEyseWMJIp+IdBYxLNKJ00IpuyDi8DPiXkJqxcpvFCFGdO1FvpNBl0P/3Roj34t0l6BlgzYHiLenNJ4p30nRtiKRmki0SNhv8nxaRYDTIpVEys8KEJkqUny9+MkbxUSmi9RaI6+cDLHG7k9FOonYxWnit1DqHqoPkEKp9HCm7OSVna3TC9CeyeMJmktfJ34I/0OApkqdUfO4SFlx6CAyRHS6+SIV4uSJE+E5PlSaXkzkJ2cxbJBqu1vygjj1gQFkDm6NY7/P5FspEihFZpQW+UmKjP1kpkgNV5Hp7iKLxWvMEAHdKRHfaiKTRZM4cfp0mESJxw1lxF+b4czBTAy8qi99oPcskc7iVmKct8hskXp/SbfLZU+Kvtw30JXd9d6RolO7/9xIHPPabtH5MLHvIPJf0UmsSNPZ8lZGwK3jlBJClOjbiUySry6HECX61iJT5DvKXC3zvNjfEP9Wpyt9354W8fAMzYJGScXz9c+IFA0TmSqazBN5eZIMxBtEuot8I54yQqTLJFlzP77ZsmHj5mwYTLWv5D++feEvgEwoim/t42aUqQ2s4difoYlWalrutwjnl+KeRLVLPE1qlYHsLmZa5vH9EYLyapzFbxURzrzscCKwP8dCWeKwvwYODZimaDOz0e9QAu+g4/7jKb6J987zk+s+cEApsh5IY52hJC5Nj9MoLB3YRuLqEK4+NmiC3DGSRmYjsJF9B8ILrO2xq4xSW2jBZapwGdJN6K38liZK9H2hHy2ZLFzOAvBUKlntdj/PGzjvw8WFCurMVqhO8IA/za+RilJGFaXM+TXMKGV+yZcUULkLRswkgAcJzV5wEf1kKTGz3aP+DdI1TKyEyqhpHi6zyk141u31zyjimeubaP9NpyeBH05X3hNTZ/U8vXbhJqniM7PU6uleP16mrtPW53urXaoYu+6nxT2Vyq4MaVf+n35dP30it5+eO0NpazTdlf58Aae8uckFiubTUnHPW/89oRH2h7QQPxrbHQGzqmzetJezl8qpW5w7tRPv9a4BmVTlPD25FGLcc4qdVSoXWNuRXfye+nhH6InqT5o9xuyc/5ss3LMfC1f5Xgf587twc9FSv7jLsc2XExbyafthwm05WZhz0gry5l6MnW4zhNK93Gbf+EtpjTnwD1NTSlvM0UcibxV7tEpl8HH9W4CKjnv2k3K25JU+rQFcBGec9OkglIJUss+6XvHo1GBKTOcVTzrbH7k7BmnUgNNk7/OeAG//Xe/wPLOi3XuXh55nbGh1DTQ8J++6pFSH7Rz8lI0z+7zne21viDNCqSG82o7oSx1NJS51rnDw3VdLv7LWpQcbN/Dx6SfT3sI7hl4GejkcslS7D+MroWmxIpVnS9tL5XvXYWadE83Dn0vkk4tVx8WoN7NPzaX5l2boEMOen9m6rk3uUn6Bpx0TF5x8Yw3HvyRj2JMnd0V2+5GN0/lfWhNLdst1e1okCyU/p1dL1mZ3OsuZPqyf3CWsNDo9ev32t4l23dX/Wb8meF7pTHrQs67CpyISJ0W+/uRmN3gZ4Il9sWTCuDagoFh+kGejvaY6YjK13sneKNaM/miSHkdo7HRygeq7j8y+7P3teVmoLo2BH3D/7yIyR3+qjpIZiKnY4U4XvlXn3v78JdieFqk6rypBp0oXxlRmzUS/UdBva9jmP8xm1ZpLn3+ootTFG8poRObNoq8DHc5jLpxTvDSOddGsSWoUqLL2vwJxVFo7Wp3qPClgFS3y2i67sb+xJMVve2gRXWQumGj3FyumMHdX2+xbxulsk3/tnj5rs2+I/8Ydrb0jWV4DWc+y4/3VriJrv4J+e6ruXGw2Z7eaxoxVzFrWRwBHMBC4cY9ZTe2u6pP6r3XZsHGvqCuG3ri+wYBO3xQj59rgComc/L2stlnsFkMFDGYPOzhljXalWK/mJBdjlStjUotsGEFwAs5+NCMln3YYpww8TDhhxIjZkyQznpGqAayx39rpg160/ICXK/2hgRu6Jc7eIkNFSkyWugerPaAWM2DwzAQUkAHJDly95prhujESSCU7ybXg2tnciUcFS2mAW6fD1LbmeqGYO5hmMV6zzyxyZsP1epxIw4DzrN7sP2YvUR7/HAJPLnQp7SkyRuSFsdJ7h29+Lc03fx06msF0gne+csLd1L/ysQFd+Tp3KXYhwCQ4YP/OybSOB3osS50wl4Tf3haQC9MJGus0rASNPdflvFJ4voeKT9IffvKNc92yWXGhxYO1PIfs3H5qBKXl9tMkcLZGI7cDpm3CMV9uHsUlnwb6++XXjZt/ma07l/N1ngAoBLSrX+HevqbjIb6Jz4v5lvfsjzXZ3PfYWsqnDHC15eTjlJNWsBtdCvYOhHMJNJwhnfPK5UGbddcwX/2MqiC3j3hCGhkmF1AcBlfsvFMFoIU49IEPqD94vAon3xfrf4lUtxMZLyI/iThMkLK7mlpjwQYoivP5CwlQjl21XxRh1I9QlkRTzuoIxzJnFajicJxL/7gMd72WUEYIwPWJf4ggna6kVGd/An+G+/eBBWyc9PSCM9QlqOcGc1kuW6o9iZ47MZvbKrWjg4p13cs606W34M/TWs+GfF/hNxrZ6duztLdIkZFRUB/jRVfdlZtMXfEzvBBwqThcxL7EccIGZwfDebJTHU0W7ObANbvTIRD+KkE9GeorvIsu49IeO3SCEiL2J33N77+xzaP1lckFIxip+/dnSqnW6tygzxWWE00HyWSdcGf39XtimNgBZQhosVWBuWIfDhVji9P4YhjQFUviBS7pIZXMdB0WJi2SqJREb49/AJZCOZfB2piqCQw8i86L9B4O+6AEncI2CqCUuv2tGpzCTyhM5kA4T3aa442OWbadC3mf+zWxDcqRPrgqwqhnoRXGk8asW8YpxTH+32xLrJcv/qu9rmujKHQHIYiOZbcKep6CXZzdVRzQLkMW1UK3F5Kv+Ww8wiSup+IWdKUYUX7oCHiVLa/38Xu7Z2oP9elmanqN7mNPWS67/VNjJTus0a4WvMSYMoj14+gX+EVtN1qa0R+l8bKkfFowyc6c15GBHj3aOXy1gM6DQwc7TAjOUjSZxIJPGT5hQCJcxlTffHalijzCsa9YP7WvwF1ZJXebZJB+wZGc66ETuF+ZaCB3mLw6RgKu2PmkFlzzzplIEM0fQl+ja8R33OT6fgNRmj4aWpDSrWbbWfykWF6XtuN7CiKtlVqVUJ0aPRK7u1Hnn+eKQAbOQ08nK96Zx6I1LErt7AmXbtR2dbZUaVGl0tVu0jwuklyPU4dZn+Jf8GZ9mNCobuZvlDIbUcpPkQ5GHQh/pNMA9zZbzJDFZrF7fmLZ0bLjcggRl03+cB7jw7Hfjj63n+pBzLn91BvSrNHI7WMuNcjMm5sEk5ZPA+N9cSqerDJqTyJ/XCoLmmzV6lXE27BXbnGuaB2Snkg96chavPgap912Yf5U3rW9wFqY3fH74utdQbv5PftjjseTnL3fsbWUTw6QYsvJxyknrSAMkytZmWzHAGZSwRkvubcrUO4pQiXz1n2cTq5kRrElq2oFXH0Pma6fXGgMOzi6OFziNf08qEn54tukvej6LuXDuKA5e/ir1G+WijbCbiMMBqIgK4pU05p/M+dcEZ3bSGhNndrLAuEAVdbFKqXeuahUF7XW708AzGn2CsX/IAzXiqe+PU32dd/oJ5C6PojlODEN1y2U9qeBU2KRHzn4jPpI6wEv8GrY79ZeaFNddd5vUKt+I/P4hXRf3+bEKsKidcNCMb818AdYjPk2Zs/y2E1Zsq/M8OkhARodYaX6wGhWfZVx5Dtq75UlwGXpWYY5FfZdrAYGg9X1Ab6RHHuBMSb6/N0QYLuIr/jsLBsOh0hYXklA2zuOkieoktHjKBmWytDAhDnLwoadIjHQO61z2s+qOl+EcPosTlNMpSGB6P3VFSAienXLMqxBsAcTWWIHOizZjmfeyS0dleEgbp9tQqn+yUr1VGdaf/9vO48lhaGcwchOkwezMCTh6nftrFLBA6mQN/6n/FF6lJmD2BGFqTScIPpIpdxltmF4hR4j79SuDRsPEH+lNip1oYlS2R0HwhSqTRinxow99BObJipzYp+RWSQQ2nyDanTZaJWGECgVgwSd9g6sVirl9fUpLMe+9WHCm2bk1SJKcrYBsWnMuhx4chTF99I8c8wRdLj4XjaizK1hBxmHfUZ15oSBAxm4onlAJlx+MPfIfhwhY0UgmxMMQBUCn9yPiB3yQ2DuXMcOji4OJ17TAzUpX3ZbwbXi2xBxB76mfuxoRhuOWWVjlDLOUuotlZ3eOvMFXhOariO2xfgPRErKIJzZlJldDhK4oHzrww7OnXEAlDdkYFK66rD9Ri1bl29wixItSEJqSjx6wnDehFcQT7gl3I0mfvAIT1bk9+cvPOmlj6k+v4pbu0EUeXqiIktt1BGCg+8RAahuyo7g4DzHPU+OtZtdeVGkyyehBGcsGTpZOjju8J+R7LCtFisbTZfFF/99JdxdxuW6frout596l+SwNRqICpSKQdKNzLy5SUkS82muJN8Xp6KUOUL3xbgn1k56t1LXb+d/UuwlRZvjf8Y3rfaKJCe+96zDF9/feM7xT940p3Uyj/y5wo+TplTZ/kP0vHK1FvPskgMF1Yz1eYT6uM7yPfuDNuthwEK/uOexfZqMvLlTswzbbTn5OOWkFURkm2rBbiYfrHqmkcElnjLF6eJmcYX9o4FQK3j9/JePTAwr3/3H+S8FDGlN7cDJ169qma8isG8HwxGW4Bg5kv1vO4yGNyHgFMJC0C+kxMqXzDfd2OHWx2ko7YPzHoQF4PE7xae9glJyFPxDYQqinwURY1hxyD0aumJX4XcDzIbGc2iTUUJFYt8SplPvbFOlkI+hMzgu0jAspPTc9qbczSUWQzucouazSdnd3A7D34j8CizCs//n78Cn1Pi77UV3PEtSei4RVKkOc9B7/eIO43Cd8TlKySmojG7YeJSS49AIr1lfopBl0JESG/vPtGS3yuIzeI/AmI9QaB/CK+C8APS/UGJNq2P9MVSh7Cz+VD5KmYiGjjh+uOK2NnRUivVQMgRiEX6HCsuouaOuKoNDOxiCJvMgJI6GR6pc70MihCFDJqKUlgI+ofArdj1GMwG/axsbGvkGOkHAcsT726IELGWVCjoGgRVgJpoWh67XaDYppxvKWKacb7TbRDR0pdT+3jn/HumtlIn58ArBf79tVop1UFuHWzze3/aNbIhjXtst9q0yOETA52jOc6HMZJqnhN46Tlv7m5WJqdAKfP+HhI8rg8zmW1Xmah+rFRKRP/7Il/A6UnwF5fc3PQr+5WEqQhx0nMQA5a3+bfNO22E77uKB1Zv7ZPM19KPG2TYX3fGsApOBWAxRg9ml7K3VUvzxLkXN1fwSXOIliEKIhRcm8kbOpr/5NGVmEdR2hsUQtJQGR+qqYhieg6/QO0zT4TGLqtsbKGXkO3gOHGMEjxhq7Gh4e/7drQNR0E3BUsXzMWqQKqqgntJ/ME/tVw4qAnsFw5WwRDlGjlS7lH2BtWU4K5im9CX3K5ivKD1XPXWh6m35/SIeQpdZrB1hGAUtDLBQYAG8PIUPVBEVifY6DEIns6HBL3TNCMqvnQiaAs2c4VfwPQmNoolsGNwT3gG7JXbYLaHU7Fe5Vxv5FZLj3rUL0hPe8YXV6IIPYNd7FJv8nT6DbsBSeD6GQaqoUog12tUcjk4PzJeblvLVUv1rlaGw9oOH1a/TUNofZnvAcez9lhKa1CTfPfsuZZ//dceb5MvvjzOCHmZfH/7YWsqJYwZLuXM/c7Iwx/TR9MuEpdw7BX6hEK1HllE87jUUkv91FsbljzOCHqV2ABIl1+AX78nExm1jJkZ0XduXOmJQh4K/v733mpgi+i5dy+8S899hU+7vLO6d2G3Dhg0bt4eIPETX7btPYffvZjzMfj/Mtj1IHrd2Kaz+Fla/LPE4+QqPh7+F1cfC6tft8ii1g4gkav/+skeAXmLXTvRDu0rPhnwZNte2PMyGDRs2bNiwYcOGDRs2bNi4f9y3nUetQyNCqZ9ve4vQH1X2nB/58F5YZB0FtNuGDRs2bNiwYcOGDRs2bNgoBAhwDNj3oA2xYcOGDRtWEw5sf9BG3EMKu38342H2+2G27UHyuLVLYfW3sPplicfJV3g8/C2sPhZWv26XR6kd6uuBrY/Kcxw2bNiwYePRev6uIBR2/27Gw+z3w2zbg+Rxa5fC6m9h9csSj5Ov8Hj4W1h9LKx+3S6PUjsUnj0XbNiwYcOGDRs2bNiwYcOGDRsPjJzJhfZi315khGiyXJwiR8hu7NeIhASIzLITWSSOH34j8TgWvBrFLyJ1/ESWaiLxonWZJiPxKlhZWXQRaSZLcCu4PZY5I1LaQ+rskHczSwOcFHlKfBf+13SbZfiK09+iab+KaAvF+/uBkvP4ScGpLJ7BUm+ZLMeXQeJcUp6Mlb/wvHreknaFKNF6irynafKrp8gJMbivFHl2tsTjnb8iMzEiXaVcYs87shewPua5dZY+2vvGv63jlIiv2E1taIYb2+kOOCVSS+wGT5f7sifJ7ft8/7l3OWfj3pLiJkXqi2yQOufaEiX6HiIfi07mi9ZtknyDh9XaVbIZKdJaE22BSJUF8ty5CpY1xRKROi4iy0RKLJMnjtYhSrSBIr1F7zhdpMJ0eTElBLL4UORVP5G9Uv18+wfXUiKIdEdkBdJyDu9S9IbT7cUekRFoshynyBHsxv6ONJFmaMV3ILII/evj2I6z9bZm871IT7EfGC/rMOQbq9fFGIaKvKSJLBSRRb4ie6TM+gHKwnsBiBJ9T5FJEjBnhICcESkaKhKjE90KCY7rfjvjnw1rUPwqUru0yFopOvObnPsDC/litXat3IKXYW1e27jvRIl9e5Gheql/RGYRDJDhJIFB4rBNRBaJ1IqRPpmlkkU8a4pMsBdZJJ6jPxJE/7XIC44ii+3FsFLKLe9ofsCuPLzYctLG3SVJxL+2yGzR910lm3ECOCLSTLTiO0RkkehfHyfbcV4tEuotMsdeXJZIaHwrQaSw5O38PdAQl8nDWYm+Dwyn6YXG58Gd0IteKhpdJ5hE++Q6Bf3Ny1TwK0LlxfS4UFIpIx0gmE3KrkDlRaOLgB9ZpYLu9m9znobS3rAG54lfoJScgKfwWfBf422WAf1no5T+Lv9uqKaUQg3EOZgnYlmtPK+et6TlPX7EriVMZ1hmyM3rMRENXSmb0PNO7bU+5rl1ljrS+8a/rasnEWrhPP0zrv0Wu3bn7W0E1F0ox5rj9n2+78c9zDnbUbADa37zOBLtPfhYg3nUONvmBFTFftRYFLpx0JuSm948CtWs0cxXymyOmw/PzGaFct8KtdANHd+7N555NSbj2AJ+5t3MkBMQAu9NLReJt47Ov3BEOR6E+nj8+qFJKfqD4V2Iosq5iNvy724evvgpOkSrlbtcFHRQ/n+8f8N5aKhcJg9XK9ErGK6aXmhccC2psYL2qszJ1woS10QoiTALXp/LWmW45VhdBrdAak5igvKy9F6lzMTBs8Bc3GcMQSFfwiAq7+t4uiEuFSkbw3zl90Bicl8OEz9OpAUzG8XpZpeZwswB09if4jPvJ2q4zwhfaDe77EJmD/6FI1s9vp7Ae0Q3W8PsavOY+fYMEpVvQdvlR7D7FZ7Ha9rXKCWqJ3Z584WpOFulXRlX76CMcgPwtiqvldLuej8ATwWTlcYcxVOzVY/0YnnOV1QwX0Gssnt/lFqpHO9IyymzjII5ymvCeHXt3uEh7d/ZRLrh9TT6OcxUwUopkiAEvhpNru1KGZkEPQjZ3X1lJPoOMJ6XN9V5EqqxWDmkFMXHjjZz+Uu5Pty+3uTYhF3EZGKIqb+U2dXmEfPNVygMvScxiOiGsw0zS89gzoQhKGU3fyplak5jDnFx47mN2D7KOXnXY/qQ5OQj2VevtZH2oxuloUscm5STUmaWQ3uuH/dzxuzv6JUWnhxAER+ejON/XxSxlLf3sx0SfqABs5rvyBnrmsxhWUr9AxMo4zsjfA7RlSczs3kcf1ysrjZh9/rP9HKd1noPuzJDr4tZzmMRv0NlSj63RTUyG1vBRvYdC/dQKlntdj/PGzjvw8WFCvZnCjZ3odgBdc/5Dd1snOBxBHTMUuqoqm7Oninyiri4fK9J+DzpvTTkU5FOInZxmvgtlLqH6tNL7NqKRGoi0SJhv0mr05W+b0+LeHiGZkGjpOL5+qdF/EJFJmkiseL40ShLKyxOi/hVEPnBUWSuSLdoicH9ZtaelVb7nkp/zZvX0sKuaHpEZojU8hCZbyeyQNy/+I9sxu60SCWRStOLifzkLIYNUm13S0tlnhCpI64TvhGQBJH64v7zSEFklkhncSsxzltktki9v6Tb5bIg8rFId9FcZwSLrBItfK88JS2CeSLmysoED/5yp5GM8hBZIa5DRkhp7K9WFib2HUT+KzqJFWk6W97KCLiZr2dEioaJTBVN5om8PEkGnrq6muG0iJ+vhM6QPpeC8rXxOjG8JjJaisjQIiK/iu6dORKPy7/HnOxb1Zm338wRqeEuMsdRZIEUi+kpiMwVqVZEZJ6IzJXSTXr3hgFkDm6NY7/P5FspktNOyZ53Eq/Toq+M7qsfBNEsx8jSe/L2w6OOy0Wqu4pMdxdZLF5jhgjoTon4VhOZLJrEidOnw2TzT3YAnGrd0FskWqT+Gst1KKwrD7t82nvi2kFkiOh080UqxMkTJ8LByLcib0uls6+AkVEi/aXqppfyx3W3S96cu1l/svFwsWEw1b6S//j2hb8AMqEovrWPm1GmNrCGY3+GJlqpabmrr84vxT2Japd4mtQqA9ldzLTM4/sjBOXVOIvfKiKcednhRGB/joWyxGF/DRwaME3RZmaj36EE3kHHBRipsi55QOYDbawzlMSl6XEahaUD20hcHcKVlX2YIHeMpJHZCGxk34HwgmtHwgEPEpq9gOgnU2JmO6xd3RYl+r7Qj5ZMFi5nAXjedKw2E3uQFieDv19n7sF5S+9NddW8X6N24WNs8QAAIABJREFUx6fsmQIixKPbDKF0L7fZN/5SWmMO/MPUlNJ3p5EfRnSy08zTBCwca2x/sGuP9JEXOZcQshQqJBdb/X5W+wMt30iLPM8xz2pJ4ETRuI9U+82tVMcxnVRRCnhPBD2Vyq4MaVeFCzjlzRcuUNQqLTX3fuYOytj/T/4ctpjX8Xd79ZoZoBXBG7ZhMreD32NY9Ge3q6ejRAPeICL5SxTtyB6WxZB5TQqsDU5uCEaA4sBkMrIf7HXHKvRE9SfNHmP2FSULnOHnKs4iP4jhk/fkQHmHvRBIcPHDjaJMxrawlvW+Ff9UaotqwWXXKlx2I92E/g5X0T4o3NCOmltc4om/uqj2m1updv3eU+vgL9rUo2Z8v4yih3qWTV0VRsI+91+MFA92YDJG423F1paTV7Dl5F1BKfNLvqSAyv0hQTMJueO+i+gnS4mZ7aJ2Y3eAAFe6OCe6neT886w+wZS+QQ86b1MEZ5yH/WJuv7mV6vh7O9XUZc1eMzXOuEzZZIrY2i06dWkcGQkNDu3Bc4JL70NPZ61bl7cMDeAiOOOkTwehFKSSfdZVoYgTaRhwntWb/cfsJcrxaMHMNHMA/HANTdDlOaMHPXZfa0ptb3vxhxbZn9OrJWuzO53lTB/WT+4iP2KeS/MvzdAhhj0/s3FHa+9IltdA1rPseH+1q8ja4fD23/UOzzMr2r13eeh5xqZWz2uBH5zZi+qbCe178HMC45Lr5H3NVVRF7U2YzLQJr+8DHUD0SBzH4fhR8luZ72dH0/q1lI99GZTcBBBo7HRygeq7j8y+7P3t+b/t0XwYXwlNixUJi5aW1yYp8qIDHc5jLpxTvDSOddGsSWpEFHZrcWjMxNT3N0EvVIeVw5rlfDi4QhahWUSpTy9G0qJ12idF2UrlnDPJ/LaHFtFF5oKJdn+xYgpzd7W1/BOZIl9Bvz1Vdy42m7NbTWPGKmZt7ZMFoM1y6A6fJDVe8q0a53QiXxuPWlndDuwp//e6c9G07GAenUZMepl/j/kt6sxLlOb4NR7vpnxw6b3Mt4modnJQbeYSOBr5z/nuqZ8oZWrD4T9+GAs/4P7fRWSO/lQdzf2Acs7DYG28/u2RFYsxstCW+fthkepNYUdapOq8qgSdKl0YU5k1E/1GQb+tYZv/MJtVay59/qGq3iPnhsEt6tA5RcdxrJ19kzqwrjwx5tWWDefpaK+pjphMrXeyN4o1oz+SAwMcLPmbP67BZXrfkHNea27VXjYeEuqKoTeubzCg0zfFIBvAFRI5+XtZbbPYLYYKGMwednDKGu1KsV7NSS7GKlfGpBbZMILgBJz9aEZKPu0wThl4mHDCiBGzJ0lmPCNVA1hjv7XTB71o+QEvV/rjIbrTNWDwzAQUkAHJDly9NpjhujESSCU7ybXgWqorMJ3gna/gburPsQFd+TpnufOtUcwdTLMYr9lnFjmz4Xrd4lgdpdP/Ak/zdvWVYum9qaL9N41e5+tPnzkxi7MAb+9Al4K9A+FcAg1nSOe8cslnSqFBqZ52THE50WyIc7T//J/cxnlQNGTT96+paepJ1z2n5uIzT9/eG59//r6kw5Mzzd8yzK4UKzEjh0hCzlLXu0HaJhzz5ctRXKzSch/fu6MyGpFuVV47cJf36TIClKFkub9z82M/SVtKcnViD3so5kcftyNgUsBejv8RWmDtaGI50INSfwBJd9eX+0cAbIfP26RF0KdX5pBivPJHi4pwgn07K8VH6fRroSJcynnsCcXipTQ459bpMLVJfbCWF5AUdDrdwaKsrjrCblbdOFk4v5vU5XIfmRvLhudjfRNKzj/g0+0vY0DI2ehu6o8xyXceW1tO2nLy7qKjWe64f8Ld1L/ysQFdB7v1KRZCQiqjz5W66IH7QSjDecm9N39Qeas4DO5kft7MMCtkpsx+a7L8lVn8CV+W1j3f7EndnEpx7V37dCeoREzpzuqMavv9SgdlzvcxUwPwhDQyTC65hbpi550qCK2VWpVQnRo9Eru7Uef083nf/JdIdTuR8SLyk4jDBCm7q2l+QzVKwllSd/tbfHbTq/k2BaZ0CIS/SlBPhvoK76LLuMR4HNqztLdIkZFRUB/jRdfVXtd9GIxCdxxC2FX7RRFG/QhlSTTmncMgGTxDkc9E5/H5OihJmvEWz7eKtIlm80vZA3jKnYqYzKaKi3HazAsaHR1OEmE01YednLhQCgBdsSRe4JIeUslM12UBSfTcidncVqnd7dUCl903rwtwCj+hMJkD4TzZaY4qypj1EpdX8VbJL3zwfpPwZye/d4YbHrnJwOsSjUgj6rKxDPzDsdJ+ObbskW1QjvTBVRFGPQutMJ40WpxciEJ3EILoWHaroOcp2MXZPcUvg7BvSLfFVKtNSNFzlttY6bLBSOniCURg9oBkkk3XrRi5ScxvVWdeluF0DlWKEW79ZSzDthJgYDeuG2in0d3lH9DIWXlkga3WxwtrvjHMGyMLbWmpHy6Fci6DtTFVExh4Fp0X6T0c9kEJOoVtFEApZba6DsCq8qLQ3ahlm3dAGQJabFVgrtiHQ8XY4sTp9hZvjG8dVxuPConrqbgFXSlGlB86Al5ly+t9/N7umdpDfbqZml6j+9hTlstu/9RYyQ5rtKsFLzGmDGL9OPoFflHbjZZm9EdpvCwpnxZMsjPndWSgR492Dl8toPPg0MEOE4KzFE0mseBThk8YcMf70dw9Mki/4EiOPU7gfmWigdxh8uoYCbhi55NacM07FaXS2U0aF0mGU4dZn+L/rxZGafpoaEFKt5ptZ/GTYnld2o7vKYhYHKv/h9NqmntSnzMW3/tasf6LoR7rQ7rVhihS//vi2ImjGrmSlcl2DGAmFZzxkrR/sezRJV70Q0xub6WVXNAvvX3ii+8n9znE4ZQmoJg7USqWufTi8FPFRg9RFZ5INJoYS5GZvS912BUxMGWgxo7zd23nbpcaZObNF4JJs0rL/TRwR2VU3Hveqrx24vJdcVikBiKL0b8+Hrh+ovvK9cDy2G4jB6VMSrU+R7TJ9Cxs4PSF4DoQU+9oPf/Gg4OHx4MZR+8zAEmi+Xcl9DW6RnynHtV2rU5mtrnMQGpufT1bt75z/bNDWvI/an0i3dtQdVGrMyWPPF/3dFRV/UGC7laVtpy8dib330ez7zxEFFUqXe0mzeMiyfU4dZi1Q317wQj/aO+unikVByZBEjWdzsGDzFvhkok/sO/R41LHv1+KTf9uAUnL+085R6d13r/9amq3q/WK1HFfc+R/r91qPyYNoDHs4OjicInX9POgJmEB2z8SKSWDcGZTZnY5SOBCZr5N8oyw2wiDgSjIiiLVZOFbTSEM1rueHlxb3+tScTAzTKSC9Dh5w+Z+ekiARkdYqT4wmlVfZRz5zqlelInWDQvF/NbAH2AxZtQpf5QeZeYgdkRhCoADVFkXq5R656JSXdRazz9vrN/Mcmi5p8z+f5Tx4ofPws5/bdsIZfwMJhRJphWgdj1LRhWWmph72Z8ovbYWKlLM8/C/lnOtkbPIPOcGImshEDst3wTIFebE6HVxUJFfj7yrVNLbaluVDXlfoydbRyYadR0Mm6Ec4YeOglKYQlVlOIjbZ5tQqn+yUj3VmdbfW5zWjMJUGk4QfaQSmFgJYXiXP+4IUGTYmgls6c+PX/eTCLR8bby6yZ+WigSRQKkYJIhmMeZn33S3VKfTdYkjV/5uRoY79ocZkDJCKfWOWa3rpC5wtBoLYFpqEJgRaaTXwIQ5y+4GM6reWbxuG4v90Gt1DPRO65z2s6rOFyGcPovTFFNpSCB6f3UFiIje+iuGiDXlSU5cr9Ps9BXhEAnLKwloe8dR8gRVMvDbkuEKl7l02jMqyk47BsXQieUPegHX5ZyNRwJ/pTYqdaGJUtkdB8IUqk0Yp8aMPfQTmyYqc2KfkVkkENp8g2p02WiVhpCT2zrtHVitVMrr61NYjn3rw4Q3zcirRZTkbANi05h1OfDkKIrvpXnmmCPocPG9bESZW8MOMg77wN3+1qWA+HGEjBWBbE4wAFUIfHI/InbID4G5C9h2cHRxOPGaHqhJ+bLbCqxV+mcnElKTePSE4QxeQTzhlvCvNkYp4yyl3lLZ6a0zX+A1oek6YluM/0CkpKWxOmkpfueoaKQ26RbfG318xG6lnlNGY/stEIXrf+azvf/yWrCbyQernmlkcImnTHG6uB26R63+4PFBS1UBbri4pEC28tTIJMtUZNVUrWpb5/f7ppedN0A1KbobdNpRVSEMvwAFl82eihSU+abj+G3zNBl584WSJFql+UhKoFQMkm5kFrgM15Bka/KacDLuir9KbUKpZzFO7gns4PDuSrkrhCrgU/MQ1+4JsuBEIt9cKAs6ASoS1HRngbVS/nvviv0PFDODRCrKB7gTpdN+h3D8Ao6UhfS1EepTFXn03WDQaOW06YKI+4vwdVL92NFqtOHYg7a8wEzDsNmuUgjBmAgly12lZKLhcEHzs8eTTOwxeqszOjIv371VVneSk66bk98UKSqhKFtOPg45aQVRogVJSE3JHfc35Y77e+B4olK9k112fXOAlmk0JOHB5q2ZPY6Uwb6yk6ARBKmYL+vOgQe6IqkaQlFFOuZkH/2/fDk0X0Vg3w6GIyzBMXIk+992GAUtDLBQYAG8PIUPVJGCbxBhZBw0cYPfBP5AWs6gy7HAGzeyQz6EV8B5Aeh/ocSaVsfc8KoOc9B7/eIO43Cd8XnuhlOvI8VXUH5/06PgHwpTEP0siBjDCuWet/4tEO6E4TfEY0JpmEGNs20s2ZmzGeOnU1BKU5Fo/eEbAhYNQSEzoLY7zNfDAtyG/Iddyv4UVEY3bDxKSSKEIUMmLrenbL4NHUNxeQZisQtcgIFhOEz4EoVcv5HhfHiF4L/fRiGD4RPsfeJBi0WeG0lPSl/dsHEgzhVgkQ4mOcNiAib1KTEZx5YwnXpnm6oyOETA52jOc6HMZJqn5GyyYWFDx6PgXx6mIsRBx0kMOOl9dUPHSLQ+MJy6h57P18YrG3p0h7F0Tq+hFNILRvNycp0Uf7xLUXM1M1SA5ZinB+avU3mvh8bo3p/JWmW49vcxw3So5QZxINNx+ew9VLRuKtRzg8VALN6T+65xxjcUfsWux2gm4JfTThc9rY0XKv/Gjddeh2YpRmYLfSd/P9zk/g10goDliPe3RQlYyioVdAwCK8BMNC0OXa/RbNrkZF0dRqwrTznl04bi2Q6GoMk8CImj4ZEqSilOQDk/WIMueHpZ+JYqG1+yFFelsrg+5x74Rjm2I+e6bdVrs/ka+lHjbJuL7nhWgclALIaowexS9tZqV3P7l+ASL0EUQiy8MJE3Un1VJPp8mjKzCGo7w2IIWkqDI3VVMQzPwVfoHabp8JhF1e0NVCSOTWCcL/yfvTOPr+Fq4/j3mbskN7sgIRFiJ2KnFC262KpqC6W1K6WqtLp620Q3VVtpq0WJtSRB7GtbUbVUKbXVUkstCRJL9khy73n/EEpyaURqifl+PuefZ2bOeZ5nzm/O3DNzz+zF7L+NotMHZd5WfPlVEAW9FKxWtI5Qw1QxBQ2U8Z3F6pByUEGYFYxWwirlGDxO7VXmPNu246RgiMK0SmFapcqE9VC3u6jcc3gI3eezeazlZmN1NNTB/Pl0rlsc68ZjleWq7TQ0xH3epyglZ8A7AMKNyBpKRva5uqDx3T8nd6NYCf2OJ2XeY0sM88vPZt5bM9lbtFj3UOYT8fRGwmotZn7jRayKaTI+lLYyv8EPxvkVlxM+IpRjyiNveUH6wRAv2IjB/zCmAePZfMKSQy/2NGTHdk2b4cm+ea3Drobt6vo/6AfgrmC60liiaBmmXkn2UVBFyf/mK6U0BZUULFWwVDkMH6MOKYc7sgVjVBCsIEppJY8oHpunhqf43a/9+yyULQ5hHnASs/dqqv715ARo4QwrNFiB5YORHFIOO6CaMyw04hBJqYgu/SZj6g2zMZY+BCyBsot48mLNB1LL4Rj6Tud/hDVcbZlfbQ2Rc99DYR4SyquENV7oNL/cfBZOH8EJLJ1mEFx4XtEowp45wvd95rEnN+c2fzWpJmMKgjk0PNfybmgy38/pfaLJB7KvKoVSVmZCc2dYAV6noUk4wY39+8EQMK0yYVpFmbAeKGQMdAYtEspE0Oiv2ioYoz3d3s08bJ1GgPfcKisJD1zCvK4r+Dkh4Fgo/r5zA8IJrz6Lec9Gsv5ijZNfU81pfuVFnnOrHGPBEz+wZMnV+7cYyXI4317v07lD6ombcVunMdZjYYNVaUl/H4Z/XO38YfWH5/x77ZqOjs79gYgU6Ot2QY/vZtzPcd/Pvt1LHra8FNR4C2pc9niYYoWHI96CGmNBjet2eZDyICIxxnvthE42apD63Lbw2EXlVn9lhDQrz6fQ1XPVvXZLR0dHR0dHR0dHR0dHR+dmCHACOHivHdHR0dHRyTXVgT/utRP/IQU9vptxP8d9P/t2L3nY8lJQ4y2ocdnjYYoVHo54C2qMBTWu2+VBykNDI7DzQXnVQkdHR0fnwXpFLi8U9Phuxv0c9/3s273kYctLQY23oMZlj4cpVng44i2oMRbUuG6XBykPIhJzf6zUraOjo6Ojo6Ojo6Ojo6Oj88CiTy7o6Ojo6Ojo6Ojo6Ojo6OjcEVcmFzqJuZPIWNFkrTgFj5V9mK9szuAbkX5ifiNKtmDJayPnRMp6S62D8v7ligC8LpYWIhul9oVOZ0QeEdOIuQL2F5fsLyYHaddaom6y/U54XSzNRdaLg9M6EVkuxpcmyR8453s717ARIdJTyh4fYH/7Zd4VGSe+i0YJCCFiflqc58o6fM6JlPUSpz9F01aIaMukxGPvPSbynYMmazQpHCMm0ypxevtz2YcZP7F0FPlURIsSKfyzVFodZLsdN/Mj53brUGwTaScOb/0oO3CCDD4UeU8aXHwmR3zFPnirl8jbmiYrComcEov7epFWYRJFkexN/WsfQjFPpJrUiauU53huh2HiXFoeWyi/UOiutJcn/j0nB0R8aojMFZH1IjXWypMXq9nfU6SPyJfSK67urft3Ts6IeIlpVmMbQDUp5C8N1shavG43Gh37JLhJ4YYi26T++Q6EiLGvyHAxyBLRek2XL/DIte0aGYwTaaeJtlSkxlJ55nxl+zbFKpH6LiJrREqtkUbH658SqW4RWSwiy4uKbBb30RGCGN8V6eEtckBqX+h07zIlgkhvRNYhbRbwJsVu2NxJzIiMRZO1OAWPZR/mXNtCxIzISKThMebjn9VcMUQiEMM6/CN7356vN47Lm0Qq+ojMN4ksF8d3v5AoHHlULM1FxolJZor0+Frm4LZKJKCkyEKzyDrxGPOx7MAUK1K8nkiYGAdvuHJNho0iAUVEFpjFZZUERLVV/+aOzm2iWCFSr6zIZik27wsBsaeX3Nv+qTfvdeRW1zp3nRAxdxIZaZSGx2Q+/mBlpEgXTWSZiCz3Etkv5ba+ft5JfP3EYZeILBd5JEIGppU5JtJctJK778797YOMrkmd/CXH2Boixs4iI0RkuabJCifxPSptEhva02hB0e2S/dAYl9DRrMc4EEbT7GJTpRQxUBphPry06PpvYt9uOQtlS8IW/Hb0tynFaajlhek3apwPUioTUNpNj38TVyNdZ99J+zctQ7HUwy+SDar43fr2aTj0pMyxAfa3p/EGjIJK6xmUVkkFY34Kp7msVT5noSwMDUMp4w3H1KWwI0FL+UW5XrFdZjQMxSd8OFe+R2uBrSVuy8/8yLndOmxshbbgs40aB4KUSmcEvMejF565aXyTMbWBuYxKq3jz9v6lD6lMvoWXqRXX7q6c5zdw9qfRQjaqQnenX+Wl/EtO+mFqDzNptKuFTSnWgBfPXfmue86C9IYv6Rlb99b9O2eJgUdwnvsRSolSCuAW51EvVwu5+eZxMNpbMFyDxdSJa38KamIe/yUKwyQYQOntrxyHWrmx2a7W2QK3ojwdxjrlvhMewTByyoABFMpuIxTHljCDN9MqnoKK8NYstiuTUgoVjqE7jCToUm2lFEPB8iaEXBkPbiO+/CxeeCs6h6v1e10UdFbFf3r7hu3QWLmEjlbrMSoYrZpdbJprm8pAueGpMC5Q85S/UhkoGKaqHXxeNcZFUT5CLVHeuY07+7h8AdwJuOSpwjF0hel0iq8fA4/gOu8jFDIWBtHofIvpUJ52V76V3hZm8b+0ygq0yW6Uhe6RbFdOWXV8Tf+k6vE+FC7KY5FsVp735JzclYLhhem8R1itxYTVXFx4bsAe1q3rnMO2Jq5j+DQaWeY9ssphfuVlLJwyCqXMec3LZDCtgNZ4zh6DUqL6Ycqhl1k458p2VVd3UEeF1ymSK10rpf0X/WDXMwQ+2uWbJYE9vlxIn1/Hc0w53nqblZmtHm9fsfu05bW6fbOUoX/1RyF5tym5f/t3BsFueD6FcQHzlP8N28rh5kvd6UxVnrFQET6fQNZYqpSNtdCJcqf7ZK/z/o315mXJLMrVnc0CIiOnXInRxqrp1HKfW3O5KSxwKZFh76EwvTyNNwh7dKllfsWVLPxuFEqZchPvg6zJ/+Kc3g+afFD7qlKKHGPrddv+gkD4dBwq3JBTo/Z1e1fzsB3TSzPo7zq73X72pgVctb0YyieEP7KU7zstZlNCpd+nU957bqUIwgIXMq/NWtZfqpPl65U1F36EapR+5nfVxJbZFn7j4InqUSFiHAyv0YZQ4XL6nc5gnDAUPcLJr6trh1s6TIHHEw0ZOwHOirEahs+//fxzcS0lhcO8RMYVEflZiocGS5QYB45mYCZRj9Hgqa/lE4rfWKtirUhtV5G57iIrxXPiJwKGrCepE6SwjCwsskIMQxZIFC658XO3SC2R96bLbHHuKPK1dIyvQ38xdRAJ1kTCRar8IK2TAhkmzv7iEe4t8rW7yCbxbTg8UGSiizj8KjV2tVPYCBPpLk5+YU4i4SLlN0jj43Wv932BSB13kQWOIkulREQ/wVEyIROfA8uZFtpX/PPwt5UQB8eFFHucUUEzFdhQKlWpeqdA5H8i3UQsyw3itEzKLw2yAWdFqopUnVtC5DtnsWyTR6a3uyHnn3/u01vkCykkY0W6T5cmUq6yyLeOIotEeoVLBO5UEfOLIiGiOS4VaTVHvn6k2C3Pm5/PGvOuN9rKr2Futx2fHa72IUG0+SLdxK3UpCIiYSINfpFel8ufFmOFL6An+xoMEZ8xfd4R6Z49D3apIubOIh+KQRaKNAuTQSk+Z0W8/zX+Yni5sN1JHpePC1/ty1e+zHIj9vpVVrs31PfNN17BIp01sawQKb5IHj//iL3zeThE3NylY6RswpW24mGR5xfJH384/2tOis3qbc3mWvwU/BYx2Ilvq/8kQDOlzqnFXKK8OHQW+UQMhiUilSOl0anq9pNnr3+LLBKpVfjK0+tFUvaJAQPgddJGtMPxtY/kKynsT6OIK2985IxvX4i45LhG2MurDgDbRlDrc/nAazD8ApAGxfCqd9KGsraHTZz4OSAmlzYtK88XVuMeS61UniKxxhvsK2Fd4/HNMfyy24jDewNBzrzgcMp3KCcCWOVAIu4AcZ0oN4vPnAl33wkwTqWnekDavcsUcI7SuDQ7SZMqycAuYjZW5NrfBq2QNUbSxJYJ/MbBw9VzZztRHYwwlCTIzAAgwmQAAuhdYQdRqUlw+G9mJZTNlZ92xuVCSsWrfe4XeBnng7i4UNl8zgwxpsSJVXi6baVdUJyK5uheSh1Wi1zOATZnSCNVDChl6+JFAly5I2AjxsP4uNLdOcbtNBdas/EUc5JL5lea7z+UdU4v9anqtKNtrHXnwPO2Z7ZQ7akVOWwVivwwT5Xonxqw8a20zn8+1+9iPxNbUuv+e/326adURjVIuma4iFMOvVykWK5sWbq6kzoO/Z1Tw3Z1HUW+jNk3ECJauPX9l7c06PPZnhmvdhx5ek46YWmNb7ntc4PrHOOQbgeH9O61o9GA54MO/dqMZc0q5tm2Kfu95f2EkZChJJmvXj+uYWPhX7Q87f/NFltfLqSDM8yo4SzyrVj+95Yc/tIhGjyIbv6sixhDpdS8jg/ueGllTiYl/R0IJTPzylixQzN9oSoMjq+85a102dvO7/yatURjmqe9soNOmzukeB/sWjxhayXicc1NC7omr0PX5J2TfWy9Sohoo+BFerw2V9HemlOjmtxr3cb8gcdUlwFHnkrfsuWqbe9OGs5xW+JI0K9tVyaFD+JiXOpWG9rZwhveVZ12dZiatHQhKbH1rwarAVwCZ5yMySCUgUQyzrmeGUGLCM+wc8ud2ZYv3lqDUoOYfokZqyt/xaMl21g5kn0Xdzw8Yoelfh3XiOcKnwmvA8plVDmmQ7Pf2PzDK2o4MTceITSD3UnBqtuGUnStenFiNaIoCmACM5X+3HI+nDadbROSiEguZ88td0568LTTdBFzpJTb/Vy1YHa9ycjjDCZ4ofP08yxw38HkjIxFtPjMBp0j2D+DnVva73NB3PBwPzcwdfwJ6Ea0R/N9n6hP/iR9EAd/aq1h0DTQKBS6N1Wpzn/w1/v8tmhg/NVOEqI5jsHjzYR3Ut9Ke5WgWqeH1WNjeBEBod7wne1TB1iIaljDdl3HLMqUqmjaQpEq4dImqYrdPMdiPE2AEX+SrzefE8p8Qo+OhKc+by2V2q3yX2/2MMzEFxBo6nR6qRp8kLTB7E1s2aIeM67l/K23YxzBgu9v+21qVm+1gSMHUIPToFNfZkQz6UL9H/bTcq77VE9saW0Vq7rZXtl25pbnTUbHf8aKjfTw6Zh5nTlX8f0LBjDgPPHieUWXSWwJZ1NsE1+VfuhFiKTq5glnY96MGkWPDnbykA3FD/tpGV54EVjp+AvrZrJob4dicO7f4o85wznBR1NvpI47f7UvR2UNNtdjp1/Zstq9vr4zAwe6fEiXbmpyaldlO93e+nPhbfbOZ4XC+OQlJ+pM9+mGbMekQCHMJeKpwnXOk7XZAAAgAElEQVQ3NIq1f9Eq3HOWI1Zruz0cCGHThPfkOA45GrXXvxfhOwH54ELvxP8pZW3P0Z++/RK+xf3D5aRNeF8d/+cHpr34Aovgk+MaYS+vOvCoWAbg+jKvd/2iBFfOoSvEcPrH8toOMa2EylhsHiY4kxvb1Wo9WxBfgg2uTEwsvG0s/tE4e9OchBy2ozil4GHFiUwysRUi1gYYIZPvoRnVe/yi4Lb+rfUfY8FSKA1QQArEO3BtQLfBdWMkkEhGrGvubHE5b2z3YQCzA9VJzRqCk7mgcjH5rVg0guY5x2VFpEhjnwts3FF84gFCHI97liL2Kbac9Phh8czZTh9W5G2Xa5+bPjOCUnN5sRDdzMdyNOFJRkWiE5lwvswlD9z/gnJckJz6LnCI9mEy/fB9d67yuvoD4zqbP4kWOZdOwiV3AKOGhYS03E0I5YKk7Tjm0MtxXHJly/o74B3V0YTkXOna4T9Yp6sJ5iNaRW+amo6BTVWzbT9AXGoFdYttZ/ZQZKurTxo1uUA/Uitm7j/DnhrV8mzbnfHgTaCFGIxz4Clerb1eAB/4Az5unxTEwP5pn5Tgxa4tm8Nc/Pe8eMrdOrTaidd7Mibrb1kPHAbCe6mfJsYTe82UiPNecxkfp0MV+jhaa35/skjLmviotEs9x0e9PkP6OcXUWR/j3Xup1Z0LeWlR16Suyf+ECDym06kkrzr9CQZyalT532vdFu+tYlWHb9Y7KFvW708r66EaaraHy/wKU1u5vfQRhYvLgD7q4Plo78sBcwsvecn1fx3wLRd+dRZEAygESaRYXUBxFFxxPpAaCS1I6FW3w3y+U6x9lA5T+mWfPflFpLZJZIqIfCfiMFXK7212c3e9bN1hA19Iz/POw47Xg5TseyTik8RzjheoR7on5y+TSfbfPDlYDRVcRmgTa0bzRhwGTzRMABmQSdmS0QRh84B44q2O9o6Px+8S61J6K5XeTv1VbQkhyvYaLHO9VK0L3YMWKFA0MRk7sXqASOFxIdCQzEuu+4FE/JLo4nheK0cieJ2lKQkWSCQt6R+xO5aLU6BKwklS/3Y5c3VdgDU4nUeVYazbUPmSUTvxsZDuoAkIGW9YP4LvmFesVxq2azfgsfTbg83WQal9ndRSl312E+KAtTgHbRy/8T86meCDa6O/CSKZniTU5lA0P6dcmRk0lIjlWVKNkEhasiE5W5WXIZ1aAX8IEA+FApCPxODx8RYoTWqiyy6oQIm2v2W9KaH+dYrN5kyHkoR5H3z7qR/4x89cxZcbnKqfUlhtvnCBjCTH66cNb5mHG7CyCyqQPKImwvhW0JbM05n7wfPf4i9GLvuynX5lQJPs9VnBF9cnj9GPBERDu1kc+7L9TzyXObGHAeJJP+XOvit6upqT3VAOn5Y7FdgCB3KkBL87ERPklKMCe/17H67b6KjR2+Vv0Ljy5ph97Ma3h2J5uUY8jMRsJfB3DGUYW2nkWOjB7y8N9H61X2Jf9f4O6npOGGimPJfd/q6znt25sV2reFVmwjC2TuI130/rudHGhvE4TdfE5rD5E+/MBQMpGDGincfrSreNMBm2QlWe8tx/77JjlxSSLzpyZYxzAverEw1kDZPXxkjAFVPRxNzZiiTmaKkKVkhP4w8s1yYuPCUpx37ZCdGM4dAy57gs0k6pDdG1qdM3prcb9Y+1nvY3XVdVObjlYmMavJXywR46HO0AQEtxGAjv0HDEFFWd7Jd6CFG2/jC2eHiRnoUSAt+IhVjqOp2/zVw+cFyci9+XTqNK0bTQFvs2Ze1nSx9T9O8nXpawZhN/cjA7o7SMW9V5O7jUIS2HXvxJypUNMu+4jsADF3Klaycu51fM13PjryNb7rZdef9WABQC2rX3h2/fZrj5WHTf8itOG2lRiIacA0Apq1LtzhNutbaCbZyN9vdWKlntI8njEvENOHOUrQkP9tPg6zEi5szCbinVD36Z5ryzV5MLI5ux/3JZMDG2p/o62rK9afWzHzxrOJC3H2a6Jq9H12R+EbOfMlbHxy9Qm1SAYnY0as92r/22Cg6Yh5xOev5w3zWJUxcR/cOrAuLZS53c/0Lcc3MSP57B8Z9eu/oWtAbQFHZzfGV1idKMi6EuZV7cHqbUIJWR3C7tWfoIzbawsN8UxY0nOxP2ZcIIIATSQ0i0brq5axoXnmR7zRSPerxQ+xcjues4roWwaaQbMNt7LUQkAgYkdUuaoWrzaUXOxuUqS7ciRIyvQY/EIrvHMD20l4Dh7AYCwg2jArANeuNbWIntNjq9LcmsUPwKVXANOFMq6ykizUlxx3yU1xPGKqWG2NSWrurJ5mevHGQkIJzdvdMXJm4moMxt+T8uNbUNp7fyXmQ3AUHEUSSkVgrEkLjVj7U4MRvX3ylbnMedYuxVYbxpzm2shTb7yx36W2VeercV7MFqUVXhKNHLawtoiGgCcuN5U7wiUkxeP3VtUVC/v60XR7F95TZcnrit+PKEYAYr6WIyQnTu8mCgGvyF20fbUWpovFL91LnnvtkLz/5b/BEuuXuF6Wb9Knt9Z+EMiRtKMw0XyEQEg904qnCmEHEmNEx/LsErDcstFmH9Jyf2tnoFc+JZJloZ+GdjgD9EvKTonvLV4QjRa6sKaAcmUfoUNVIoHpGiXas1Sxv2+vdFjtdiKcxO9AMbIk2MGlixpefwwW58NTibm7zqQHGlflPq4hNKZTz/Bsyk1tRJauKXR75j+zRlixk4Lp1oAlpsU00uZ+bKhuArgX6CQRsCG5VKeGlrAmsxtztK9WYp2W1BpYl7nIVJzL/se3o8JQ/QIg1X4tmC+TBlvGhtvvNrdX7izTFS1vmyI9oC1MD3sUOImJBvfbkyf7Wb4yurE6UZgbpUKr8rd7aSu3K0FZRhBfYR+ldNmlhcoFxJurvleJMvByEqc36OcbnllHdESsswnNmellEBoolP8T4FRXFzSyLKltkednEh2i8kRIyDV/NupN+C/fxS5oebNbMfTsYoNSDeZe8Xh2mTRGOi85TTBwYbPyXzOO7tf7dBun2bjVWZmGN9fx2myq0dWimtqBVvY/5NkD1FSg69lCYmV7aikuArgX7Si7Q81+FaMT43uqZ6zodCd0wU6eXU/hh+Si0PmuzUGgRSxHJAbrGtWH1iGyWedmQznozBaZ+pSnGq7f0jz7YqppP5Htd/TOxqvM8TmEk9ksHGMJFAeQd3Qgzaj1CdEmdPlJSKdSUKI1Vw3o6nH43cCo6WS5DqbTt5DJujwocMZ1tqBimOXsbZb06Vc7h4lCfFx3omg4zLdh8s/it3oknXHfGviBSTAJSuyYdHk/+O4jCUwrPyWSsoQkTzy67RxyefzWG757rVqG3jT5SyZaKUtyIZ0gzDp8vLsurvjmCkkhCHNcHNeN1LCEtUEOaOMBphFY7B49h7ZaEipRTqOTyE7vPvdEFH+HAyCq0BrhXZXts0EQZR43zQGaiGYdSUUaNwvbYI3hs4l6fuAtapwioYY1f4GmkSQa/UMjfWnckX0BV81iJFviqGz2o2KD91dYG5bsl1lEL6wwReiK+fw7ehWJrBesyWdcByaD+zsYnncZ31MZMx9YAveexo80tueNaGBRg957jDJFy//zg8GJer/iaUoyj0jGCzssRCJRgRikILh56YKv9ogTBouoD2KaW2QlMMb89j8wnLXHjEDSJB5uLy0VsoDENhJK0TGiulOA2VPHhs/+0t6KhQ4NIKvkC09eAehd+cnigMw6EbOC7XsCyj7KJOVqW4mn+UkhiognwyjXDM13Leb0bZf3Kp+B2qO2H5AfGYWha+p05ce1UCS3sYjWZZDvXmMjCl1A3n7WWfikEwh4bnWm6FtpTYNsymFKoxLk9CFI0utL6TBR3/iSEr52WODVDKyhJ4Ef8/X7UpxRaoZ8AtCq8PXhsG3bPnwW7d5XAIgo/RnBdBuVBaJATkKv5XCbDbl7PVb69foZTkqG/Q6NJvQ29wXQOuC6hx8CmlkOznMygcw2AYgcE3Cjc+h7Zz2LXL+V9zUuSrwVxbBOqfshVKV4SFCD9C5TXU3f2oKodDR/gETRZDxUgaH6uhVDofwVv4Rrz3Izxx8/4dbpgFDdxgJbCQIqGDNznjFQArMPWdwFS8/1kIM2d8e6/T3K3y+jAUcr24TwZj4DXqxLW/5E6hGhAKLMQSMoK9ypxbW0JxipSh7kbm+JfqAiEIC+HZabx8ZYHAHDZlYznUc4aV4Leax489qpRCDcTFjyYrri4SqIJxfAImecFezP7bKDp9UOZtxZdfBVHQS8FqResINUwVU9BAGd9ZrA4pBxWEWcFoJaxSjsHj1F5lzrUNyioIU3BSmb1Xq4DYJxR4KwhXyBpVMvLawk25jvvauDzWMh5aWmCZwFJ4YSbvqMKnwK80zMJAKDw2k257S06AV8DnDMIyMC6j1NouodDCGVaA12loEs7wPX5joDNokVAmgkZ/1b79PveglXTe/o6PWRff+uY2G0tCaejwff2VlvmBK4mMeJs8L6SG9IMhXrARg/9hTAPGs/mEJade7Gkop+2aNsOTffNah10N29X1f9MPdremUqPnv1oa2OOrpfTdNoZDhxzWP13zRYbEvLOlLZVv3KYclLIx+5kGbSp3n7aq+ovfruD1I31RSF5t9+aak7tyFsoWhzAPOInZezUBsU8opYiGOpg/n45SolQGE7K0rMEKLB+MZDtO/WAImFaZMK2iTFgPHtRF8tZj7DSD4MLzikYR9swRvu8zjz3n/eZOo7HjvEdXOc4LWEHk7BAUDq+H8gphj62zzA9YQ+TMj8jVgo75q0k1GdPVe967ocn/4pzeD5p8IPuqUihlZSY0v3FsTfFTKpPv4GXKHn5FKYUKx5BDo+sx2tPt3czDya+p5jS/8iLPuVWOseCJH1iyZNDS7Ti1nsFEwmstYX7HlUQlVj06h1Jl5pSOJKzqUuZ1XM2PF6pnnbOYqw4/99/OejyM2IgQQ89OZY5Z1BH/b+61Nzo6OgUHESnQ1+2CHt/NuJ/jvp99u5c8bHkpqPEW1Ljs8TDFCg9HvAU1xoIa1+3yIOVBRGLyfyEQHR0dHR0dHR0dHR0dHR2dhwrjvXag4KIRpNSMArkiiY6Ojo6Ojo6Ojo6Ojo7OdQhwAjj4bzvq6Ojo6Nw3VAf+uNdO/IcU9Phuxv0c9/3s273kYctLQY23oMZlj4cpVng44i2oMRbUuG6XBykPDY3Azgflfxw6Ojo6Og/W/+/yQkGP72bcz3Hfz77dSx62vBTUeAtqXPZ4mGKFhyPeghpjQY3rdnmQ8qCvuaCjo6Ojo6Ojo6Ojo6Ojo3PHXJlc6CTmTiJjRZO14hQ8VvZhTnESXz9x2CUiy0UeiZCBaWXy1EKIaP1E3tI0WVFI5JRY3NeLtAqTKIrkVxBRIjXcRFsgPrP7WG/7aMU2kXZiKPnnlVgdl0nFmBb55ZtdholzaXlsofxCIXubz4mU9ZD6u+XNtLIAp0WeFK9lHwoi74iMFQefX7POywJPJ+lvEFnqLbJfTCV/Fym2WOpeaJCz1gxGinQW8VkgNc41/E/juwecEfES06zGNgBEQkR6i8g6kTYL5E2KQTrvivTwFjkgtS90unlN6XQXaS6rcLtLrt8hN/p7TqRYgEiEQQzrxD+ytyAyRuRZR5GVZrGslwprn7fda5d17hoJblK4ocg2qX++AyFi7CsyXAyyRLRe0+ULPHJtu0YG40TaaaItFamxVJ45X9m+TbFKpL6LyBqRUmuk0fH6p0SqW0QWi8jyoiKbxX10hCDGnFq9F4gg0huRdUibBWT3o5OYERmLJmtxCh7LPsx3ZBMpjkgYxsEb2IHT7fmawTci/cT8RpRswbJJpKKPyHyTyHJxfPcLicKRR8XSXGScmGSmSI+vZQ5udvcrLw6dREaJ5rRWpMNM+W6L53iRZxxFljiIrJaS3/eX675brZMfKFaI1CsrslmKzfviSn5z6iX3tn/qzXsd9jU8R6SJiPM8JzHOk8obW+trSN0DQsTcSWSkURoek/n4A9i7P48XKVRXZKpZZLkUmvCeIEZ97M8tD4om7dl07kdiRYrXEwkT4+ANkjXGR4uU9BGZ5SAyWzy/fFNAy7nfZQqKbpfsh8a4hI5mPcaBMJpmF5vGQkX4fAJZ38W94zIZUxuYy6i0ivn7Tc50PoZ3qR3XMW/H29gKbSm+JsR6t76B+gbO/jRayEZVyN72s1C2CGzCedqnKCWn4EmKLv0QhbwOn9H4Uosbj8lgNLxJYOyLN20zGHNLmMc85X9XYrzLJQYewXnuRygliV54Q+dw1u91iYTOFP/pbatSDAXLmxBCjfNBN60rHEMQTGaD8rvXMeWq3OBvBp/BMKodfP5sY1wCKR/B8tBij0EtViqHhGIUNdF+Eb8o13vut17uqJCbbx4Ho70FwzVYTJ249qegJubxX6IwTIIBlN7+ynGolRub7WqdLXArytNhrFPuO+ERDCOnDBhAoew2QnFsCTN4M63iKagIb81iuzJd7bPdYSRBl2rfTKu5ii8/ixfeis7hav1eFwWdVfGf3r5hOzRWLqGj1XqMCkarZheb3qFNU26UVXSPVNuV0+2c1xgojTAfXlrEZmW5AO4EXPJU4Ri6wnQ6xdePgUdwnfcRChkLg2h0qUWO/bqcf3QZdMRj5iiU0vqBCYUEgw+hylFVx6MEjVeyThXOdZ97AMuxUDyems0o5odsIvb6ayPy4XTeZdHccJTSbmbLS14mg2kFtMZz9hiUEtUPUw69zMI5V7arurqDOiq8TpEcGt6LuR18Q6jyVwF4Qr9pbFemfO8HUEhBqNJYoHgyTPVNLpFte6CCJQoWKtPb49V65XhHtit1llOwQHlOnaKy7nHv3/6dQbAbnk9hXHD1/i3n/Xkm06EvFff1Xh+MsTNM4YXt9W829t+/sd60j3goGKXotUldvX+BogrmKCFS0SdULf7TVUErhWmZgsWKoHD1iSqa23gfBE3aHWvv4Dp0q7LrGQIf7fLNksAeXy6kz6/jOZalnZtuszKz1ePtK3aftrxWt2+WMvSv/igk77b7XZf/2me1yW6Uhe6RbFdOSmXyFQygdmxbFYyxFXzDBlU8536IPd3e6zxEf8vjzG+xm7Bai5n3xALWnG04fjrttbCakYTVWuz9vfcmIteOQykBrvwt4keoRulnfldNbJlt4TcOnqieAi4wo4azyLdi+d9bsg9zfs5onBWpKlJmpq/IAqn4a9v3RbqKyHxXMfwkAZs6CyJ9RCZIYRlZWGSFGIYskChcLnqKe32RmWKUeeL0/kchYi63ANqyu8UrUn9jvSv1mCI18V4mjx5pyDBx9pXC35cV+U4Kf/2/XD2FCRFjN5GJ0uJMk10ij4hx7JeDiohPZZFvHUUWifQKlwjcwcZ8kW7i5ju1sEikSKt1RUwyoIjIMtFeWSS/lnfrJ/KVuMkUF5GlIp0XSwheN7RVRcydRT4UgywUaRYmg1J8AOKk7cEnk/sUoU9SlTvPtiJsBI9vg/q82HFksXLS5Fruyx177pxIsSois0STxSIvTJc3KMIwcfYXj3Bvka/dRTaJb8PhgSITXcThV6mxq53dJxj9xdRBJFgTCRep8oO0TgoEkWCRzppYVogUXySPn38kh63pmXrfizziIbLEJLJU3D/9QHZg4i1xdZeOkbIJV9qKh0WeXyR//OF8JeelJhURCRNp8Iv0luoD4XXSRrTD8bWPJp2jEi7NTtKkSnIj2EXMxooG0Map9FQPSLt5nmx804mWUfA0zf3GS/UBT3QW+UQMhiUilSOl0anqN8vvWpHariJz3UVWiufETwQMZ0S8aomEiiaR4vT+KAkRlxdFQkRzXCrSao5MpCjlxSF7G6dE6ovr1C8EJFqkobjPGCeIllMP+1xu8Lfu5413QAC9K+zwikpNasrhvwltX+ZnpX5XLbnsWoPLbiRbMepPIh8Gto2g1ufygddg+AUgDYrhVe+kDWVtD5s48XNATC5tWtZ188Jq3GOplcpTJNZ4g30lrGs8vjmGX3YbcXhvIMiZFxxO+Q7lRACrHEjEHSCuE+Vm8Zkz4e47k89R2p5W73qyrvODLD+45ocVssZImtgygd84eLh63m0nqqOUDS8SQN3ew+AQMQ6G12hDqHA5HaCQUvFqn/sFXsb5IC4uVDafM0OMKXFiFZ5uW2kXFKeiITrHfgEbzq2CR3m67WIFtslKZSiUClEqWvUk7bc/8D5FuSQKkZo/Sb4/2ZtKiR+KsdgzLf7c9fafZ1L3A5eqAWSmJtzKlhf6KZVRDZKuGS7ilEMvFymWK1uWru6kjkN/29HwxZHOgXCSD75tN/owJaFyHLW5/ZdDb4kNoC3+23ZhtXWEHyNY/nOva5tDRANeJij+MxQdyRiVzieLn8izbUR8Y8gEKAmEkpJxi/uB+wUjIUNJMpOZcdWSDs433J8fruRwAHzxL3m0SYg1swNsZqtXYAEa+0vwOIvhfJZGMwF6UnXvSmwZ7WDaONZMNAKXeC29G+F0gIhL7E0pndsGHgRN2h1ro/6Dt2xDRAu3vv/ylgZ9Ptsz49WOI0/PSScsrfEtt31ucJ1jHNLt4JDevXY0GvB80KFfm7GsWcU82zZRPN/jupsoZetywxivURmO8MdnreRnfHfQQMOB5Jz7KXU/6jZBcMZ51Bxbpx1t1fM/dlTNvDYN6aUWWTv93k5V+b1TYKrn7/g+PlmBgqybp0vgjJMxGYQykEhGnOv0xvwBH7dPCmJg/7RPStA7rlU++yrQsGT0JPWSOlhv8XxYiKJLFLbX+HNxe8BkAjOV/txyPpw2nW0TkohILnf5In6/MtTEJNVHJX/0fohK/6sdLKHm2i8u/fp47Mf0b8PmjK5xnBvI1tDuLUti8MVa4mjXi1+p8698fDXwbI4IZ/sHGUQWi7w4WZ5WljHwBWtaDWiHoT8vD/ryq/PEHEANToNOfZkRzaT4+gAGMGD5OvaCouPbrNp1vmSUOXA97bqoSReY9k1FAY16RxcmqcttRhO+kbl7O5651nI8P+ynZXjhRWCl4y+sm8mivR3SAFSg9gqEMnvqSwfBcPUIIxjZUvl9EYmUwmNyN1mC0DmYn2vjsJUfFrz5xxEuXMv9X2WWfg6v7a+5Z6XNltF2Nt9vYP6agftcEDc83M8NTB1/AroR7dF83yfqkz9JH8TBn1pr9tqdnJGxiBaf2aBzBPtnsHNL+xNC6Q/p0k1NTu2qbKfbW38uvO2S4H+9bfOzxXdPwvG9+EFpb2eE065PwnAvhsU/cbNoDGDAeeLF84ouk9gSzi8nH5kI3+L+4XLSJrzfFTQshdIyQWmQAvEO5CpPGgOCWVsH2cqaQ0PX7P7WPdxzliNWa7s9HAhh04T37E+yCc1gd1Kw6rahFF2rXpxYjU3TvMfDazur7PjJZlPtSP343XUjeHKu+1RPbGltFau62Qar2LV/0Sp7G4vAwZ53OfXgX+4ff08OVc8M35KA2YHqpIKGMyRzQblcOVqxcjWPn3frepR6JP57LnQeaB4VywBcX+b1rl+UgAwAV4jh9I/ltR1iWgmVsdg8THAmN7ar1Xq2IL4EG1yZmFh421j8o3H2pjkJOWxHcUrBw4oTmWRiK0SsDTBCJt9DM6r3+EWBLQMsedNqvmPBUiiNK+NDNj9scN0YCSSSEeuad1uca95cVCwaQfMIz7Bzy53Zdr09UqSxzwU27ig+8QAhjsc9SxH7FFtOevyweOZspw8r8rbLwRz7tWx/4gK4s8H9KReRKeL8v6zrWxpvirzSmELLqf3KXFttUvLm74NB6wFqryrB3huMq8TtBTr2wnXPJGzKelNbPpG0HcccejmOS65sWZ8Uv6M6mpCcQ8OGAVINNrqfHNBieEaJxTzdcY3KEkP+kQlQjtIV/szSxyFify/NPxOMZijhzUC3Y2BVwAFO/hSQZ9vxmApgBKV+AmLzN5a7hw/Z7s9f/KllIJzi4J6qUSEG42YIhFTLlb0LwNiv1F7qXafREJMRqMrpwBqIaTamQS/w6KR0lG0zE6QGndhIoZGXecNpZ16bvC81aW+sdfgPJuObYD6iVfSmqekY2FQ12/YDxKVWULfYdmYPRba6+qRRkwv0I7Vi5v4z7KlRLc+23Rkl8z2ue4pQHvaVyRzrUXQ9a8/6f3A0sx63mKS+n3SrOArupH3c3DK/4jwJGxQqv6RmnR8bi7fS6sfCU49a6zpc+/KkBlAIkkixumRV4IqpSGJwlMpUqt15wq3WVrCNs9H+2X+V/yJS0izygoi8KGJ+Qfz3VLotfw1VDzOAS5BOT2iGuH/1qAPPQ4orOzBmQCZlS0YThM0D4om3OhYLZv8gxi9z7G+aJ8W+elkwX/vhnQy+8EspGshIL+FNDCmpq00YYqkaywCPv2+eNhTekyOsSrVVak5/1ZBE72CO92NnyvEik4SvHA7HQ6EA5CMxeHy8BUqTlOl8rQKXGicV6VZXiMMz8GRUk7RMT0jgktEhE6wU9z4PZp6AwySf8DngknXTatgvu6ACySNqIoxvBW3JPJ15GQCR9uHs6JLxOk+6E4jVZgXIhEwe/fMjpVQ7dX6Y3cmS28p9CIa/wI/ny+8UjDwJe4nbW3KFE5KIXxJdHM9r5UgEr7M0JcECiaQladj7AdDEZOzE6gEihceFQEMyL7kmQQlcnzxGPxIQDQ1IyWZ7NALLDp7VeN7hNEGZ1oawh1MXb73Gh1P1UwqrzRcukJHkmHndJiOkkHzR0QhiAydwv/qj4TY4zW4oh0/LnQpsgQM5UoLfnbiIs729V0MFlxHaxJrRvBGHwZPkvg4HoRRdq/wmgFIZtl1QgRJtf1NgQyklWO22EV7I/n+w7enhhh2qYHUlPY0/sICNRHDGU5IAYkUr3pOAPvQM+jrPfUbngSFmK4G/YyjD2Eojx0IPfn9poPer/RL7qvd3UNdzwkAz5bns9oE4nScAACAASURBVHed9ezOje1axasyE4axdRKv+X5az402NozHabomNofNn3hnLhhIwYgR7TxeGpBJhMmwFarylOd+yC+t5gspJF905Mp1LZsfGlw3RgKumIom5t1WJG83CiGaMRxaktCrbof5fKdY+ygdpvQTRNoptSG6NnX6xvR2o/6x1tP+puuqKge3XGxMg7dSPthDh6MdQLhhv8HrWrnAZWrs35oUzMv9Uz4pzPDEeuDIaKW+PsjFegE7mvfQPk7L9dO/goFob57m5VN+EyLPXuLczW35h0sd0nLoxZ+kXNmyfqHfUR2BBy7k0HCkh2NPWveJX686/MipZqwb+rJsIo8TY9kQqYPISowvTeHGyfSr9xX6GHUrlLLeeH9+0b8+RDQ43qB40xH+o6PAhmORc/Cgjv2ZINIL0VZR5Nu3sD/h7ECV4xtQdCfjq3TGxLa+slSCiiKIx7j4bgavxLXMqwf3pSbtjbVOXM5rjLfixhkLW+62XfkfgwAoBLSsd+rzYjM8KH01l0SI4Q0YdvT1tA/+hLoNjreoZhx8OeBmu99fuhVSrfyEuW/f1Of/7LIw+eulxP40VEA4bHD4TJ5oT+WG4df3Cw2gKezm+MrqEqUZF0Ndqnj98aZIoLyDOyEG7UeojrfPsf/scdIwB+cpNOrJxkv/+/syUyD95mIZgfZVbbUgtX7m803Pvf4ksw9cm90yQjQ0OcZ69U6mTQ1WmeOGqCOk58Wl30ZQe4pj+4RGcf01usTWWAtt9pc79LfKvPRuK9iT23oEhLRME4gshNp4Vj7YJAkFSmENUNXgL9w+2o5SQ+OV6qfOtfvG/erBQSrzI5haOJ62/FedKwRrWThF+LGqYGU9VMEz4MQzKbff3tkNBIQbRgVgG/TGt7ASG+oyxJC4oTTTcIFMRDAYs9m+9iO9BqutLLpcnBCjthkCKVHoKMmoQsSZ0DD9uQSvNCyWm7WtgRVbugnAxZtjpKzzZUe0ZQvUwPexQ9bcPnHxQRlRNv4qYaoOR4heW1VAOzCJ0qeokUIhknMeJBIBA5K6Jc1Qtfm0ImfjcJppLQvRhB+qrQARk7EKHCN6eW0BDRFNMIm9Np67yCXSzruByGbwxaQZcraZ3V9MBGVYH4F9hP5V81wTi0sU5UrS3e3IRRH352BMbMOFE9QEy4lc5UHngaa4Ur8pdfEJpTKefwNmUmvqJDXxyyPfsX2assUMHJdONAEttqkmlzNzZUPwlUA/waANgY1KJby0NYG1mNsdpXqzlOy2oNLEPc7CJOZf9j09npIHaJGGK/FswXyYMl60NsfBHWo1P7nOD7L8QMSEfOub9eLYbo6vrE6UZgTqUqn8rrzbSu7Kk48hKnO+UoNURnK7tGfpIzTbwsKWU94RKS3DcGZ7WkYFiCY+xfsUFMXNLYkoW2Z72MWFk36DRcresN+Fkl71YDvnjO6EoJwglfQ9Jn+pUFlA8+tHYnliL3PW+oAsbptPROG22iGwHnHPvVBRcxsFKxqzsnHPldlty34OyreO+hQpOfRSmphc2YpKgq8E+kkv0vJch2vF+Owa3h6GSsbHhC8Zj/XgRC22ZZJ2u4uP3gSltqNUKzJD+wG7ObqvapbsK1O07hH+ud9Jh1MxfHGxPBgECMSv2Z4828oUP5Av/t9TbAyzc39eHpI3B6n3VfDxN/1Bo63T9gd37DeCUqEoW0viXv6c7Pe/IamZQNZLvZcVkIwpzBGRCQy5XJHwNCtwgeQ7uHbdiSZdd8S/IlJMAlD5qUl7Yy3V/4M3y6JIL6f2x/BTannQZKfWIJAilgNyi23F6hPbKPG0I5vxZAxO+0xVilNt7x95tlUxncz3uO4l+zDEYfCguENqYUVifTjKwVRve7vef7q1sd+RcpirOQkafpCILd0AcGYr5X917ZpOBWKyH7VEBWHuCKMRVuEYPI5DrzpMgBbOsEKDFVg+GMkh5XBHC0JkW9DxDFTDMGoKSokKxtgbRmHyXoQT46F3BNtx6g1f0i25jlJIf5jAC/H1d0IVF5hnhnkYhk5ie7DTCHiPRy48pxTyLrwIzkvBOIdSm9rG/MviiUrZ+BXaofn9CSwH4zLKt+/ZAJnJK/EVdkFNGDqnr5H6Tlh+QDymloXvqRPXXikr4dCTMscGZC0s+fYVexqvwDiC1jd6Gb7FyW2BI0RienMiS5WTCsbcBubSIK6ZKodDEHyM5rwIyoXSIiHgLJSF92eilKaC0YbCF/gs/+ROF3RshsM81qsSN+ReKY5D8UowCyESnp/O66rI9YtOJpSjKPSMYLOyxEIlGBHKtQWu/imX3PCsDQswes5xh0m4fv8x4Rjeht7gugZcF1Dj4FMqGO1G276nvod67rDECEtx++QD9iqzCkYbDCMw+EbhxufQdg67djn/k3MrS+BF/P98NRqKBsAKTH0nsL6xy0fQC1gNrSMYpoqpYByfgElesBez/zaKTh+UaTdX6XwGLyEl11Gl37Md4RM0WQwVI2l8rIb9/GbyBXQFn7VIka+K4bOaDcrvBPhWhnloWiSG/hN4h8LtYTSaZTnUm8vAlFKqHA452gjA5WlYiMl3KRZG4TD1MxSaPT3c4G+lQ83OgHcAhBuRNZSM7NNvMqbeMBtj6UPAEii7iCcv1rzni93o5Y4KuV7cJ4Mx8Bp14tpfcqdQDQgFFmIJGcFeZc6tLaE4RcpQdyNz/Et1gRCEhfDsNF5O9FLBGHPYlI3lUM8ZVoLfah4/9qhSCjUQFz+arGCz8rziH5JDq7cVX34VREEvBasVrSPUMFVMQQNlfGexOqQcVBBmBaOVsEo5Bo9Te5U5z7ZDKx0UNFewQuF1WtEkXA1P8butuJ/DQ+g+n81jLeOhpQWWCSyFF2byjip8CvxKwywMhMJjM+m2t6S9/eI8casPXyPMwzB0LOtx6Q9DwbjCAVbi8Wnw1cXJ7v45uRvFyqfT6ewQVnyZYV7T04Q3XsqKi09c3X52HmWZP3Uy14132W23nxekHwzxgo0Y/A9jGjCezScsOfViT0M5bde0GZ7sm9c67Go4GO116Avu853ge4rP6MeVxbrye0FHdwXTlcYSRcsw9Uqyj4IqSv43XymlKaikYKmCpcph+Bh1SDnckS0Yo4JgBVFKK3lE8dg8NTzF737t32ehbHEI84CTmL1XU/WvJ+3dn++Aas6w0IhDJKUiutxq7L9fY7VfMlHQWQnLFIVOK819qQqIfUKBn4IFSlii6DZHjT3hqaCpQlurYLnixe/Vp7ldjDZ/NakmYwqCOTQ81zKfNWlnrL0SQ36f092tqdTo+a+WBvb4ail9t43h0CGH9U/XfJEhMe9saUvlG7cpB6VszH6mQZvK3aetqv7ityt4/UhfFJJXW+Z/FNfdKVZmQnNnWAFep6FJOMPP+82Gx8w4hBthBoYhn7N5syXHfsEOZezp9l7nYes0ArznVllJeOAS5nVdwc8JAUop9kyhNUt+/uj631NAzNWB4rn8nufQARDpI0yc3jt5pprmtP1ee6Ojo1MwEJECfd0u6PHdjPs57vvZt3vJw5aXghpvQY3LHg9TrPBwxFtQYyyocd0uD1IeRCTm7q/K/TCS8e+76Ojo6Ojo6Ojo6Ojo6Og8qBjvtQMFG6WmKV6ddq/d0NHR0dHR0dHR0dHR0dH5DxHgBHDw33bU+T975x0dRfXF8c+dLemVkJCEEiC0JHSQqsBPpYuAdEVpUhWl2TVBVEREpCooBJCa0HtRCSJFBEGadJCSAAmB9La77/dHAkKyYAhRivs5Z86ec2f2vfu98+7Mmzdv39qwYcPGA0NV4Pf77cQ/yKOu73Y8yLofZN/uJ/+1uDyqeh9VXdb4L2mF/4beR1Xjo6rrbnmY4tBAD+x9WH7HYcOGDRs2Hq7f3xWER13f7XiQdT/Ivt1P/mtxeVT1Pqq6rPFf0gr/Db2PqsZHVdfd8jDFwbbmgg0bNmzYsGHDhg0bNmzYsGHjnskeXOgkxk4i40STjeIYOk4OYQSRUJGXRJw2i5RdJq2uVStQDWGi9RV5Q9NkjYfIeXFw2yzScpFE4VVYIqJEqrmKtlj8vuttvutvK3aJtBNdyT9EZLWI/SqpENO8sHyzynBxKi2PL5Gf8bC2+7JIWXepu19GpJcFuCDypHiv+lAQeUtknNj5/ZLt62OLPR2ln05kpY/IYTGU/E2k2HKpHV8/b6lZjBbpLOK3WKpdbvCP6rsPXBTxFsOcRtn/Oy4SJtJLRDaJtFksIyiWIOJRX+QrEVkv0n2hfIGn1YL+5tzckeHiVEoaR0gU7nc8rp8Y7KRda4l6WNY8yeRFkWayDleAyyLFgkQidaLbJAHLepmBWBHfOiKLRD94i+wppP9Ct3HPJLpKkQYiu6TulecIE30fkXdFJytE6zlTvsQ937YbZPGFSDtNtJUi1VZKqyuVrNsU60TqOotsECm1QRqeqQuKxSJ1PEU2idivloAfukTdsa5/ExFEeiGyCWmzmBEUu2V3JzEiMg5NNuIYOo5DGO/JJuKLyCL0g7dw1/mSxVcifcU4LEp24LBNpIKfyEKDyGqxf/tLicKeeuLQTOQLMchskZemyFxcUx3Fv4TY7cu5d0TKwPQy1nIZgDDR9xWZKX6Lx0n2zydtFBqKNSJ1yopsl2ILvsyOr/V8yZ/tr3ILXob1HJ4r0ljEaYGj6BdIpa2t1f0L2n+XMDF2EhmtlwanZSEBYGa0SFdNZJWIrPYWOSyBO4desZLfp0WaiVZyv4isFv3LU+V3nO63nAcTW07aKFzy9InDRN9ZZKSIrNY0WeMo/qekTVIDazn6qOTtisPQCOfwsWxGPxDG0vRqk8tQDl5awrfKRYGe0L/+57lA2zQMbWAeY9IrFO7/b2byEbxNzbgOBfu+hZ3QFt8NYeZ/6z9Dh+EUQMMlbFUe1vZfgrJesA2nGZ+glJyHJym68kMUMhQ+pdG15rd+J4uxMIKQ2BduW2coxhawgAUq4F/R+C9vMfAYTvNGoZQkeeMDnSPYfNB5GXTG98c3f4EiOG+rqFQm42AYwdHdC3Ju/u68lqRRBJuV+x2PG4GLnm7fsV053O+45WuLQNcRprFFlVAqi09hOFWOdrnUCOcQykWyQvko0Ka5UhZeXMZu5XjffX7EN/Lzn8ehaG/Auxosp1Zc+/NQHeP4SSh0U2EApXcPOgM18mOzXC+zOa5FeXoRm5TbXngM3ejpAwbgkdtGOPYtYBYj0iuchwrwxhw+xa0WTkvpnVhJqXRAGa35ZMmvvsLcvPFRdI5Qmw86K+isfH9885b90Eg5h49Vm9ErGKuaXm1yjzZNuVJW8eIydVO+5Ed3DJRGWAgvL2W7cogHN4KueaoIdN1gJp0S6sbAY7gsGIVCxsErNLzWPBYqwGcTUEqyy7pNLisLy6AlsBS3+R9fP/5fPyf/0nY6HPenvmMMC8O2Eatc/tqHfDiTt1k6LwKltNsdV5C4TAPDGmiN53efo5Sovhjy5MscnPJl260MSinupYzyQ/HKk8MHMbaDrwhXASoIT+g7g93K8E+0g32tCKnX9asVIS9NWkLvX8ZzWtnfeZ+Z2S2faF/hxRmra3T/aiVDTvRDIQW3KXlw23cWoa54PoV+cZ7+WyCu/tSeyTfKM29+W9gInQi80Dt3mQ+u1ttvK+YQWPs7FrNs2fRsjRbWzaSG27zqqw2LQlaybNE7KAz9ZzCMRfVWOiyssJYl345B5a/NPsw5WejnFDwUhCuNxYonF6k+KcVz7Q9RsELBEmV4c7zarOzvyZZdZqCCxcrzm+nqRht+ONtqjp7b9olPQAh88gUqQpc3R63n7X2PAzyh8N+vYLmiyGJV80wDBe0VLMu2sU35LPxCZV9Ls38W8QNUoXSr31Rji6kt/MrRM1V3Q00Chv5k6U0SSplUGJbCHNG4JFJZpMxsf5HFUuGXtu+LdBORhS6i+1GCtnUWRHqLTJAiMrqIyBrRvb5YonC+6iludUVmi14WiOP7o8LEGLgY2rK/+SCpu7VOdjmGZZr4rJJ6JxswXJz8pcj8siLfSpEp7+XrLUyY6LuLTJTmFxvvE3lM9OMmveIlfpVEvrYXWSrSM0IicQMLC0W6i6v/N0VElom03ORlkAFeIqtEG7RUfinn2ldksrjKdGeRlSKdl0sY3rfUFSzGziIfik6WiDRdJK+k+gHESdujT6b09qJ3cvC9R1uxaCRP7IK6vNBhdLFAaXwj9oGnn70sUixYZI5oslzk+ZkyDC+Gi1OAuEf4iExxE9km/g3eDRGZ6Cx2v0i1fe2sjpb2E8NzIqGaSIRI8PfSOjkkZwZMZ00c1oj4LpUnrjyWx9bkYp35Io+5i6wwiKwUt08+kD0YeENc3KTDMtmGC23F3UG6LJXff3fKjnmpqV4ii0Tq/yy9pOpAGEr6yHbYvzZq6mUq4tz0HI2DUxrCPmK2Vqij1FWVVP8IaLhBCspy21kD7vzsRmMZ7y6ySVw+HieHMF4S8clz/oPF+IJImGj2K0VazpViOedW/6l8JtJXfBcPydPewkQbOJaBJqIep/5TU6S+VM8T+9ucw40iNV1E5rmJrBXPiR8L6C6KeNcQCRdNlonj+2MkTJxv8WkiRSkndp1FPhadboVIpWXS8HzV8yJ1xeWbLwUkWqSBuM36QhAtb84dcv6qEy2i4GmalRgvtT9rtAeC6FV+j3dUWnITjv/JnMSyKGXp6k0iKNtA+gPCrpHU+Ew+8B4MPwOkQzG865yzoMztYRtnfwqKyadNy2nH8etxi6VGGk+RVG0Yh4qbN7h/dZoSuW3E4bOFjk48b3fefwhng1hnRyQhu3kjnm9djoIdSpFpzSftfrwpv0zp69cMcq4ZXJ/Zhxly7pE0tpiAXzl6vGrBbWeropSFguRLmOgHw2u0IVzIyATwUCpBHXKLpz9OR3F2ppLxshFiDEkTg3m6bcV94EsFXXQmOMGsak4iX4vDe2/IHoOjtVxOctG8elOny5NGZoM88rMWDqZR/PtiLPdMT7h8s/2n2dT+wLlyEKa0xDsdVxD6KpVVBZJvGK7imCdfrlIsX7Yk3O61jGN/Wsnhq6OdQuAcH3zdbuxxSkKlOGpy95ND/44w0SLM7/ffUb/3pwdmvdph9IW5mSxKb3THfZ/pXObqX+9+9PVePfc0HNCl47FfmrKqaYUC27bhW+i6Cg09YUNINmLK9afmFpacoMWFgK92WPoQnye/j0+yiwZ3ops94yz6cCm1oMPDOwvJzFwTJQPsCMdkSgdgj2b4UpUfnFBpxxuZcrBdiSsbNhKNYYE2aA+dtj+X6nO0m2/izook4JKfGmw5eR0LQFsCdu3DbOkAP0Sy+qeeN3aHiQb0p2PCpyg6kDUmk4+X/6/AtpEJjcAEUBIIJzUrvXD13Cdu1ycOE20MvMBLr81TtDfnzVFNHtC8daJ45FyUaouK68DuUttQailKtaMjnYDfaNV2GqAgp/N0DZxw1KeAUAaSyLrocgI8ufpiWQ+RiSLPTJIByd53qrUACDQoGT1VvayO1lm+EJag6BqF5TX+WN4eMBjASMU/dlyJoE1ny4RkIlMCM65S4heGGJiqequUUe+HqcwT7WAF1Td+ee2XJ2I/ol8btmd1i+PyQHaGv9iiJDp/zMVPdbs6WV0Z9JHKEZ7LEeFSv446keUiL0yTp5XD5/AlG1oOaIeuH/1fmTT5CjFHUIPToVMfZkUzNaEugA50OEyJjVd0eJN1+66UjDKGbKZdVzU1nhlfVRDQqHNqSbLKaDOWiK3MO9jh4o2aE/j+MC0iiiwFMx1+ZtNslh58Lh1AhWiDIJzvvnn5KOiuf0MPenZUel9ElkmRz/M3WILQOZSfamK3k+8Xj/j9JPE3Yn+izMrP4LXD1Q+stViy2n7H/C0s3DDwkDPiirvb5YFp489Cd6Ldmx36WH38B5mvcPTH1lYfAKZlZS2l+acW6BzJ4Vns3dH+rFD6Q7p2V9PSuinLhfbmn4rsuiYE3Gzb/ozv/qnYv5PwSvqbWRG06534rjfDE/53OzU60OE08eoVRdep7Ijg53OPTYSvcftwNekT3u8GGg4e6SZQGqRCgh3X/e2kd5iNNKK517bblZ9JUCZh6v1robRol/xeMcakVvGBy7ee//i63x+mxTy3bzyxpLdVrOsec5HLYCaw7dsN3yQ0hO87TMnT3sKUZUwgM6Hpr+z+4ZVhO+iUO/bWR/GEprA/OVR131KKbpWvTqzCthk+4+G1vcF7frRYVDvSPnp700ievNkny2AVu/EELSM859hjNrc7wJEwtk14ZynYWaslb84FBA4IZWMtZCcbzg1Rrd7dkYjRjqqkgYYTpBCvnG8XSxv3iXriMACX/gzt9mVxyAJwgRgu/FBO2yOGtVAJB4u7AS7mx3a9WM/mJBRniwsTk4rsGkdANE4+NCMxj+0Ujqm4m3HEhAmLB7EWYzye6NY5eYmMFikVLvVO1LDm032KmAMOHulk5+ut14zsztaNeySQRFasS8Ftcfnq7OZFsXQkzSI9F11e7cSum+3LRBr5xbN1j+/EI4TZn/EsRexT7Djn/v3y2d85fliBN52P+sHv8FH75I4M7Jf+cXGGvtc6Ty5f2+X6YTL94hvMWzAjk7iC+flw0XqAOqiKc/AW4zpxfZ4OPXE5MBWLMt/2uEIieTf2ufOFMzjny5bzl+L3VEZjUvLksG6AVIGtbucGNH83q/hynu6wQVG4L5kAaIzxpFbBhyaG02BRVSy7jxCXVl7dYd/FA3jtdPFLpzrx9CWtgunwRQ5Uq1Jg2/6skoWu658mTKefC0/xas3NAuTJ7xe6tWgG8wg48MJ5N/OQKmeH9uBzAu632wVDR0RP9ePEBGJvmJJwOmgs4+d4rHxve3P1+ee8WlTHT6Vf6zE+augs6esYU2tzjE+vlWY34gtS4383J00AgZQu/0fOPesYsb+V5sZgO0Yo7sNA19NgVsARzv0YVGDbmZjyoAelfoSbzu+jSiTuM+lUklcd/wAdeXNUBTx4easA3LjcuxkiC5Bm4XRKy7lmWiCSlnivPcUMuxv/PKkBeEAyqWZnUJwCFwxFk4pCKk6jLyUoXl/O6m2sPtg991P5zyIljSLPi8gLIsbnJeBAxbvyV1f5OAO4Bpn0gKaI2+R6dnSBVBf2oM8CE2VLRtMRizskkGC2LxbK4VcYv8q+n2GBFJvcXzDeePBOAX/4uRT1ZbS3MAJdatp6A7pYKscywP3PO4RN4TMt0qxUW6Xm9lMNSPIJ5Uxf9qae8ZoqTLY7ngAeQcgo0bl/tANKk2z66zcwztXOKTLNLhCHZ8i5qMbpJk9I5JrezgRmfH2ugJH/wXFSzvodcc7ptOoOyz4oT8rI6gjjW0JbTBdMGQCItI9gT9esoTzpRghmixnABCbq/TFKKdVOXRludbDkrmIfhu4ElKBLub2CnifhIHEHS65xRJIokUxX+ytaIEngfYkmJDpAEunJGtYGFxob9J1YP0CkyBdh0ADTNZdkKI7Lk6fpSyKioQGpuWz1InHYwzMaXewu0NFkbgAHOH+1zB39d6x6XmG2+EM8Wcn2ppt26SGVlKv2ehALOIJbzkODyOhIem/1XbyPcXbHb1d0Kp5pNCaZsAxTIPzJmQyfPOc/Lcl5H5SneNtfFVhQShUDfPjZ+88rhOJROoVgTLerA4DL6K3FXnebAaP1UN55pDaxejTD4tB5ktLH7iiUolvwrwIolWXJ7ZNgZj8E4tdirwJLyEBOFuc3xwgP67/ztpZztxwQjNmFzHR+xwEsJIETnpJsrSwb94+YnYT8hq4M4yqOHgcv8dvLA31e7ZvUR72/h9qeEwYaKUeG65+1NrM/P7YbBa8zJQ5n51Re8/+kjittLOjP0GRDbB5bAAlOxOtIRY8e7QremoORZMwNLHGbVehpzn7GzjmDfQ5y+LZ1/bukknLVnuzcu+maATm3yRv3SHLukQW3eSUVyMMwTR8BLUjsWfu5hXyr2FiP56b3FUTaKbUluia1+sT0cqXu6dYz/qTbuuCjO642ov4bqR8c4LlTz6GUWal2V4gwm1vCLi6ULuGUO5cdn9avg3rsrNCzDoSR9OGzBF168h7i+hAi2ogL9D9fYsKyS9e451kK+cG5Fum584UAkvNly3kauKcyQo7E58nhZe72PWjdO2Gzeu4Hzjdl05D+si1/b4HvlltXFrfkb1/2XGEBUAhoN+YP371NV8B+1P3kFxy30tyDBjltNHd+X4oO8FEqRR0i2f0aCfW5eIqdiQ/wDI27RI8YTUVcU6senZTutLdn4/jRTTmcURYMjOuhpkQ77G5S9dIHz+iOFOzB7D+XkyK1EFmL/uXp3Pry6Xp/9OHLkQeQmMOUMds/EU9N0gCKWclRa7b74uz1NqH1nUZJfsFjZB+UqStsXMmmiCGAMFhnB57tGdki4uavagBNYD9n1laVKE2/HGpTsey+x+F3rly2A5QXpGLO0v1jLWu4ndN0GvZg67X3/sxgOmRm3PbYkWiTa6rFaXVNXZpcHvok3x25MeKsh2hofJrN6i2TRQ1Wpi9eVyfJLIhLv46k5nT79okN4/ppdI2tthHaHA489qcyXXu7JRzIbzkCQrrJACJLoCaelY42TkaBUpiDVBU4geuo3Sg1JEGpvupyu6/crn+5ozKNgm+KJNCWfyqxwzCXhfNEnK4MZjZDMJ5BZ1ul3n19l7YQFKEbE4TllWFfw1osqAyIIWlLaWbgDCZE0Olz2aaUILMa680szfAlTK9thxCKe5wiBeVBnAENwx8r8E7HweF2dWtgxpJpAHD24TSpm/zZE+2wA6rh//gxEPW10PYdeacK89tPuNOgjJ4sHelo1LNz2APlqanO5Dn/ZgdVGU4RvbqmgIaIFumMmPCyZL3UsV/Hqz3caHPlMWvlu3hg0cjU4Wc99marvolEwoDk7smzVE0+qcClOBxnm8tCNBHHaipAvXZoVwAAIABJREFUxKAPhtM3+yQYpCqcJHpjZQHtyFRKn6da6rNXuUb6FVcQ2Q7+GDRd3jpz8EPpURZOYKBjlvkxOET4ieqXGzs4RxFYkhddT96+Vdi4H/gq9atSV/+nVFaXYTCbGt9MVRMnnfyW3TOUJWbgF5lEE9R8l2qcYcqXDcFfQkoIOu112KpU4ss7E9mIsd0pqjZNzW3rWJq4J1iSzMIM/wvjKXmE5umBNTjgwPFUXNDcIR0yhGAseeu6D52Ym64ZXL9miBiQr/1zJo7t58zaqkRpeqA2FcvtK7it5L4C+RimTAuVekVlpbRLf4beQtMdLGkx/S2R0jIcJ3anZ5WHaBJSfc5DUVxdk4mymNrDPuL/LDFAJETewo0wnfYDVMX7fyfr5s7lPurXg0q1ViZTp98gDJcPVnDY54dCifHDQhSu6+1C6hD37PMVNNcxsKYRq37qWPiv7G/iKVJz5wulicmXragk+ktICelJeoHLcKmQkDuHdy9CpeBnwJ+sx1/ibA12mUj/BxbrjSIzUB2O4ce0cqDJXq1+CF4OR+QO+4rVJbZh0gV7tuPJ5zgeMgT7UuXg7wW2BRvOFbquf5jY9fhcIcREHVLAwvDc+V380tmSUqG2RKEnGKfdeJagoWv0/fa70ChOmo/l3Gks9go/spwsaVmk2nvrvxvxjVzG2b0cqX7mi1lkZdj/fWFWuJecdNmTMEikmAShHpqcVGo3SrXEFN4X2M+pQ5VzBvMqUbT2Sf66L2fC+Ri+vFoOdAKEUKLpgQLbyvgeKRT/HwoUx6EUnpUumUERJlqJ3Dn6xLRLeWz3K2+vtwnLtH6cxRfPOo45/aEkzFnZzwyTKIcMzaQ/Mbm/vkJ1xNgBxiKswz70Cw4qowpFexmGo5NF8MRceqSWuKfFIHIt6HgRqqAbk70wSyj6XjAGg89SHBkPvSLZjWMvmET3lFpKIf1gAs8n1N0Lwc6wwAgL0A2Zyu5Qx5HwDo/FP6sU8ja8AE4rQT+XUtvaxvztAn0WfoF2aCX+AFaDfhXl2veoj8xmUEL5fVAdhszto6euIw7fI+7flIX51Iprr5SZCOhBmdMDchaWfDPbns4g+IKOmxv2h69xdF1sD8swjJjISuWoQjG2gXnUj2uqArHrCB+hOS2FwHCaJwZdgrLw/myU0lQo2hD4Er/VH9/rgo5NsVvAZlX8ltgrxRnwrQhzEJZBl5kMVV43L2yYGEhR6BHJduUQCxVhZDgq7wKf11zxrAmL0XvOdYOpuMz/iAh0b0IvcNkALoupdvQpFYp2q+3QU/Ohjhus0MNKXD/+4HobHAwj0flH4cpn0HYu+/Y5/RVzMyvgBQL+eDUaigbBGgx9JrC5kfMo6Amsh9aRDFfFjsJjHthdxt5xI7AKt49GWdOghuFUCVbrYKYTrMVv5kCU0n6DqnnOf3Ec2sNYNIfVUGcerxJ0fUHHMxAEA+ZbXbQxFH03mII0jqQa9fPE3uo5NPEldAO/jYjX5GL4rWeLKnEW/CvBAjRtGbp+E3iLIrf4NDC1lArErgN8jCbLocIyGp2upoJwfhqWYPBfiQNjsPvmUxSatZxTKpNP4WWk5CYqHmt6EXyCIEKPbKDkst4oZDY0c4I14H0BGkfw7j1eL2zbHTfyvbhPFp/Da9SKa3/NDY9qEA4swSFsJAeVMb+2RF+8ylB7K3MDSnWFMIQl8MwM+id5q1D0eWzKwmqo4wRrocR6njhdTykTU6AV2EcK7pHU2t/IWl13p6+wNkRBTwXrFa0j1XBVTEF9pX9ruTqm7FRHjArGKmGdsg/9Qh1UxgLbjq21U9BMwRqF9wVF4wiVky/51v0s7sKLC9k+zmE8tHCAVQIr4fnZvKWKnIcSpWEOOsLh8dl0P1hyAjR3gjUarMHhg9EcU3a5c9l0Ux0XoAFuCz7hkV7Q0cwnM+lst8h3lW5BkwtENFrJmqv/u77/0gLKsvCbaSi02x1393FB+sLr3rAVXcBxDAPGs/2sQ958sZZDeW03cjMixb+gZVjN4VC0odAH3BY6wnx8Z/XlH1r4cH9rKjbsMnllyEuTV9Jn1+ccO2a3+enqL/B6zFs72lLp1n3KTikL37Wq36bSizPWVX3h6zUMPdkHhRTUZnqA2/clKOsLi9zhHEaf9QTF/k8pRTTUwvjZzOz8zCJPfu/GsS+8DoZ1BgzrKLPopYc2lzej7zSL0CILikaxqNVJ5vdewIErJebNoJH9gnrr7BcErWHZd2Eo7IaGM4hFj29yWBi0gWWzR5GvBR0LNyfVNAwdYS4NLrf4N3Ky0M8puCmYqTRWKFosUoNS/BQEK3lvoVJKU1BRwUoFK5Xdu5+rY8runmyh6BWEKohSWsmTiscX3PU98YHazFjvE5v4FvpT9vggpRQqAl2eHN2M3lre3vc4QJCCtUpYoai+RjWPC8qxt1Y+q0bdfCwQc93hZwt3uMNGNiK9hYkze6XMVjMcd99vb2zYsPFoICKP9HX7Udd3Ox5k3Q+yb/eT/1pcHlW9j6oua/yXtMJ/Q++jqvFR1XW3PExxEJEY7e8Ps3HPZP39ITZs2LBhw4YNGzZs2LBhw8bDigBngaN/d6ANGzZs2HhgqAr8fr+d+Ad51PXdjgdZ94Ps2/3kvxaXR1Xvo6rLGv8lrfDf0PuoanxUdd0tD1McGuiBvQ/LVAsbNmzYsPFwTZErCI+6vtvxIOt+kH27n/zX4vKo6n1UdVnjv6QV/ht6H1WNj6quu+VhioPtZxE2bNiwYcOGDRs2bNiwYcOGjXvGNrhgw4YNGzZs2LBhw4YNGzZs2LgnbIMLNmzYsGHDhg0bNmzYsGHDho17IntwoZMYO4mME002imPoODk+0W60SFdNZJWIrPYWOSyBO4eqgtQQJlpfkTc0TdZ4iJwXB7fNIi0XSRRehSUiSqSaq2iLxe+73uZCKdFCpEgPKXt8QPbnmQHWjrosUtZbHP8QTVsjoq0Sr6+GSfYimf8cw8WptDy+RH7G43Y+uUvd/TIivSzABZEnxXvVh6vCxLGZyGaxc9wkIqtF33vqsyIddSIrfUQOi6HkbyLFlkvt+Pp5S81itEhnEb/FUu1yg39U383cpPWSSBXRfzbdanz7icFO2rWWKPTZf/8pk+TF1FqF50gmL4o0k3W43tGPh4iLIt5imNPIkt8v3BLjh4Bb/FWsE6nrLLJBpNQGaXimLijWiNQpK7Jdii348mE/n7cj0VWKNBDZJXWvPEeY6PuIvCs6WSFaz5nyJe75tt0giy9E2mmirRSptlJaXalk3WY95otF6niKbBKxXy0BP3Q5PlHsWomsFKPdBhH7VVIhpvn9iZQIIr0Q2YS0WcwIit2yu5MYERmHJhtxDB3HIYz3ZAMIEz0iM/FbPI67an9ZfCXSV4zDomQHDttEKviJLDSIrBb7t7+UKOwTRDxqi3xjFFktHhPeEdARJsZOIqP10uC0LCTgRnFhou8rMlP8Fo8TkMsixYJEInWi2yQBy3oVzj31wSUpUopWnes9VyJClsmiD8Ml7ojLlHBpqVtUd5VxUfnlsujtCDlO0bzH4VKwGq1de6znS/5sf5Vb8DKs5/BckcYiTgscRb9AKm1tXaA+YD74vbWE1O/29YrKPSYvkT67xssZ7O+8z8KcVo3aV3xp5uqaL369Uoae7CeIFNz24F7/14kElRRZYhTZJO6ffyR7MOTpsx/CaC2/o0VK+onMsRP5TjwnjZCH9oWiSOgseV4W1V/rvCB4g6yY/4EQqVsfLjXc59dYbYyovFKWR7wjiGHATBkmEfVXOi6quFaWzhgjYPj78h+OnEwoJR41ReaIyGoHTTaKdDpYmM9SN4XbA5FwdLIYeWoRL6cWz7U/BJEViCzB+NZ4orC/J1t2mYGILKbIt9N5gPMxv8SK+NYRWST6wVtkD44Ap0WaiVZyf/Yz2MtT5XectooEeYksNorzOgmKaiuIfC7yjL3IWqM4bJbyG7vku59eKGSAyJOI7CT4So9sWzqIdEOc1yH2qwna9ixFxBWRqWiyFNFtInDti7lLWnEYGuEcPpbN6AfCWJpebaKUQimFCsTVn9oz+UZ53rAVZJuGoQ3MY0x6hXsqJ8+WyUfwNjXjOhRemWYioAdljg3I/jw9wNpxl6AsDFmEUvrC1XSHbRhOATRcwlblcTufvGAbTjM+QSk5D09SdOWHK0NxrEOJZWxRvrd+J4uxMIKQ2BduW2coxhawgAUq4F/TmUvrRaiCbsx0lJI8x43ARU+379iuHJRCesEkeqXUKjQ/ItB1hGlsUSXu6MdDtMXAYzjNG5VvHbfE+P77f1f+9sXQAmYxIr3CeagAb8xhtzJMA8MaaI3nd58/bOcTWPG3x4WivQHvarCcWnHtz0N1jOMnodBNhQGU3j3oDNTIj81yvczmuBbl6UVsUm574TF0o6cPGIBHbhvh2OeJ+ae41cJpKb0TKymVDiijGoJDKerNZrNyv2t9hbl546PoHKE2H3RW0Fn5/vjmLfuhkXIOH6s2o1cwVjW92uSebMqCgpYKliq3+R+rnPaXH90xUBphIby8lO3KIR7cCLrmqSLQdYOZdD1fbyb0ocKhXptD0XeG6XRJqaNUFqGueD6FfvFf13ILy6AlsBS3+R+jkE9hOFWOdrnUCOcQykWyQvncl3Pyr2wmRk9nBOtPdrMoEz2mUZn9oz06Tytan73KXSl0z88wTmdHTJ08x+1WbgWNS55rj7Vr1Byc8mXbrQxKKe6ljPJD8cqTwwcxtoOvCFcBKghP6DuD3cpQ6O0gFO2d5u9PZlJmPaWQ0c1fHcOnac3uuG8MLk+3WbqM31RRNQ3Hjq3mLWFl04oFtv2s/B7M9m1hJpSjXZK3CkXfFubwXnol63323PltYjIMoGZsWxWKviV8db3/92BqvcN2EGPIzM5DOanc1D6cQmZ2WsV5SjSbUX4Wv6UHqQh0Jb7tVYsLOLqFD2qMUga1GXff8D4ruKY886P3ochJpbRsf83MhG6U3t77+r258M6pGQU9VcCu13LuUx1UsXXv35yvCiarjgn1lEIUjFFPLWtZYFvja82UykLB/xS0UvZTJ6qb+mMPXVu9voE2zZWy8OIyditHpSxshE4EXuh945jse/YU+iVXTfCjSFEeX8YvnxR5HGqwVtklFqOogfZL+Vm5/Gtx6ItB0bC1giGqYtxLSilUUYopOkaq5cpFgYtiXFUFXsphcp0crbWV8bMZKqd9AtkLOv4AVSjd6jfV2GJqC79y9GzV7BFqC0tO0OJCwFc7LH2IL8yxkUsilUXKzPYXWSwVfmn7vkg3EVnoIrofJWhbZ8l+Az1BisjoIiJrRPf6YonC+aqnuNUVmS16WSCO748KE2PgYmjL/uaDpO7WOtnlGJZp4rNK6p1swHBx8pci88uKfCtFpryXd4RasVGkpovIPDeRteI58WOhi67AwsJE311kojS/2HifyGOiHzfpFS/xqyTytb3IUpGeERKJW7b+igv9ROaIlNwpPtK/uMg8kce2yQuJFUCkr8hkcZXpziIrRTovlzC8b6krWIydRT4UnSwRabpIXkn1A4iTtkefTOntRe/k4ALruIFi0Uie2AV1eaHD6GKB0vjGeQs8/exlkWLBInNEk+Uiz8+UYXgxXJwCxD3CR2SKm8g28W/wbojIRGex+0Wq7Wtn9e1HPzE8JxKqiUSIBH8vrZND8uVemGgDxzLQRNTj1H9qinw2xlcPOpY49fa40W4uOy8WqeUmstheZKUUj+xr/W2cYr7IY+4iKwwiK8Xtkw/kUKTxq060iIKnaVZifDEfamOeVbKYyLdO4rBLahxqA3BJxCdIZKYmskTs3xkvUVH2C0ReEGfnrzSpulxeziifP80ioSKdNXFYI+K7VJpcrLNUpEYRkeUislT81/SwWPNzlTh2EJkpn2VUIEz07URmyxQCGS5OpaTIIm+RL7xEfhLf8NCwQeI8EIaSPrId9q+Nkjbic3NOyZ5cI/25Y/xxim+e+nN/B4AMcue1QmFNT27bHyK+edpVmOjzaPxCqubWJ1Giv8VfdwK30NGJ5+3O+w/hbBDr7EjCra9SWVUgOV/t7CFk10hqfCYfeA+GnwHSoRjedc5ZUOb2sI2zPwXF5NOm5Vw349fjFkuNNJ4iqdowDhU3b3D/6jQlctuIwydPzCMJ2c0b8XzrchTsUIpMMtC5sCeApjJapM2X0j3Z+86q/iEuUxrnpudoHJwC7CNmawVuvOUzQ849ksYWE/ArR49XLbjtbFVcNC+o0wUjs0Hy/5YmTPSD4TXaEC5kZAJ4KJWgDrnF0x+nozg7E3Tx8hHwJ6DkqcZhZtNzsJ1fr1QGPWFDSDZiyrpeXJKL5tWbOl2evO5HFLo9EESv8nu8o9KSm3D8T+Ykli2MED+QROn1e3XOlUlrVc15YfB3szw+e56ib2Uu7Htp+6rdUq3ogjJb53lOy6Ck74E8x/ljKmi1ea49V3HMky9XKZYvWxJu91rGsT+t5PDV0U4hcI4Pvm439jgloVIcNSn8iSyNMZ7UKvjQxHAaLKqKZfcR4tLKqzvsu3gAr50ufulUJ56+pFUwHb7IgWpVCmzbn1Wy0HUVCkJPpY6rpc6XAYsTpJN2VWe9z547vzUqwUl+/7Sl/IT/Hupr2JFyX+UUlGCVeaDnwi9UGZWwYR/BBx0aXfCJI+OgsYyf47Hyve3N1eef82pRHT+Vfq3H+Kihs6SvY0ytzTE+vVaa3fL37PJQ5GQUrgA01TmNpFZTJtVbWviv+E0AgZQu/0fObf8Ysb+V5q9ZL0Yo7sNA19NgVsARzv0YVGDbmZjyoAelfgRiC13O/UIpS1dvEkHlPPJYiAZ3ops94yz6cCm1oEPYIQzH8XPhRacY1wvEt2breWYPLvGTUr+pFmS4VCPDlRQz+n9xJsc0lYWKWg1k3LDFUhr9cSNt5VMo9i3B9T1QKo4+r+xDZDJUnEbD7tOAG5MsNIBr4ISjPgWEMpBEVpyLAgjT6efCU7xac7M1ZT+LlDSKPC8iL4gYn5eAAxXvQoJAg5LRU9XL6mid5QthCYquUVhe44/l7QGDAYxU/GPHlQjadLZMSCYyJTDjKiV+YYiBqaq3Shn1fpjKPNEOVlB945fXfnki9iP6tWF7Vrc4Lg9kZ/iLLUqi88dc/FS3q5PVlUEfKVC53WgK+5NDVfctpehW+erEKvw0Jd8d3KJMr4ymLRGpskieS6pImDJ9Dl+yoeWAduj60f+VSZOvEHMENTgdOvVhVjRTE+pm63/KPmblhf7bOPcpqWMev3AwtOc0fp3HL3H/ywmQRp1TS5JVRpuxRGxl3sEOF2/UnMD3h2kRUWQpmOnwM5tms/Tgc+kAKkQbBOF8983LR+HGQIkb59x52nGmiHGZBOyx/pBv5TR1DuWnmtjt5PvFI34/SfyN83aizMrP4LXD1Q+stViy2n7H/C0s3DDwkDPiirvb5YFp489Cd6Ldmx36WH38B5mvcPTH1pq1KU/TsrKW0vxTC3SO5PAs9u5of8g5HwkVpixjApkJTX9l+/eD1BtvxggIwX+su3q93SwNCPkc9xGJb6W9kf4qHWtcGF5Hb20qWZhmPxX7dxJeSX8zK4J2vRPf9eaVpk0GhLKxFrKTDeeGXLzEr/BU2sWV6tWjpA/myPetBdHGwqt/1D+13KLo8EbG6HgmBdXUgx7D55pSvz+nvrE7lh/NZ4XSH9K1u5qW1k1ZLrTf3Mj39wnIB/G9kt5Tytye6FazNWt+TpzS5HYhcsPdPXZ42pS4hjxb5GJErZEdlX4ifI3bh6tJn/B+zCqK3pxTqiZZtxSQO8ZZzlfz1D884X95a7Yjd15rKzQXa3putbWeMwMG525XYfnUB8r5Zn+TIolPxd2MIyZMWDyItcBD8vOOglJPHAbg0p+h3b4sTvb5dIEYLvxQTtsjhrVQCQeLuwEu5sd2vVjP5iQUZ4sLE5OK7BpHQDROPjQjMY/tFI65Y26MxxPdOicvkdEipcKl3okaTMlIPkNQBzIZOJtVe1i/Yeh9mobvgINHOtn3h1RIsOPGdcoCN90jgSSyYl0KbDMfcCOZfjSYt4BM4vLvomLpSJpFei66vNqJXTfbl4k08otn6x7fiUd4r9aZEDjP0QOVo8J0+u0QAmkOeYoLE+3DZPrFN5i3YEaOH6/uR5eI0Y6qpIGGE6QQr5zvKpIPG5Jmh9vmLSldjr74duIbmfwe3xqE1n1UVKz+1OP9r/TM4vCcFtaPKxySd2Of5xp1Bud82XKuZfdURmNS8uSwboBUga1u5wY0fzer+HKe7rBB3dR5LExunatvyd++7FdkAqAQ0G686rx7my53v/DB4+JISs3jBQ+6zz192z77LQjl4FAZ0zj3opvZeCngg1OmOiTeB9cLCZGPw7Vnm9u/14PKA9+5mESW0VTENbXq0UnpTnt7No4f3ZTDGWXBwLgeakq0w+4mVS998IzuyE0/AbsLHsictMtOhwubqPKny6uXaMW1QgxvLUTWon95OmB3856czwc+Rx5sdDSDeQQceOG8m3lIlbNDe4x0HVi8AtFJTLhS5po7bicgkHjJib1i7XqeuOLa7RR1SPpHXRMpisgC5LFl9Eu39jJBD031bFbD4OKbHJryOntwZKLKQKlX4Eh3fhz5Jju40c/QADwgmVSzMyhOgQsGryQB+AXHrTT3oAGX/xFBusrHGcA1yKQHNEXcJtezowukurAHfRaYKFsymo5Y3CGBBLN9sVAOv8L4Vfb9DAuk2OT+gvHGw3MK+MPPpagvo72FEehS09Yb0MVSOZYB7n/ezo31UN55pDaxejTD4tB5gi7fDx6x9D2AxfKcUvs7qyUuRwB8QjnTl72pZ7ymCpPtjieARxAySnTuH+2A0iSbnLL1l7zMM35pJeEaxlLnCB6ZFQDxZCXaC2ACM74+V8DI/+A4KWf9jlx/4NYdln1QnpSR1RHGt4S2mC6YsoeaRNpHsKdr1lCedCMEs8UMkECJa2xK7aVUZjt1puayAg+FXT9vYehOQAm6lNsr6HkSDhJ3sOQaRySJEsl0tb+iBZIE3pdoQqIDJJGerGFtcKGxQd+J9QNEinwRBg0wXXM5XED38rSby2keV1BlGOc6RCYxZi9+DmRa+e3hBhz38IxGF7sLdDSZG8ABzl8tk1d/8VieIU0PSaSn6IhEfw4qcLDOsyKMnwbliDFnt0vP5vsUt3nbY0VzMhTH5cnT9CUR0Wi8AcdddNDo5fwnaCiFsu6nS+nbxSMJv2SetY+nDpmeXMnAxC0zc/Lm1N/8LjO/cbKW1+twtabnFlsomrV2NTLYul9/p8+5FulOxOtIRY8e7QreGhT8rePDQMxOQn5DV4ZxFUePg5f47eWBPq/2Teqj3t9Dbc8JA42UI8P1z1qb2Z8f242C15kSh7NzKq/5f1LHlTYW9GdosiE2jy2AhNwxdzCSjLmBJW6zCj3N2c/YOWewYNQlqb2xCqWawm9cOVxMf39+F5xKylV7sq9NjuB2faCBHHdu3CMBFwxFkwpss/9WAfXYWaEnEEbSh88SdOnJv/UwTNNHQAsSe9Z+biHfKjbW47npfQWRdkptia5JrT4xvVype7FVS4isf6a+b5ORAWOjwIK9V557eOI3eKzL8aNOjh+TZoxv7EJmOr/jABaSwAlPeWRn99A4w1TaYs4Zg89UrpCCfG/feka5CbI/owIdM8y+EI+poWOe45BCG6C0eo0KIDlftpxr2T2VEXIkPk8OL3O370Hr3gmb1XM/cL4pm4b0l20FXWfiDkSRGagOx/BjWjnQZK9WPwQvhyNyh33F6hLbMOmCPdvx5HMcDxmCfaly8PcC24IN5wpdV2HSQuwGwls0GDldVR2Scts++81Eim4YDD81NP2DP6B2/TPNq+gHZwTdD/fvnSzGhtP1PffZVek86jUVTDzFSfOxnDuNxV7hR5aTJS2LVHtv/XcjvpHLOLuXI9XPfDGLrAz7vy8/Lw9kTjqSAWbWQlX8mhzJ+7L0HlBqN0q1xBTeF9jPqUOVcwbzKlG09kn+qisTzsfw5dVyoBMghBJNDxTYVsb3SKFpeMApplSKOkSy+zUS6nPxFNtHe/eDcb4RXj08EkOGxUIstR2vAMSK5tuDoN706DilUM+zNZSKRamuqF3tmGZ/0soRZzElJeCPwps0yIRaUh/naSMBDUfi4aodlr9e2mkATWA/Z9ZWlShNvxxqU7HkPgFi1+NzhRATdaxPpWqo1NlMpeYppeYqlTlPnalcsEYy3M5pOg17sPXae39mMB0yM2577Ei0yTXV4rS6pi5NLg99ku+O3JjOpodoaHyazeotk0UNVqYvXlcnybxz5SKRMCC5e/IsVZNPKnApDnJWc7np8274dSQ1p9u3T2wY10+ja2y1jdDmcOCxP5Xp2tst4UB+yxEQ0k0GEFkCNfGsdLRxMgqUwhykqsAJXEftRqkhCUr1VZfbfeV2/csdlWkUfFMkgbb8Uw0zDHNZOE/E6cpgZjME4xl0tlXq3dd3aQtBEboxQVheGfY1rMVyvYzrU4puX6aLBxaNTB3G28x0cCyW6obxFEMTxymlXreoHd1UUysDZs1IrcZ6M0szfAnTa9shhOIep/BD6VEWTtxmYaCOmP3gONV2LFFKvX5NqRfVdp+fCqI5A2JI2lKaGTiDiRneZNVgJXyXVAIsiDTWW/fT5ZQTmDhgdmchDrG4+Nypbg3MWDKz9eTOqVnkmSJ6S4xvF6fcWMvrWqTl0VPvVltwJJq1dtURzPnVeIu/T5H6BEuSWZjhf2E8JY/QPB0XEv7u/DzM+Cr1q1JX/6dUVpdhMJsa30xVEyed/JbdM5QlZuAXmUQT1HyXapxhypcNwV9CSgg67XXYqlTiyzsT2Yix3SmqNk3NbetYmrjcMQ+swQEHjqfiguYO6ZAhg0X8peqfpcHCDgimSHC06R96O3qbXG2LAAAgAElEQVRHfDhN6iZ/9kQ7ANXwf/wYIgbka/+cyV/7ObO2KlGaHqhNxXL7Cmwru+wnlGqNydQJCMPlgxUc9vnhb30MU6aFSr2islLapT9Db6HpDpa0mP6WSGkZjhO707PKQzRX072LQMr2jup9FXpmRABotHXcnbs41wvqykGlWiuTqdNv1/34fcjGx+AQ4SeqX27s4BxFYEledLXW2XhEMPKqxjdlouv21CKrrHjb5f3K+Ndb1ZETy+0PPz7JsKjK6lDn94IoVXptnuOKe6wrNDesXaNKE5MvW1FJ9JeQEtKT9AKX4VIhIXcO716ESsHPgD9Zj7/E2RrsMpGevTBZoRKmLB11n0xtuH3miMo9Jq94r3hXRftzP0U1rfGCJMS80dLuk69u3Wf/E4Msyd0sX8yqNG3m7Gq/fx2xvPxja2m57nhBbaYGRBe6rsKik+gGr+ftZSUWH+bnMt+D7rZ99ls4hC4OnTu+dmlFFEl14RRH0+7YL3hg+dnosUir9Damr+sSUTNSFvRfIOkpnq/y09f2++t/7XA8aPmaIu8coxa7XzN/vo+oJ5Y5Hgxata7IiCNUtivY9etectJlT8IgkWIShCrMnKQqqWDiDyiLv+v5Qo5yDhrACv5sEIxOtwJatOO5BuGIBKO9v5AwBTCVFZ4jEFZg965iauuoAtu+dvspZ3HjUOAzMj9thTwxn/fSSvwz+u4TYaKVkAq1JQo9wTjtxrMEDV2jD8O5GKUGJDgf/PI4bZJpRPRVEbdn4fPYBksmqAkOZ/9VP93FHdHPBPpyovZgjAPHs4E4+Gor5R2Wctk4h/J95uPLdlL6F0FnWEWq/VzK9ZpLg1tnWKxQHTF2gLEI67AP/YKDyqiUIhpqYfxsJoWx2FmuBR1vWRgvFH0vGIPBZymOjIdekezGsRdMontKLaWQfjCB5xPq7oVgZ1hghAXohkxld6jjSHiHx+KfVQp5G14Ap5Wgn0upbW1j/mYBRKVMfAndwG8j4jW5GH7r2aJK7IQm6N5cMAJaontzgbWF7C5B2aI4/IHIGmA1bh+NenoYTvVhFoMSyu+D6jBkbh89dR1x+B5x/6YszKdWXPub9Z+Dxngu/BSFbIAulNo7BIX0h69xdF1sD8swjJjISuWoQjG2gXnUj2uqArHrCB+hOS2FwHCaJwZlLzL5/myU0lQo2hD4Er/VH9/rgo5NsVvAZlU894KGZ8C3IsxBWAZdZjJUed28EGNiIEWhRyTblUMsVISR4dxYlOav7ZornjVhMXrPuW4wFZf5H706AbvrWmPBz4vaGxmlSljxT98NpiCNI+k7q2zedhNXdx485grLQObhPOoNaz4oZWE+1HGDFXpYievHH2TnQiafwstIyU0UZdB1/TEQjHw8A6W0M+AbBLMR/ULoOJFNJ93utBjo7TQTge5N6AUuG8BlMdUOPTUH6rvCWmAJXuGDUUhePyOMc6AteP+CVJ0aiCxisgq8ZQHQYTiVo/ZiNqkiiVA0CNZg6DPhcVceuyWnrC3aeHOMe14rYz1Oeb+TJ6+3n3Wwpie37Xvwz9OulJk8GsdR1Zq+3P6uhjpOsBZKrOeJ0/WUQvrC696wFV3AcQwDxj80i1Wqu1nkKIvP4TVqxbW/5oZHNQgHluAQNpKDyphfW6IvXmWovZW5AaW6QhjCEnhmBv2zFxrLY1MW8sbcxBRoBfaRgnsktfY3+gnKB0Akwip4dj59k+/TgmOIgp4K1itaR6rhqpiC+kr/1nJ1TNmpjhgVjFXCOmUf+oU6qIz3ZLteLzRQbgs+UXexoKNSCvUs7sKLC9k+zmE8/2fvvMOrKLo4/J69Jb0SUggldEgBpDcFFGkiAhKaoAJKF0XE7pegIioiRYw0QToktABSVYJIEUF6E4VQAySUVFLuvfP9kdCSi4QQpN33efaJnl1mzzkzv5m9s7uztHSAZQJL4YXpvKuKbIcqTrBQj91iSkV1Mans8coP5rvDCYw+qwiMf/JKeaegAW5zP0MpOQM+gRCpR1ZTcnEv0223uUdru/28WOt7jjvk1Ys1DeW1XdVmZKp/QcuwquEwtDfhFXCb5whz8PuhN0rJw9oO7s+4shgLA6DYmew+Ur+MUuu67LVyzZ5X33FPzoTHjdhF6uEHdG98eWWMuz9jvZd1W7iaVBMxhMIsGpxrWaiaVAoVhtYNJvNiau37v/3+F3V3P25mpkNzJ/gRvE9B40jCGgX0hjfAsNKAYSVl5r+EQr6CTqAthjJRNPy7Rs5180z0pf8CoqHsIp66+NiDlAcg7spA8dxdmP+wcUeI9BLGTe2ZOl19n/eukw0bNh5dROSh7rcf9vhuxv0c9/3s273kUcvLwxrvwxqXNR6lWOHRiPdhjfFhjet2eZDyICJxD+g3bx8hsm59iA0bNmzYsGHDhg0bNmzYsHEvEeA4cOheO2LDhg0bNvJNVWDXvXbiLvKwx3cz7ue472ff7iWPWl4e1ngf1ris8SjFCo9GvA9rjA9rXLfLg5SHBnpgx4PyqIUNGzZs2HiwHpErCA97fDfjfo77fvbtXvKo5eVhjfdhjcsaj1Ks8GjE+7DG+LDGdbs8SHmwvRZhw4YNGzZs2LBhw4YNGzZs2LhjbJMLNmzYsGHDhg0bNmzYsGHDho07IntyoaMYO4qMEk3WiGPYKNmHkXri0FzkazHIdJGXvpVZuBboDOGi9RZ5W9PkRw+Rk+Lgtk6k1XyJwauwgogRqeYq2gIpNrOXuVBKtBAl8rKUPdwv+29sP2tHnRMp6y2OB0TTfhTRlonXd0Mkex2Lu8db4lRaHl8ov+FxM5/cpe5uGZpeFuCUyFPivezjZeHi2Fxkndg5rhWR5aLvEfG0SEedyFIfkf1iKPmniO8SqXWhft5Ssxgh0kmk2AKpdq7BXY3vHnBGxFsMMxpZABAJF+kpImtF2iyQofhCJu+JvOQjclBqXOh404JuUTf/ylviVEoaR0oM7v96XB8x2Em71hKDPv+FK+aKVJGaCZXuyMf8EC76ziLfS4tLja3uryIeAVJ/tazBO99l3m2fC8x1eb1PSXKVIg1Etkrd888TLvpXRD4QnUSL1mOqjME937arZPG1SDtNtKUi1ZbKM+crW7cpVorUdRZZLVJqtTSMrQuKBSJ1PEXWitgvl4CfO6v8auuuI4JIT0TWIm0WMBTfG3Z3FCMio9BkDY5ho9iH8Y5sQM63vadSbMEobmvcyOI7kd5iHBIjm3HYKFKxmMg8g8hysX9vjMRgnyjiUUtkslFkuXiMfV8Q3QiRLprIMhFZ7i2yX8pteTNWxDdQJEonurUSsLhnn0li6CQyTESWa5r86Cj+R6RN8kPX51/DzKgp8rZEtdgokTWWyLxBc+QM3slRUrTqLO9ZEhm8WOZ/PE0uiXu3afK+RNZYIpHVl3jNCdojay51KNg5FT+K1Ckrskl8547Jvmawrpf82a6VW/AyrGk4mxv6kLuBiAci09DJAqTpfF5NK55rfzAi0YgsxPjuaGKwvyPbFRqLPSKLKX/w9bsSV2ERLsaOIiP00uCozCMAzFjT8nlH8S8hdjtFZLlI7Sjpn17mqEhz0Uruzr7mezVCduF0r8O5fRSI1ERkWfbWcxY/4I5IUURmocli5JVpRB90QaQVYlyGyBKkYySfUTS/53gQNJlYSjxqiMwQkeUOmqwR6bi3MH9LXc+u1hJcv+uE6JCXxy+UV7aOlthr2rG+z8KMZxq1r/TS1OU1XpywVN78p48gUnDbXf4tdZeJF/GrIzJf9IPWy3YcCRe9tbHVmkbvuW63i6H3dOnjOqv9ftmXEXjF1v0HGS5RdZbK3E5LZFNypR3TpLzvnMpREhmyUOY9t0ZiEmteX0z0fmiE87SRrEPfH0bS7GKTOKiNy9xPUMgoGEjDSy3u6NuXEzG0gdl8kV6xcL+pmcmn8B41EjoU5jdKI+FlyvzVL/vv0X7WjjsLZWHwfJTS/2ffEB2CUwANF7JBedzMJy/YiNP3n6GUnISnKLr046VhONahxGLWK78b/00WI2EowfHdbnrOMIwtYS5zVcB/Fud/uMVBbZxmf4JSkuyND3SKZN1e58XQCb9f3jErxWBwGArhVDsfWtC6uVW9lqRRJOuU+78eNxQXPV1nXvledf42ExOgL9UT2t2Rj/ncwkCz/Mt+QLvd3Nxtnwu2XZfX//jc5Oebx2Fob8MHGiyhZkL7k/AYxtHfoNBFQD9KbxsQC9XzY7tany1wLcrT81mr3HZAbXQjJvXrh0duG9Owbwk/MDS94kmoCG/P4HPcauK0iF5JlZVKB5RRKevayld8hbl546PoFKnW7XVW0En5/fLODfuhkXKeNlKtQ69gpGp2sckd2ZQFBa0ULFJuc4YrpSS/ccdBaYR58OoiNimHC+BG4CVPFYmuK0yly8l6U+EVKu7ruS4MfSeYROfUOlfLKIerP7WmMv33Ip/DW1Q51PlsI5yDKR9FtPK5ctzfEAyffY1SuntSJ//Jlsk7kwnn17RG12wmRkxiKKv+6WpRJl6eSAjblNuV/fFzKMbMoZM4q5wLmpeJYPgRWuM58yuUEtUbQx69zMApX7ZtyqCU4k7KqPAmXnk0rJSWuw8p/HZgRkEPFbD19RxNdFC+Kz+6uj8MTcF4FZpYTylEwReq6eJWBbY1vtQ8u+wMFPRSMEsFHHjt/m7fWYS54tkU/YI812BXtDxZecZDRfhyLDl9iVIW1kBHyp3qlbvM+zdWaxuioLt6Mikw57/HqZaxTyoYqkL2dlUqCwUhql8/DwX11evKXUWiUzBJdUmtnd94HxhN5uhmKnSl9KZeV8bmQq3TMLT3W3w0nm8y6ymFjGjx2hd8frn5v+77Apen2yxazJ+qqJqIY+gzsxeytFmlAtt+U8UevLZ63QbaRFfKwouL2aYcr993bWyN1OXVqHXd/pd5OP09RVnQr2m7732/Z296oFKKPZNpzMLoUSilrZhEcZYfKRUxhYqsOltOKROTJ9OHHw8PtGT7mr3mws9QhdLP/KkaW0xt4Q8OHa9qgTOG5HFBPN220k7wo6LudGFOjJwVCREpM91fZIFU/L3tRyJdRWSei+h+kcCNnQSRXiJjpYiMKCLyo+jeWCAxOF/0FLe6ItNFL3PF8aNPwsVYbgG0ZXeLAVJ3Q53scgyLNfFZJvX+acBb4uQvReaUFZkiRb79MO9smGKNSA0XkdluIivEc9xwobOuwIGFi767yDhpcabxTpHaoh/1zUAvKVZZZIK9yCKRHpEShVt2/JXmFROZIVJyi/hI3+Iis0Vqb5RuSRVBpLfIeHGVSc4iS0U6LZHwXHd7g8TYSeRj0clCkWbzZWBaMYAEaXvoqdReXvRKCSpwHFdRzB/GE1uhLt06jPAtJ02u1lu5o8+dE/ENEpkhmiwReWGqDMGLt8QpQNwjfUS+dRPZKP4NPggWGecsdr9LtZ3tlLXT9BHD8yJhmkikSNBP0jolGETCRDpp4vCjiN8ieeJ87Ty2JmfqzBGp7S4SbRBZKm6f/U+2Y+BtcXGTDotlIy60FXcH6byoo6fUEwmZXVxkipM4bJXq+9rwrDj2hzdJH9YO+9c/mXCOyjg3O0HjoNSGsJO4DRV1oH2tMi+7Q/qtsuXOb240ltHuImvFZfgomSlOeePKrrtuIuGi2S8VaTVLfHPqVv+5fCnSW/wWDM7TVsNF6z+S/iZiHqd+02+lnlTPk3srnBJ9hTHwMvvqvyEL7Xo6sN1JnpBPi4j8Kn7TwgTkZm0pD+XFrpPIcNHpokUqL5aGJ6veoOXKa9qdgLHai2k1QeQDkZ6iucwJEFkvWtWD8qS0CqBhlGx9sYg1fVtvB//CzY7Pnd/vvvMuaLuRXbuc5ol0F9dSEV4i80Xq/yY9MsrfkFef8oNrisy40i/Jdgy3ait3m63DqP6l/M97EPwGkA6+eNc5YUGZ28NGjv8aGJdPm5bTFi+swi2e6pdpSnK1Iewrbl7t/t1RSuS2kYDPekKdeMHupP9gjgey0o4ogrfx9gWmuBwCO5QiEyC/2rqrnKP0Fd2To3uuvjZohpwxksYWE/AHhw5XLbjteFVcNC+o0xkj00Hyf4cmXPSD4HXaME3IyATwUCpR7XO7QF+cDuHsTOCZcwfBn4CSRxqHm03Pwyb+OB+SXYCFhX/T8lTAd5sjHepc2g6B9Kyw3TvmckoTDh9jRlLZnPNoX0A3Xnp9tspJwMOJ4rIOD861GOgwP2ShRH09XA7rXXfonEO4/Ew153lBM3/w+PIF/DFlHy/ax6n0xv+92cqblIKetbdSWVW47t9fxDGPXi7imy9bMm53WsZfx6xoOAbX3H1I4WMCKEfpCgdyupi/iP+zNNde2TVCcR/6ux4FswIOcuKXwALbYuMqACB2QfBBZWDp3YmrMNETPpgUI6ZcHya/pmXLK1zIBCf4oZqTyARx+PBtOfyN3Wlw53TzZ51FP01Kze3wYN4NVgqlZvKzy36EohDsRaOAv4AQTgVXQwwzMQx8gXoRmSjLJsZKNTqyAY8RGQxx3JHfszwomgSgmc5pGDWb8U29RXelQhtj/Eer6EMTw1GwqCqWbQdJuFxB/cu+M3vw2uJSLJ3HuEBvLlc07T/DnmpVCmzbnVXyboT2n6GUpYs3SaBu/Mlzw9ja3pxXo5rca9369VTx6vnv1tkpS47vZtZBFdRMd+d5FSa3cn31E4r4Sb9e6tD50z4ZgbOLRL/q8uHz+JeLvOKoBnAJnHDUp4JQBpLJSnA5Vpf4pmw+4f7TkukzHT+uyDvOeT5X+ZtISaPICyLSTcT4ggTsuZ3HgwUalDwdoV5Vh+osmQcLUXSJwfI6B5a0BwwGMFLpwObzkbTpZBmbQlRquYyLlPidwQYiVC+V+slH4Srz73YQzWNrxlz6/Yn4T+nThk1ZXRM4158t015sWRKdP+biR7peHK/OD/hUgcrtRjPYnRKmuq8vRdeQi+Oq8Ou3+X5kuyiTQtC0hSJV5svzyZUIV6avYAyrW/Vrh64PfQd+M/48cQdRg9Kh4yv8cJqIxLrZ8Te1j1t6qu9GTnxO2hePn9ob1mMif8zm94QncxKkUefIwhSV0WYkkRuYvbfDmatnTuSn/bSMLLIIzHT4jbXTWbT3+XQAFawNgGnMnPzqIbg6UeLGCXeedpwqYlwsAdut/8i3Uk2dwvi1BnZb+GnB0F3/cP5qvf1dZumX8Pr+x/assFiy2s5kznrmre6/zxlxxd3tXP/Lo49Dd067N983XA0/QOZADv3SWrMmlIlZWYto8bkFOkWx/wd2bG5/XCj9MV26q4mXuyrLqfbmX4tsvSQEXG/b9Kzf7gjs308cmP5OViTteiV94M1biU/ePJ4mjqeWqkGHSB/EwZ9ayzJ1eRxMwO3j5aSP/agzCA4e6SZQGqRBoh23IexMAjMJVx9dCqNlu5QPffnleGDuuCwoftpPy9lukz2xpLdVrOwed4ZzYKZc2/cavkNYMD91+DZPWw1Xli/KMRWa/cG2nwcO2UJo7txbrPjkrzL/6gaLCdk0Vj2fMVWPn6ghl78+35DnipyJrEnMJTdrbSlv+1Cs+ZtWkZ4z7DGb2+3hYDgbx74/VY/91TZxoPmSa/5i2IRdE75Pfmcb9EF1WvdFCzZc2W1N39bawT7nf8m/leOt5fdM//7Od9JudKDDadzF84ouEWyOZGN84+vzGnfu77XbGay/0i+pGmTdrKz/hHri0A+XvrzZdUxxsn1xgThO/Vxe2y6GFVAZB4u7Ac7kx3alWM8WJBZnvQvjkotsHUXAaZx8aE5SHtsRHNNwN+OICRMWD+Itxgt4olvp5CUyQqTUNKn3d/V7l6A8OODgkU625nLp3gLXjZFAMlnxLgW2mfe4kUIfGsyeSyYJ+XdRsWgYzaM8559b7sTW6+2LRRoVu8CG7X7jDvJhzdhgOMmhPSEx4Tr9JgiGyw4AhOv0s6Apr9VYF7oPXRJGO6pyGTScIJULyhmAKNyn0rEkrzkeKGhCHwz0mMx8Q5G5/S532hs6JGmIxj+RzyGX7XBbtz6186EX30t6O5NdF1oDXJxNiW8cvyhFE4/NhelFyjbsc+uFWJzzZSP7Fbk7KqMxqXk0fFicc/chhUb2Y+4r0L86CbC7fk/O3/xdnhSEmuIITv0ZMuQbyJ7gfCC5TssCFINd8Gn7lFD690kfXpxuXVs2h9kE7Ol20s08uMrxN1/mKwLutdv5wwQiPRBtJV4T3s55bS0YyoykyY/DucwZwI6g2PUoXiRrfCZfxbfOfptBxRDK41x8L4sBCS0L6sF9qUm77N9sp9ZS5ZjLa2d5hkuFk++83LggnyV/+7JvsQuAQkC7etv99m26u9gH3EtuGFt15NWoCrgfdWsW7DC+cSql8+FXVidPXsTpn14TEM8e6sT+FxKem5X86Q/E/vL6lTsRGoAHpJBmdgbFEXDB4JK8ZwtdVgYd2nyxEfXfTvvfHp4/Uvjv2+lCDtOPS5DJy9AMcRtfz47OkObCdvRZYKJsydOEYnGHRBLN9r5h7B/I6GX2fQxzxXd8X8F49cdzKvjDb6WoLyO8haHo0i6vMqCLJySefu7HbubGKqjgPEwb99hphiSg8wRdvt9nj6f3HiyW55Xa3UktdDkI4BNGbG92pMV6RQjj7Q4ngkcg8ono3D/dDKVJMWW/P6MreY5ni10uCZcwljpB0LCsALhAVpK9ACYw4+dzHow8CYdJPV7s4JUfWrr9shMqkDrsMYTRraAtplOmDABE2keyvUvWmzzlRjBmixkgkRKXWJvWU6nMdiq2xuICT4VdqbdwdH9DCTqX3yHoeQr2krC35I+OSDIlUuhif14rRzJ4n6UJSQ6QTHqKhrUf640N+o6s6idS5OtwaIDpkksKFMflqaP0JgnR0IC0XLZ6UThs51mNznanCDWZG8AeTl4sc3Pfi8fzLJf1kEx6qi63L3pII/WivR7EAo7gduUHR75Iw/MyjUkhPMNUDo5xdJl/7rh0aNl1V7ztHwosKKV8AR9+8z52njA8SqcSdOVO2U04h95a7nX5mAhJplgKz9lfoA6ZnpzPgH/01tpS3qDN7IZyFGu5Q4EluD//FOdPx0nFcbym5esIN2V2IWM9A0t/VhSvAVRtNe3tc9dGImv6ttYO9v9bMFaOt5ZfM/jfUbsBcKx6UmG2+MMFslLsr89P3n7p3i6WG7eF4D/RlWFUpRGj4CX+fLW/z2u9k19RH22nlufY/kbKk+F6rOY6dufHdrXglaakt9gSwev+n9VxpY0FfSxNVsfnsQWQ6MQFHWno0aOdx1tzMJKCuYElYZ0KO8rxL9kyY5BcN/l5j0kj9aI92frJpXsNrhsjARcMRZMLbLOfooB6bKnYAwgn+ePnCDz71C09DNf0kdCSpB61np/HFMWaejw/qbcg0k6p9adrUPOVuJ6u1D3zTCuIqh9b36/JsICRMWDB3uscAL/juIEWHjTgHEGYXchMZxcOYCEZnPCUFIC4/ZQx2z9xgRpcLqT83qfotFhVOQifYgoyLB6KJHiM0hZzzrx8pnKFVBA9WPgllSdwa/+npZB/lDrXJD23XgggJV+2nNv/d1RG8MELuTXcpzflcvch0jc9oFACVmobSrXCNK03sJsj+0JyfqRUpmitf7g25mbCyTjGXCwPOgGCKdFsT4FtZfwOsp2KYCzFKM9hwGuc6NeZ+pceK5S4/kuu1zKAUmal2p0n0mxuBVs5ezrAR6lUtY8U90sk1ufMEbYk+d1jr/OJHpSahrK0JKHvlwjVoMMgBvzzJr+U3Ef4ZROQo9EMBaRimG+PyFjeyKhIZLoZuECquWBrxXF/ahJHMsDMCqhKsSYH894sLSRiyCyn9sfxy+XyoMkOrX4wXg4H5V/2+dYlvmHyKXs24clXOO4zBPlRZe+uAtuCDCfuSmz3mNxjq68VjVqz3VuvNWpYOIBSFhNK+ShSIV33wVTpKyuPdQA9lYQEzEmu+pzfIBpAE9hN7IqqEqPpl0Atgjx2xUFRXF1TiLGY2sNOLpwukfuuaEOljmcqNVspNUupzNkqNuRggfx+y85pEg1fZsOlD49lMAkyM2567DC08TXUgst1TZ2bnHvzKWYevProjB5OQ+OjrFPvmixqkDJ9/Yb651YXASJR0C+le8oPqgafVeRsAuSs5nLd39vhj2HUmGTfPqlhQh+NLvHV1kCb/eX+OqZMl95rBXvyW46AkG4ygMhCqIFn5UONU1CgFOZAVQX+xvWTbSg1OFGp3upcu+/crvzjUGX6BCYXSaQtd6sDCsdcFk4SeTQk57GZIDwDjz+TdvvnO7uewEjdF4FYBg6ZACuwoDIgjuT1pfkeZzAhgk6fy/ZtCTKrscrMogw/wvXaJgimuMcRUlEeJBjQMByIxjsdB4ebnVsDM5ZMA4CzD0dJW+vP9tMOm6Ea/o//Zc49bfsv6MnSkY5GPTuH7VCBMwMcc8cFEAJHOL28hoCGiBbljJjwsmS9FNon9OLLbrQ5X9ta+S4eWDQydRSznnuz1boWjGAmU6w/qm8qb7Ut5f11rKMq/MPpNSEC2sEISp+kWtorsaRaLTdKr1sMwfx4dKhS8a+pndW2Wj3uOqy1g+w9ymqbutnxufN7Fs4Udru5Ia+5+6UfuKeP9Pkp9YdSF59UKqvzEJhO9ckRatw3/0xh2/fKEtf/60xOE9hiq2qcYcqXDcFfgksIOu0N2KBU0qtbkliDsd0RqjZLy20LLU3CEyxMYV6G/6nRlDxIi/Ry1dnjwOE0XNCyX4PIuH8e0b1O9+ToHhEDMsE/Z/5jN7ErqhKj6YFaVCq/s8C2sot/RanWmEwdgXBc/hfNfp+fb+ljuDLNU2qgykptl/4svYRmm1nYctK7IqXlLZzYlp5VAU5zMd27CKRuClUfqbDYoQGg0dZxG0D8KnzOE2yiDqmEZplrwz6m/f3YucYOzjGUK8mLrv+A4lIgOVYAACAASURBVDCUwrPyWev9ycOEyfK04YDI7gbzDfOrLP/QbVgFKpVb9prG5DKn6/bQoqpEv+fyUQjFPVaCmT90VMTO+2ihN9ympOXWC6WJy5etqCT5S3AJ6UF6gctwqZiYW8MTlVqfpw+ZYB9buIFrANEcaxCEThcNLdvxfINpiAShfTSPcAUQQbTnUIRo7D5QRLSOKbBtgtuvKLUDdaE1yvIy8A0lvpvHJvd8Pz5/v3CDlrHwlkiwvIsb4TrtZ6hK8bPHS0rFWhKDniCctuFZgoauhfp6839CuOiBdzBuqMy38j3itoiQy42AyWwo0QPNLhq6h9D1uWXAEsY6foPYL4dugXT1WVng896JJl22Jw4Q8ZVAVGFqkqqkgYkDUBZ/15OFleI8hCtLqO6ziIabpg4NeXl89IfFuyjan/g1pln1bpIY93Yru8++u3Gf/a8MsKR0tXz9Q+WJU6dX2zUhckmF2itotfJwQW2mBjx4bfWW5Bpbw0UrkVujT0w8m8f2H+v2ZIRUcZpfOWqNQ9GnONhqnCxdNvBSdX5pffFxT31Ujehqrh3eokiL73vZsaLMhSYvSGSVpTWdOryJe6Mp1094RatQjB1gJMJK7MO+Zq8ynoQSpWEGOqbB49PpnlbyjhaJyLWg4xmogu6LSSglKgx9T/gCg88iHBkNPaPYhmNP+IbuqTWVQvrAWF5IrLsDgpxhrhHmohscwbYwx2HwPrUvPKcU8h50A6eloJ9FqY1t4265GJyJMdAViq1BvMb7UmwV61WJLdAE3TtzB0MrdO/MtbaA3lkoWxSHA4j8CCzH7dNPnh6CU334gQGJFXbCYzB41kt66jri8BPiPrkszKFmQvvr4z8BjfGc9zkKWQ2dKbVjMArpCxNwdF1gD4sxDB3HUuWowjC2gdnUT2imymEXCp+iOS2CctNokRSYvcjkR9PJWYxpMIyh2PLhd7qgYzPs5rJOFb+h3pQiFvwqwQyExdB5Km8qr+sX4EsqR1F4OYpNyiEeKsGwaVxdlObadskVzxqwAL3nLDeIwGXOp0Siewd6gstqcFlAtUNNVRjajbZ9TedAHTeI1sNSXIf/j73KqMLQBsEwdP4xuPIltJ0V6kG9K77HQRAy/HuU0pKgaCD8iOGVsaxr5PwJ9ABWQeso3lK+Kgz7JyHCG/ZiDNhK0akDTdbyNASnyrBcB1OdYAXFpvafWAGvPHEpJao4Du1hJJrDcqgzm9cIvLKgYywEQr85VhdtDEPfFb5FGkdRhYZ5cn+TOtwMdXS4xlDK+X1/Hl/EBuWhhuBUnloLWKuKWGtLVssqh10HGI4mS6DiYhodrXZjm0Cu6TadYfAhxqIxoC1Envma3pQNoOFCfu9exJq+rbWD18Zid7XN56fdWMvvwJGlC9pu2LnT6drCrmaioRsBB16zXJ9XI5PskHlX+6XbWnDz9jfyvbhPFl/B69RMaH/JDY9qMA1YiEP4MPYqY35tSX54laHWBmYFlOoC4QgL4dnv6ZvsrcLQ57EpC8uhjhOsgBKreOJoPaVMfAvPgH2U4B5Fzd2Nbqat/MdXWBuioIeCVYrWUeot5augvtK/u0T9pexUKEYFI5WwUtmHfa32KuMd2a6cFxoot7mfqdtY0FEphXoOd+HFeWwa5TAaWjrAMoGl8MJ03lVFtkMVJ1iox24xpaK6XOmvTkNNjF9OvdJ/nwGfQIjUI6spubiXKWdMnAJ9KXt4QMHa3KO13X5ekN7whjdsQBdwGEO/0Ww67pBXL9Y0lNd2VZuRqf4FLcO6hvP2IQ9zO7hf4zoLZf1gvjucwOizisD4J5XKreUsxkILJ/hRgx9x+N8ItuHYG94Aw0oDhpWUmf8St9vPPCTbreMtXE2qiRhCYRYNzrUsdE2GoXWDybyYvVjl/d5+737d3Y+bmenQ3Al+BO9T0DiSD9JK5BlbI9Hl0eg69NZ0+yDlAYi74vBzd28OxEbBEOkljJvaM3W6+j77rpMNGw8UdcRVv7XjV+aj8wep0pL5EXzwaZXzh9Uuz3n32rUHHRF5qPvthz2+m3E/x30/+3YvedTy8rDG+7DGZY1HKVZ4NOJ9WGN8WOO6XR6kPIhIXL7XFrBxj7i3y8LZsFFwqnH5ua2R8YvKrRqvh3QzndPo6lnwxxRt2LBhw4YNGzZs2LBx3yLAcSDPlyBs2LBhw8Z9S1Vg17124i7ysMd3M+7nuO9n3+4lj1peHtZ4H9a4rPEoxQqPRrwPa4wPa1y3y4OUhwZ6YMeD8qiFDRs2bNh4sB6RKwgPe3w3436O+3727V7yqOXlYY33YY3LGo9SrPBoxPuwxviwxnW7PEh5EJG4e/q5NBs2bNiwYcOGDRs2bNiwYcPGg49tcsGGDRs2bNiwYcOGDRs2bNiwcUdkTy50FGNHkVGiyRpxDBsl+zAminjUEplsFFkuHmPfl5yPfReEcyJlvcR9r2gy31FkhXiNffdOyssvZ0WqiP7LSYJoUSIvS9nYfnmPUmwVaSe6kgdEZLmI/TKpGNfirjr2ljiVlscXym94WNt9TqSsu9TdLUPTywKcEnlKvJd9LIi8KzJK7Ir9nu1rzQXOjjJIJ7LUR2S/GEr+KeK7RGpdqJ8fN2JEqrmKtkCKzexlLsz4rqKYK1JFaiZUguvrg3v7fft/zX8mL4o0l5W4/veOFQY35tzGo02SqxRpILJV6p5/nnDRvyLygegkWrQeU2UM7vm2XSWLr0XaaaItFam2VJ45X9m6TbFSpK6zyGqRUqulYWxdwsX4jMhSMdqtvtbPKhaI1PEUWStiv1wCfu6sbh7OXUQEkZ6IrEXaLGAovjfs7ihGREahyRocw0axD+Md2USao5Xcjchy9K9GsAun/PuaxXcivcU4JEY242DVZmVMB5EwkZdEnNaJlF0sz1yqtkEk0EtkgVGcV0pgTFsFHBVpLlrJ3SKyXPSvRsht+fagoYiaKg0d59VZaT8/cJksmvyFEGWcNFVayrwmi/WR5afLvCEz5XBc0bw2ihb0nD+K1Ckrskl8547JHg+t6CXftmvlFrwMKxruKLo+IkNEJFrEf5XU2P944eQ8FyIeiExDJwuQpvN5Na14rv3BiEQjshDju6OJwf6ObNlllkNkAUWmTOJeX4/cinAxdhQZoZcGR2UeAQBpjuJfQux2Zl8H1o6S/ull8l6zi/4rkWftRVYYxWGdVFjT2XKPQykwIu6IfIH03MhGXHJsRRGZhSaLkVemEX3QBZFWiHEZIkuQjpF8ll+NPiCaBOJF/KqKRIpOt0KcP/9YoPAX5rdp8o6JF/GrIzJf9IPWy3YcwfrYmnsMFkTurW4zQOQpRLYQdP7lbFs6iHRFnFci9ssJ3PgcRcQVkQg0WYTo1lJuxYu5S4reD41wnjaSdej7w0hannhyKrxCxX0914Wh7wST6Jxap6DfvDwLZWHwfJTSq1Ac6uG/lDWq2N3+1uYZqILui0kotGvfqc99nIUt0Ba/1eHm/+o7oENwCqDhQjYoj5vlyws24vT9ZyglJ+Epii79GIW8CZ/T6FKLG/9NFiNhKMHx3fLvRyafwnvUSOhw92I1MQH6Uj2h3Y31kf2t5Xu2/Vv+I9GFwkTWqxL31MdCyrltezg38vPN4zC0t+EDDZZQM6H9SXgM4+hvUOgioB+ltw2Iher5sVmulNkC16I8PZ+1ym0H1EY3YlK/fnjktjEN+5bwA0PTK56EivD2DCbiVop601mn3K/6GIpDTZwW0SupslLpgDLmO77C3LzxUXSKVOv2OivopPx+eeeG/dBIOU8bqdahVzBSNbvYpOC2+CYKOqpyp3oVpF7joDTCPHh1EZuUgzVbnjG92cUm56A8vLSQKcpFgZ6JGLrCt/RJqZpYjCJFeXwxmy55roGOFNC3B25bh77dlOIz2ZURohRa7yl8zeadDQdOZhTrk59UCnllCt9YtW1Ka1DQvEwEw4/QGs+ZX6GUqN4Y8uhlBk75sm1TBqUUd1JGhTfxyqNhhc6XgFIoJf9AbYyfT0cprXDbgRkFPVTA1teVsqCgg/Jd+dHV/WFoCsar0MR6SiEKvlBNF7cqsK3xpeZKZaHgSQXPKPuIcSrneuT+bd9ZhLni2RT9AuaqAKUU8VARvhzL1WspE3mu2V/YVvdxqM4KZZfkS1ED7Rfxm3K5v2O9yQbB6gnqKdosVr8pl5w6HKpC9nbN+e8Q1a+fh4L66nXlriLRKZikuqTWzm+8D4gm9a/DF9TYEWpRFgDjFf8Lr07vH00+kG31WpvVJrpSFl5czDblqJSFPGNrJLo8Y/DvnxWxptv/LA+9MSgatlYwWFVKeEkphSqKryI0Si1RLgpcFKOqKvBSDuPr5MRaSxm//F4ppeXUWfaaCz9DFUo/86dqbDG1hT84eKzqAShOQMkjjcPNpudhE3+cDymMOZGkVTgeoWQWzpvTx4u8JiEJ3cDEaJHBUvVCZ94SJ38pMqesyBQp8u2He0WqioTMLi4yxUkctkr1fW2slXtWxKeyyAR7kUUiPSIlCrcCOxku+u4i46TFmcY7RWqLftQ3QpRujUgNF5HZbiIrxHPccKGjbp5Id3H1n1xEZLFIq7VeBunnJbJMtAGL5Pfyrr1FxourTHIWWSrSaYmE433DuYLE2EnkY9HJQpFm82VgWjGABGl76KnUXl70SgkqSAj7RALdRBetF5knxVd2yz3zFSfGUgugLbtbDJAn5cnrcx7eWOw7iQwXnS5apPJiaXiyKoi8IjJOPOQrT5GfxK3z5NoiH3qJxIjvlE/Eyis2p0RfYQy8zL76b4jvjJ6JIJh/KOmbqy7PivgEikzVRBaK/fuj5cpM5i3ydFYkRKTSvGIiM0RKbhEf6VtcZLZI7Y3SLaki4aLvIDJVvsyoSLjo24lMl28pd7XMC2J8XiRME4kUCfpJ2p4N+a4jLWPgaZqXGC3BFxqcE/ENEpkhmiwReWGqDMELRHqKjBEPGSXy4lS5MpN+hT5iuKHc1inBV2LoJhIumv1SkVaz5LvvvMNEOmni8KOI3yJpcqbOHJHa7iLRBpGl4vbZ/2Q7Bt4WFzfpsFg24kJbcXeQzotk1y6n7LZXKsJLZL5I/d+kR0b5G3LuU35wTZEZope54vjRJ7IdQ0Hako0Hk63DqP6l/M97EPwGkA6+eNc5YUGZ28NGjv8aGJdPm5ZzJ+HCKtziqX6ZpiRXG8K+4ubV7t8dpURuGwn4rCfUiRfsTvoP5nggK+1wwNOF7QE0kxEibcZI9xTvhChKbePtC0xxOQR2KEXmPUnWOUrj3OwEjYNSgZ3EbajI1T7NDDljJI0tJuAPDh2uWnDb0aqAO6ebP4vop1Fqbgfye6cmXPSD4HXaME3IyLRui8o7ph+KrboNahDw5q+WXiSjlEntRTtMMRdedIpzPcWF1mw4yayUkqdzfHMW/TQpNbfDPX/S7G7SGOUg5zJJuuQGoNdwILFkmd4GpjufbD7cKdIveoprhDu+Vbflsfk5bC/oaXsrlVUFUq4aLuKYRy8X8c2XLTnnWucOyvjrmBUNxyiXOHX0mMKk/oBSuJQ6BRTyg0UmgHKUrnAgp5n9Rfyfpbl2PWGE4j70dz0KZgUc5MQvgQW2xcZVAD0o9QsQX7ix3C30hA8mxYjp6ofJM8EJfqjmJDJBHD58Ww5XsjsI/jdcs2/xDv5VqT9VSzJcqpHhSqoZ/QOqZaX2Uoe9V/8/3KAHQjgVXA0xzMQw8AXqRWSiLJsYK9XoyAY8RmQwxHFHfk/xQGhyLt6reaw0n1f7RRCUUndhvLRpslBQytLFmyRQOX2mhdxja/g+DHnG4OmDStxT3U5UWaiY5UDGVVs8pdEfNtJWPgffKQTV90CpBF4ZuBOR8VBpIg27TwSu/tTUAC6BE476VBDKQDIZyc6V4ASH9oTEhOv0myAYLjvk9iFGxF5E/EWkuIj4i++umz4+6cGMyuhlWoVkVp0t0iUW19EpNzvWH3PxI10vjlfnB3xaFBQ0cTy1VA06RPogDv7U2trFjg+cO4galA4dX+GH00Qk1rVWtjUEhLN9QnUiS0S6TZSnlcNXMIbVrfq1Q9eHvgO/UYSam8HulDDVfX0puoZcHFeFX7/11oEOh2/jLyg6vMPKnedLxhiD19Gui4q4wPffVRTQqHNkYYrKaDOSyA3M3tvhzNUzJ/LTflpGFlkEZjr8xtrpLNr7fDqACtYGwDRmTn710HWvkOhBz+bKH4nIYiny1YfWL/ws7IeaScV+/MOsVFfLyZazcv/y91OZx9pBNI+tGaOq8/u1nPf/tP56WkZ6zrDHbG63h4PhbBz7vsRipwcDlff9diGM1k2T5gf80fHETwlNec737Jyq/JZ3MsdfZf7VDRYTsmmsOvPiVDdQ0PTymaXqtWt1KdpIeO1A/SNLLIoOb2eMuMA3yTVuLElZzVMWCDS1j1t6qu9GTnxO2hePn9ob1mMif8zm94Qnb1nxRTdlLaLF5xboFMX+H/hjdzuvMNbURLaw+sRgtbfIpi/h9f2P7VlhsWS1ncmc9cxb3V8Ae3DA/4/9FjWjp2pA8g3lTsy6sdwdm9tbcmKY7TbZE0t6W8XK7mf693f+mC7d1cTLXZXlVPtNz/rtjsD+/cSB6e9kRdKuV9IH3ryVeNM4dKDDadzF84ouEWyOZGN84+tzHnfu77XbGawnQvVSqZ98pGqQdbOybDxk1BOHfrj05c2uY4qTXe8uEMepn8tr28WwAirjYHE3wJn82K4U69mCxOKsd2FccpGtowg4jZMPzUnKYzuCYxruZhwxYcLiQbyFUuvTYwnsQCb9p7NsO6tWv3kB3NCtdPISGSFSaprU+7v6PcqYAw4e6WT/eEqDRDuu9q0WuG6MBJLJincpuC3ZBZhNwJ5uuJkHc/zNl/kq+3Hnf0exaBjNozznn1vuxNZs2wkrts15x/SsMy5/gycXXyzrITJO5NlvRFfSsyKnkxl7vswld9z+hnJc8LBrnuPbSTfz4Cr59u1BRZl7WzK/Knrsyb4yv9m4X+yMTli2WIabXQemlF76emrHuOfeSez/D0eimuW1Jd16jMknKduwz6OXWJzzZct5LPqOymhMah4N26ExSOzaiyGiM00+olmraaqwJhdEaiKyAv2rkwC76/fk/L03b0c9IBSDXfBp+5RQ+vdJH16cbr+0DIaT1q/ZFStW8cR5165HqJPrWuW+xQQiPRBtJV4T3sb6BKcdQbHrUbxI1vhMvopvnf02g4ohlMe5+F4WAxJaFtSD+1KTFgyXSHRweVpecxSZJqUXdCy0V5ptmrzL6Mg9tg5z7V887xgsObn/D3Wb/YrRXKT2Yvpkv46fCz0007NODYEz77Dv2zfYjiPjVAZKDYSD3fll2DtcfU0zZ3LBA1JIMzuD4gi4YCiW/DhE1Y+t79dkWMDIGLBg73XOytmC9BAGhIMxHBddg5v5fpEXD2BSPc6EUWfo+UGpvPhF25sdG09IPP3cj1016IrH8yyX9ZBMeqoOKx1NIngEIp+Izv3TzVCaFFO+3xNVoPCZGGVWqq1Ss/qoBiT7hBHbmx1psV4Rwni7wwCroILzMG3cY6cZkoDOE3TZ7zo5VzuhyDS7QAKewSdiGqebPCGJS3o7E5jx8zkPRp6Ew6QeL3bQOcd/3X7ZCRVIHfYYwuhW0BbTKVP2dJFI+0i2d8l6k6fcCMZsMQOYwES9A58opdqp8299an2w1wiFBc+ebmlBSi3SAtc9date4VrOzeyGchRruUOBJbg//xTnT0fiQh2zwES5gJOAxYDEM6D4KRqQ5cH5DEz5XEMjd11GoT8BFdlb5zkRRk+E8sSZcpVlxlqeMgF0Jc/xbLHLJeESxlInCBqWFQAXyEqyj7mVL3H19R1Z1U+kyNfh0ADTJZcNnte1rXB0f0MJOpffIeh5CvaSsLckoGVAJtUDd1mdTmxsyFOuDi27rou3/UOBBaWUGfxxeeoovUlCNOpF4bCdZzU6250i1GRuAHs4ebHMv8bgWPWkwmzxhwtkpdhfX8++YewfyOhl9n0Mc8V3fF9rT5fYeDiJ20Lwn+jKMKrSiFHwEn++2t/ntd7Jr6iPtlPLc2x/I+XJcD1Wcx2782O7WvBKU9JbbIngdf/P6rjSxoI+liar4/PYAkh04oKONPTo0c7jrWF5IitZ7YhXKNUM/uT8ft94yMDcwJKwToUd5fiXbJkx6L9Yj8cKaaRetCd7bHEEtysTDeTI5uoYCbhgKJpccJtXMkqlso8ULpEIZ46wJcnvlh6Ga/pIaElSj1rPz2OKYk09ugzrPze37flyvZ0g9cYxvWhyUUjDacTZRMUbS1i+kQXzu/aAr/0ivV72SAoeEg/x1HI876tUqtpHivslEuvn17cHFgsrTRjj/X9/S5VbM7hSelEzvpGHklUxV5ydkyBLeWikY0ovmseWaS5SWF441yQ9j14CSMmXLedW4x2VEXzwQh4NO5LBOJWxSKn+P7OuO3PfHS7XXTzeEUptQ6lWmKb1BnZzZF9IziReZYrW+odr1zWZcDKOMRfLg06AYEo021NgWxm/g4Xi/71GKbNS7c4TaTa3gq2cvRhQ9ybX7PGi+b1MYC9eDv220CaH7jp6UGoaytKShL5fktvv8MsmIOe+W4YCUjHMt0dkLG9kVCQy3QxcINVc4LWz7ktNWrjsgp1KHpQ2Na0+gyrFhnXQbyjo2i+5sGnyrpNnbN00wrsPjMo9BsN/rFul4lGqC2prOyba/2PliOOYkhPxR+HNZciEmlIf54nDAA1HLsBFOyzX1v/QAJrAbmJXVJUYTb8EalGp5M7ykLopVH2kwmKHBoBGW8dtuc/WUKntWUr1Vkq9olTGq+pw8JpbBhF+2eIOaWRg7wIZXD7rER5u0I5DcbSCPvphYQ202V/ur2PKdOm9VrAnZ8fVCpHbrJw/hlFjkn37pIYJfTQ6plYFkSjol9I95QdVg88qcjYhP+UICOkmA4gshBp4Vj7UOAUFSmEOVFXgb1w/2YZSgxOV6q3Otfvu6iMAocr0CUwukkhbbtP/cWBeptSI8/bHX+PArAFavi8KdFSFfzi9JkRAOxhB6ZNUS8MvKu12zp+NYAQzmXLzx/FDMReDw1TbvFAp9cYlpV5Umzx+ze2TtTzdavYoPgjlBCb2mN2Zh0M8Lj7X9ipV6k0CI3VfBGIZOGQCrMCCOuOH0qMs/I2BcMxl4SSRR0PAzDoIwjPwONc9+mONs+vzlgsQAkc4vbyGgIaIdhbOkLy+NN/jDCa+LUFmNVaZWZThR7he2wTBFPc4QirKgwQDGoYD0Xin4/AvdXldzoehja+hFlyua+rc5NybT/EDJW+RMhsPCX5K/aHUxSeVyuo8BKZTfXKEGvfNP1PY9r2yxPX/OpPTBLbYqhpnmPJlQ/CX4BKCTnsDNiiV9OqWJNZgbHeEqs3ScttCS5PwBAtTmJfhf2o0JQ/SIv2lJuIsVY+VBgubIYgiQaedGhHrwOE0XNDcIR0y7s1juz4cJW2tP9tPOwDV8H/8L0QMyAT/nLmO3cSuqEqMpgdqUan8zgLbQo7tQSrWIgY9QTiBZwkaup6+pY/hyjRPqYEqK7Vd+rP0EpptZu6UiKjctoX9JzWHXTeO6WV3Pg67OH/ODlBekIY5SzcBTsQp1S/Ree+Yw7RJobqcKSEVa0mOb9vy69sDi1DfHme7uKZTHf8Ojl7iOeYgj6X+GcrBybLv6S/08wNnvuv4dmVKPRWdx1baY2WhudGUtNx6oTRx+bIVlSR/CS4hPUgvcBkuFRNzazjsdTGLTK6ggNo+xDlw0gkjxkKLGci5BI3mWIMgdLpoaNmO5xtMQyQI7aN5hCuACKI9hyJEY/eBIqJ1TIFtE9x+JVz0iIQBX5L5+TPIE3P48HKJwo3rbmLhLZFgeRc3wnXaz1AVn2JHrV2zXxRxew6+im+wcKwa63D8XnteMMwg0omvmAMbavOE+2yCUp4EJrOhRA80u2joHkLX55YBSxjr+A1ivxy6BdLVp+AavRNNumxPHCDiK4GowtQkJbhQhQN/4ajZU54sR1JMZBb2TSObJu8K4aJZG1v35x6DG3H6nurWXdwR/VSgN3/XGoSx/2hWkwDfbaCCwyLOGWdQ4ZU5+LGJ1L5F0BmWkWY/i/I9Z5HrKe5oFYqxA4xEWIl92NfsVcbtUMUJFuqxW0ypqC6mO1ggInuBQpd9iCw0wFJ0r37HWOV6Eir4wEZ0AbPLw3iqnO+ce7G96xcBjIMgZPj35Cwacf32J1R1xOEnxH1yWZhDzYT28VDMi1pr+ESV2AJN0L0z98oCWNc2C79DO7QSB4DloF9GuWd61kemMyCxwk54DAbPYlOkwxjoCsXWIF7jfSm2ivXnS1xbKDKTT+Edaia0VyqdAfA1oesa9oUJOLousIfFGIaOY6lyVGEY28Bs6ic0U+WwC4VP0ZwWQblptEgKzF4A86PpKKWpMLTBMIZiy4fnf0HHLEZCe7Cb5wQL8Zs1iDyLKGYyDN6n9oXn8ixwWA67DjAcTZZAxcU0OlpNKaQnfEP31JoqDGNLZA7rVQkVhmNlqkSxTnlZq/vNUEeHawxe4wftgarW6jIW/AJhOqKfB6HjWKvc8pRlJU/Xt40T0BjPeZ+jkNXQmVI7BluUmRnQFrx/R6pGlEPmM16Vu5r/x4I614AF6D1nuUEELnM+RSGfw6tIybVU+qtZLPhVghkIi6HzVN5UXjfkwkrMl1zxzFuuElUch/YwEs1hOdSZzcCRpd+BnuCyGlwWUG1f0zlQxw2i9bAU1+H/Y68yqjC0QTAMnX8MrnwJbWexc6fTtbZnJhq6EXDgNcv1OTcyyQ6ZZ4S56AZH5G37tu1B3cj34j5ZfAWvUzOh/SU3PKrBNGAhDuHD2KuM+bUl+eFVhlobmBVQqguEIyyEZ7+nb7K3CkOfx6YsLIc6TrACSqziiaP1foUKARCFsAyem0PvFD+lgqqUbAAAAhNJREFUTHwLz4B9lOAeRc3djW4vvsLaEAU9FKxStI5SbylfBfWV/t0l/2/vjEHaiMI4/ntJLjG1oIu2pRRsLG4O4qjYgoN1yhS61aI04pbBuRkdFEU3B0Wpg4nQIhoue8HJodBOqZNSpA46OTjI16HSqjkpCWru3n2/8XEc7/fd+793HHfvpCIJyRAXmBaDK035Wfku8brbdnkgkBMcV3BcSRVGpNZN5dK0Gt6uX8n05TaPNV3yRN7DJFFTgIE13n17NgNvIPIZUhv07/VKkWgWcuC4Do5LqjCC7ze8C0oW/421LOTa4QvRjh84E3Ps7Cev58UrQ15tf7NZPH1a7zm8MnwMLQOwALGtCMkyL7Yz5xaPA796/YLOJ1BohQPij8p07w3Ow+tmKEWgRPLDFBVJXL9nzy7ijMJHYs8rwCZ0fmLwpMfPro27trebSVnEycAafUfDt5lJEeErdLXBegI2eLwyjuXzczC9zlmFoWYoQftPeFUk/7Kjem3FVK3BeWJeuQ1SHYBDc9Hh9F08AFGMGTMsLI+erspS9ZsfiqIo9WCMsXrett3vJvzs7ee+NZKw1cVWX1u9vAiTK4TD11ZHW71qJUh1MMYc6jfY94Fuo6coiqIoiqIoiqJYjOHPr1fO/negoiiK4hsecvm3WfZhu99N+Nnbz31rJGGri62+tnp5ESZXCIevrY62etVKkOrQ8huIgFXlvKJI+QAAAABJRU5ErkJggg==;" vertex="1" parent="1">
          <mxGeometry x="40" y="160" width="1047" height="193" as="geometry" />
        </mxCell>
      </root>
    </mxGraphModel>
  </diagram>
</mxfile>
